<?xml version="1.0" encoding="UTF-8" standalone="no"?>
<svg
   id="Layer_1"
   data-name="Layer 1"
   viewBox="0 0 50.000001 50"
   version="1.1"
   sodipodi:docname="ai.svg"
   width="50"
   height="50"
   inkscape:version="1.1.2 (0a00cf5339, 2022-02-04, custom)"
   xmlns:inkscape="http://www.inkscape.org/namespaces/inkscape"
   xmlns:sodipodi="http://sodipodi.sourceforge.net/DTD/sodipodi-0.dtd"
   xmlns="http://www.w3.org/2000/svg"
   xmlns:svg="http://www.w3.org/2000/svg"
   xmlns:rdf="http://www.w3.org/1999/02/22-rdf-syntax-ns#"
   xmlns:cc="http://creativecommons.org/ns#"
   xmlns:dc="http://purl.org/dc/elements/1.1/">
  <sodipodi:namedview
     id="namedview5369"
     pagecolor="#505050"
     bordercolor="#ffffff"
     borderopacity="1"
     inkscape:pageshadow="0"
     inkscape:pageopacity="0"
     inkscape:pagecheckerboard="1"
     showgrid="false"
     inkscape:zoom="12.029478"
     inkscape:cx="35.620831"
     inkscape:cy="20.075684"
     inkscape:window-width="1895"
     inkscape:window-height="1012"
     inkscape:window-x="1925"
     inkscape:window-y="58"
     inkscape:window-maximized="0"
     inkscape:current-layer="Layer_1" />
  <defs
     id="defs5342"><style
   id="style5340">.cls-1{fill:#10aa50;}.cls-2{fill:#b8c4c2;}.cls-3{fill:#12924f;}.cls-4{fill:#21313c;}</style>
<style
   id="style1482">.cls-1{fill:#1b1b1f;}</style>
<style
   id="style5340-2">.cls-1{fill:#10aa50;}.cls-2{fill:#b8c4c2;}.cls-3{fill:#12924f;}.cls-4{fill:#21313c;}</style>

	












<clipPath
   id="clipPath8">
  <path
     d="M 76,2 V 48 H 54 V 71 H 35.580737 c -0.07818,0.665694 -0.141485,1.332869 -0.205737,2 -1.151162,12.530963 1.036422,24.087546 6.0625,33.96875 L 43.125,110 c 1.011403,1.81678 2.191241,3.52297 3.4375,5.1875 1.244725,1.66248 1.685716,2.58262 2.46875,3.6875 C 62.319911,133.81083 82.129473,141 105,141 155.64836,141 198.63299,118.56201 217.65625,68.15625 231.15302,69.54122 244.09968,66.080358 250,54.5625 240.60137,49.138835 228.52163,50.877226 221.5625,54.375 L 240,2 168,48 H 145 V 2 Z"
     id="path10" />
</clipPath>
</defs>
  <title
     id="title5344">MongoDB_Logo_FullColorBlack_RGB</title>
  <metadata
     id="metadata5371">
    <rdf:RDF>
      <cc:Work
         rdf:about="">
        <dc:title>MongoDB_Logo_FullColorBlack_RGB</dc:title>
      </cc:Work>
    </rdf:RDF>
  </metadata>
  <rect
     style="fill:#030303;fill-opacity:1;stroke:none;stroke-width:6.913;stroke-linecap:round;stroke-linejoin:round;stroke-miterlimit:4;stroke-dasharray:none;stroke-opacity:1;paint-order:stroke fill markers;stop-color:#000000"
     id="rect28060"
     width="12.108378"
     height="13.583479"
     x="28.676971"
     y="9.0663919" />
  <path
     style="fill:#ffffff;fill-opacity:1;stroke:#030303;stroke-width:6.65861;stroke-linecap:round;stroke-linejoin:round;stroke-miterlimit:4;stroke-dasharray:none;stroke-opacity:1;paint-order:stroke fill markers"
     d="M 9.4234221,46.536684 C 6.7616635,45.963055 4.6052334,44.014926 3.7279333,41.391354 3.3279282,40.195144 3.3596623,41.491217 3.3354685,25.362198 3.3196755,14.837945 3.3336386,10.515251 3.3844938,10.148125 3.6767248,8.0398754 4.7640541,6.1591771 6.4248396,4.8893976 7.0301571,4.42659 8.1615168,3.8465199 8.8317585,3.6553216 10.001308,3.3216867 9.6214055,3.3293526 24.983954,3.3293526 c 11.92103,0 14.438421,0.015463 14.99847,0.092151 1.593664,0.218224 3.073053,0.9377607 4.235597,2.0600828 1.136382,1.0970712 1.865069,2.4179786 2.283025,4.1384924 0.100656,0.4143512 0.11079,1.5670272 0.13176,14.9856742 0.01666,10.672858 0.003,14.701473 -0.05094,15.15634 -0.402744,3.387966 -2.834005,6.1046 -6.064701,6.776552 -0.646539,0.134477 -0.753925,0.135377 -15.575333,0.130739 -14.532063,-0.0045 -14.939916,-0.008 -15.5184221,-0.132705 z M 16.0942,33.883758 c 0.05274,-0.05412 0.245486,-0.580211 0.428344,-1.169105 0.18286,-0.588894 0.497845,-1.588713 0.699964,-2.221821 l 0.367491,-1.151103 h 3.359195 3.359197 l 0.238238,0.690661 c 0.131029,0.379866 0.469682,1.382196 0.752559,2.227401 0.282877,0.845208 0.547528,1.577803 0.588116,1.62799 0.06003,0.07423 0.440122,0.09106 2.0369,0.09024 1.079706,-5.18e-4 2.002244,-0.02645 2.050083,-0.05757 0.05775,-0.03755 0.0713,-0.109044 0.04031,-0.21277 -0.05733,-0.191964 -1.53765,-4.498149 -2.959352,-8.608601 -0.581849,-1.682257 -1.399708,-4.050241 -1.817464,-5.262189 -0.417756,-1.211947 -0.965843,-2.795537 -1.217971,-3.519087 -0.252128,-0.723552 -0.487669,-1.419146 -0.523424,-1.545769 -0.03577,-0.126623 -0.09785,-0.251967 -0.137999,-0.278546 -0.09534,-0.06313 -4.794525,-0.06313 -4.886489,0 -0.0387,0.02658 -0.0889,0.329524 -0.111552,0.673211 -0.04759,0.722767 -0.0305,0.663477 -1.100007,3.815085 -0.448109,1.320482 -1.044587,3.081669 -1.325508,3.913753 -0.280923,0.832083 -0.622249,1.838477 -0.758504,2.23643 -0.136254,0.397953 -0.362269,1.063949 -0.502254,1.479992 -0.265711,0.789702 -0.981063,2.905221 -1.863009,5.509498 -0.498292,1.471393 -0.564632,1.722137 -0.478901,1.810117 0.02157,0.02214 0.855285,0.04259 1.852689,0.0454 1.528916,0.0043 1.828506,-0.01028 1.909332,-0.09322 z m 2.568305,-8.359438 c 0.09704,-0.259514 1.718823,-5.67382 1.900619,-6.345193 0.06368,-0.235154 0.150899,-0.613273 0.19383,-0.840264 0.04292,-0.22699 0.09875,-0.425834 0.124046,-0.441877 0.02528,-0.01603 0.195987,0.510078 0.379322,1.169151 0.311827,1.120972 0.506771,1.766656 1.493787,4.947626 0.213284,0.687374 0.410857,1.33117 0.43905,1.430657 l 0.05126,0.180888 h -2.30984 c -2.05046,0 -2.3056,-0.01135 -2.272077,-0.10099 z m 17.249829,1.054759 v -7.367064 h -1.954928 -1.954929 l -0.01758,7.23551 c -0.0097,3.979529 -0.0018,7.302541 0.01748,7.38447 l 0.03507,0.148961 1.937449,-0.01741 1.937447,-0.0174 z m -0.915141,-9.197013 c 0.398586,-0.200124 0.800738,-0.61095 1.019285,-1.041271 0.217625,-0.428502 0.248874,-1.457949 0.0599,-1.97309 -0.179612,-0.4896 -0.562938,-0.926227 -1.010408,-1.150897 -0.519644,-0.260907 -1.331278,-0.298911 -1.880668,-0.08807 -0.475682,0.182559 -0.930999,0.590261 -1.185228,1.06128 -0.17816,0.330083 -0.18988,0.396463 -0.18988,1.075351 0,0.671593 0.01364,0.751181 0.189974,1.108328 0.241902,0.48994 0.699186,0.914201 1.173641,1.088888 0.540104,0.198857 1.337043,0.163663 1.823387,-0.08052 z"
     id="path27624" />
</svg>
