<?xml version="1.0" encoding="UTF-8" standalone="no"?>
<svg
   id="Layer_1"
   data-name="Layer 1"
   viewBox="0 0 79.37 90.71"
   version="1.1"
   sodipodi:docname="bash.svg"
   inkscape:version="1.1.2 (0a00cf5339, 2022-02-04, custom)"
   xmlns:inkscape="http://www.inkscape.org/namespaces/inkscape"
   xmlns:sodipodi="http://sodipodi.sourceforge.net/DTD/sodipodi-0.dtd"
   xmlns="http://www.w3.org/2000/svg"
   xmlns:svg="http://www.w3.org/2000/svg"
   xmlns:rdf="http://www.w3.org/1999/02/22-rdf-syntax-ns#"
   xmlns:cc="http://creativecommons.org/ns#"
   xmlns:dc="http://purl.org/dc/elements/1.1/">
  <sodipodi:namedview
     id="namedview1491"
     pagecolor="#505050"
     bordercolor="#ffffff"
     borderopacity="1"
     inkscape:pageshadow="0"
     inkscape:pageopacity="0"
     inkscape:pagecheckerboard="1"
     showgrid="false"
     inkscape:zoom="9.6240768"
     inkscape:cx="39.692119"
     inkscape:cy="45.199141"
     inkscape:window-width="3840"
     inkscape:window-height="2083"
     inkscape:window-x="0"
     inkscape:window-y="48"
     inkscape:window-maximized="1"
     inkscape:current-layer="Layer_1" />
  <defs
     id="defs1484">
    <style
       id="style1482">.cls-1{fill:#1b1b1f;}</style>
  </defs>
  <title
     id="title1486">BASH_logo-transparent-bg-bw</title>
  <path
     class="cls-1"
     d="M 72.64765,19.346428 45.034858,2.9068774 c -3.269754,-1.94308943 -7.335718,-1.94308943 -10.605472,0 L 6.8165905,19.346428 c -3.3398675,1.998068 -5.3811642,5.61508 -5.3702252,9.515598 v 32.879099 c -0.021076,3.890736 2.0006557,7.505526 5.3220184,9.515598 L 34.38118,87.696274 c 3.269754,1.94309 7.335718,1.94309 10.605472,0 l 27.61279,-16.439551 c 3.321364,-2.010072 5.343095,-5.624862 5.322019,-9.515598 V 28.862026 c 0.03124,-3.881003 -1.97094,-7.493595 -5.273811,-9.515598 z"
     id="path2572"
     style="fill:#ffffff;fill-opacity:1;stroke:#ffffff;stroke-width:2.89675;stroke-miterlimit:4;stroke-dasharray:none;stroke-opacity:1"
     sodipodi:nodetypes="ccccccccccccc" />
  <path
     class="cls-1"
     d="M 72.64765,19.346428 45.034858,2.9068779 a 10.403003,10.434279 0 0 0 -10.605474,0 L 6.8165934,19.346428 a 11.010408,11.043509 0 0 0 -5.3702271,9.515598 v 32.879099 a 11.010408,11.043509 0 0 0 5.3220203,9.515598 L 34.381178,87.696274 a 10.403003,10.434279 0 0 0 10.605474,0 l 27.61279,-16.439551 a 11.010408,11.043509 0 0 0 5.322019,-9.515598 V 28.862026 A 11.010408,11.043509 0 0 0 72.64765,19.346428 Z M 51.263163,70.686175 v 2.359559 a 0.8677204,0.8703291 0 0 1 -0.404937,0.725274 l -1.397994,0.802636 c -0.221751,0.116045 -0.404936,0 -0.404936,-0.30945 v -2.320878 a 4.5410701,4.5547223 0 0 1 -3.181641,0.309451 0.42421886,0.42549423 0 0 1 -0.154262,-0.522197 l 0.50135,-2.137142 a 0.88700307,0.88966975 0 0 1 0.279598,-0.464176 0.55919759,0.56087876 0 0 1 0.134979,-0.0967 0.2795988,0.28043938 0 0 1 0.221751,0 3.8565351,3.8681294 0 0 0 2.892401,-0.367473 3.8565351,3.8681294 0 0 0 2.15966,-3.316921 c 0,-1.19912 -0.655612,-1.701977 -2.236791,-1.711647 -2.005398,0 -3.856535,-0.386813 -3.904741,-3.355602 a 8.5711492,8.5969175 0 0 1 3.23949,-6.57582 v -2.38857 a 0.85807906,0.86065879 0 0 1 0.404935,-0.734944 l 1.349788,-0.860659 c 0.221751,-0.116045 0.404936,0 0.404936,0.319121 v 2.388569 a 4.39645,4.4096675 0 0 1 2.641726,-0.319121 0.42421886,0.42549423 0 0 1 0.173544,0.551209 l -0.472425,2.117801 a 0.90628575,0.9090104 0 0 1 -0.241033,0.425494 0.55919759,0.56087876 0 0 1 -0.134979,0.106374 0.31816415,0.31912068 0 0 1 -0.202468,0 3.4998056,3.5103274 0 0 0 -2.545313,0.415823 3.2009242,3.2105474 0 0 0 -1.928268,2.843075 c 0,1.083076 0.568839,1.411867 2.477824,1.450549 2.554954,0 3.654066,1.160439 3.682991,3.732745 a 9.1399882,9.1674666 0 0 1 -3.355185,6.933622 z M 65.725169,66.711672 A 0.54955626,0.55120844 0 0 1 65.51306,67.24354 l -6.980329,4.254942 A 0.2024681,0.2030768 0 0 1 58.204925,71.295405 V 69.487054 A 0.50134956,0.50285682 0 0 1 58.52309,69.04222 l 6.874273,-4.129229 a 0.2024681,0.2030768 0 0 1 0.327806,0.203077 z M 70.545838,26.28005 44.417812,42.468171 c -3.258772,1.934065 -5.659465,4.051866 -5.659465,7.987687 v 32.27954 c 0,2.359558 0.964134,3.868129 2.410335,4.332304 a 8.4554532,8.4808736 0 0 1 -1.446201,0.145055 8.5518666,8.5775769 0 0 1 -4.357886,-1.20879 L 7.7518031,69.564417 A 9.0821401,9.1094446 0 0 1 3.3746339,61.741125 V 28.862026 A 9.0821401,9.1094446 0 0 1 7.7518031,21.029064 L 35.364595,4.5895142 a 8.5133012,8.5388956 0 0 1 8.677205,0 L 71.654592,21.029064 a 9.0242921,9.0514227 0 0 1 4.242188,6.334062 C 75.000136,25.409721 72.936889,24.868182 70.536196,26.28005 Z"
     id="path1488"
     style="fill:#010101;fill-opacity:1;stroke:none;stroke-width:0.965586" />
  <metadata
     id="metadata1493">
    <rdf:RDF>
      <cc:Work
         rdf:about="">
        <dc:title>BASH_logo-transparent-bg-bw</dc:title>
      </cc:Work>
    </rdf:RDF>
  </metadata>
</svg>
