<?xml version="1.0" encoding="UTF-8" standalone="no"?>
<svg
   id="Layer_1"
   data-name="Layer 1"
   viewBox="0 0 50.000001 50"
   version="1.1"
   sodipodi:docname="bash.svg"
   width="50"
   height="50"
   inkscape:version="1.1.2 (0a00cf5339, 2022-02-04, custom)"
   xmlns:inkscape="http://www.inkscape.org/namespaces/inkscape"
   xmlns:sodipodi="http://sodipodi.sourceforge.net/DTD/sodipodi-0.dtd"
   xmlns="http://www.w3.org/2000/svg"
   xmlns:svg="http://www.w3.org/2000/svg"
   xmlns:rdf="http://www.w3.org/1999/02/22-rdf-syntax-ns#"
   xmlns:cc="http://creativecommons.org/ns#"
   xmlns:dc="http://purl.org/dc/elements/1.1/">
  <sodipodi:namedview
     id="namedview5369"
     pagecolor="#505050"
     bordercolor="#ffffff"
     borderopacity="1"
     inkscape:pageshadow="0"
     inkscape:pageopacity="0"
     inkscape:pagecheckerboard="1"
     showgrid="false"
     inkscape:zoom="17.012251"
     inkscape:cx="-2.4688091"
     inkscape:cy="32.623549"
     inkscape:window-width="3840"
     inkscape:window-height="2083"
     inkscape:window-x="0"
     inkscape:window-y="48"
     inkscape:window-maximized="1"
     inkscape:current-layer="Layer_1" />
  <defs
     id="defs5342">
    <style
       id="style5340">.cls-1{fill:#10aa50;}.cls-2{fill:#b8c4c2;}.cls-3{fill:#12924f;}.cls-4{fill:#21313c;}</style>
    <style
       id="style1482">.cls-1{fill:#1b1b1f;}</style>
  </defs>
  <title
     id="title5344">MongoDB_Logo_FullColorBlack_RGB</title>
  <metadata
     id="metadata5371">
    <rdf:RDF>
      <cc:Work
         rdf:about="">
        <dc:title>MongoDB_Logo_FullColorBlack_RGB</dc:title>
      </cc:Work>
    </rdf:RDF>
  </metadata>
  <g
     id="g14868">
    <path
       class="cls-1"
       d="M 41.599841,11.929497 27.694581,3.6508614 c -1.646584,-0.9785017 -3.694124,-0.9785017 -5.340707,0 L 8.4486119,11.929497 c -1.6818917,1.006188 -2.7098486,2.827644 -2.7043401,4.791868 v 16.55727 c -0.010614,1.959298 1.007491,3.779635 2.6800642,4.791868 l 13.905261,8.278636 c 1.646584,0.978501 3.694124,0.978501 5.340709,0 l 13.905259,-8.278636 c 1.672574,-1.012233 2.690677,-2.83257 2.680064,-4.791868 v -16.55727 c 0.01573,-1.954397 -0.992527,-3.773627 -2.655788,-4.791868 z"
       id="path2572"
       style="fill:#000000;fill-opacity:1;stroke:#000000;stroke-width:5.8389;stroke-miterlimit:4;stroke-dasharray:none;stroke-opacity:1"
       sodipodi:nodetypes="ccccccccccccc" />
    <path
       class="cls-1"
       d="M 41.599841,11.929497 27.495897,3.5325739 a 5.3136014,5.3295764 0 0 0 -5.417019,0 L 7.9749353,11.929497 A 5.6238492,5.6407564 0 0 0 5.2319537,16.789833 V 33.58368 a 5.6238492,5.6407564 0 0 0 2.7183589,4.860336 L 22.054256,46.84094 a 5.3136014,5.3295764 0 0 0 5.417019,0 L 41.575218,38.444016 A 5.6238492,5.6407564 0 0 0 44.293576,33.58368 V 16.789833 A 5.6238492,5.6407564 0 0 0 41.599841,11.929497 Z M 30.677163,38.152594 v 1.205205 a 0.44321052,0.44454299 0 0 1 -0.206831,0.370453 l -0.714062,0.409967 c -0.113264,0.05927 -0.206831,0 -0.206831,-0.15806 v -1.185447 a 2.3194684,2.3264416 0 0 1 -1.625105,0.158059 0.2166807,0.21733213 0 0 1 -0.0788,-0.266725 l 0.256078,-1.091601 a 0.45305965,0.45442172 0 0 1 0.142811,-0.23709 0.28562455,0.28648326 0 0 1 0.06894,-0.04939 0.14281228,0.14324163 0 0 1 0.113266,0 1.9698245,1.9757467 0 0 0 1.477368,-0.187696 1.9698245,1.9757467 0 0 0 1.103102,-1.694203 c 0,-0.612482 -0.334871,-0.869329 -1.142499,-0.874268 -1.024308,0 -1.969825,-0.197575 -1.994447,-1.71396 a 4.377935,4.3910969 0 0 1 1.654653,-3.358769 v -1.220028 a 0.43828596,0.43960362 0 0 1 0.206831,-0.375392 l 0.689439,-0.439603 c 0.113265,-0.05927 0.206832,0 0.206832,0.162999 v 1.220023 a 2.2456,2.2523511 0 0 1 1.349329,-0.162999 0.2166807,0.21733213 0 0 1 0.08864,0.281544 l -0.241303,1.081721 a 0.46290877,0.46430045 0 0 1 -0.123113,0.217332 0.28562455,0.28648326 0 0 1 -0.06894,0.05434 0.16251052,0.1629991 0 0 1 -0.103416,0 1.7876158,1.79299 0 0 0 -1.300084,0.212392 1.6349544,1.6398697 0 0 0 -0.984913,1.452174 c 0,0.553209 0.29055,0.721147 1.265613,0.740905 1.305008,0 1.866408,0.592724 1.881182,1.906595 a 4.6684842,4.6825194 0 0 1 -1.713748,3.541526 z m 7.386843,-2.030079 a 0.2807,0.28154389 0 0 1 -0.10834,0.271664 l -3.565382,2.173322 a 0.10341579,0.1037267 0 0 1 -0.167437,-0.103727 v -0.923662 a 0.25607718,0.25684706 0 0 1 0.162512,-0.22721 l 3.511211,-2.10911 a 0.10341579,0.1037267 0 0 1 0.167436,0.103726 z m 2.46228,-20.651492 -13.345562,8.2685 c -1.664501,0.987873 -2.890716,2.069594 -2.890716,4.079916 v 16.487605 c 0,1.205206 0.492455,1.975747 1.23114,2.212837 a 4.3188403,4.3318244 0 0 1 -0.738685,0.07409 4.3680859,4.3812181 0 0 1 -2.225902,-0.61742 L 8.4526178,37.579627 A 4.6389368,4.6528833 0 0 1 6.216866,33.58368 V 16.789833 A 4.6389368,4.6528833 0 0 1 8.4526178,12.788947 L 22.556561,4.3920236 a 4.3483876,4.3614606 0 0 1 4.432107,0 l 14.103944,8.3969234 a 4.6093893,4.6232471 0 0 1 2.166807,3.235285 C 42.801434,15.02648 41.747577,14.749875 40.521361,15.471023 Z"
       id="path1488"
       style="fill:#ffffff;fill-opacity:1;stroke:none;stroke-width:0.493198" />
  </g>
</svg>
