<?xml version="1.0" encoding="UTF-8" standalone="no"?>
<svg
   id="Layer_1"
   data-name="Layer 1"
   viewBox="0 0 60.000001 50"
   version="1.1"
   sodipodi:docname="blender.svg"
   width="60"
   height="50"
   inkscape:version="1.1.2 (0a00cf5339, 2022-02-04, custom)"
   xmlns:inkscape="http://www.inkscape.org/namespaces/inkscape"
   xmlns:sodipodi="http://sodipodi.sourceforge.net/DTD/sodipodi-0.dtd"
   xmlns="http://www.w3.org/2000/svg"
   xmlns:svg="http://www.w3.org/2000/svg"
   xmlns:rdf="http://www.w3.org/1999/02/22-rdf-syntax-ns#"
   xmlns:cc="http://creativecommons.org/ns#"
   xmlns:dc="http://purl.org/dc/elements/1.1/">
  <sodipodi:namedview
     id="namedview5369"
     pagecolor="#505050"
     bordercolor="#ffffff"
     borderopacity="1"
     inkscape:pageshadow="0"
     inkscape:pageopacity="0"
     inkscape:pagecheckerboard="1"
     showgrid="false"
     inkscape:zoom="12.029478"
     inkscape:cx="38.447221"
     inkscape:cy="26.809143"
     inkscape:window-width="1895"
     inkscape:window-height="1012"
     inkscape:window-x="1925"
     inkscape:window-y="58"
     inkscape:window-maximized="0"
     inkscape:current-layer="Layer_1" />
  <defs
     id="defs5342"><style
   id="style5340">.cls-1{fill:#10aa50;}.cls-2{fill:#b8c4c2;}.cls-3{fill:#12924f;}.cls-4{fill:#21313c;}</style>
<style
   id="style1482">.cls-1{fill:#1b1b1f;}</style>
<style
   id="style5340-2">.cls-1{fill:#10aa50;}.cls-2{fill:#b8c4c2;}.cls-3{fill:#12924f;}.cls-4{fill:#21313c;}</style>

	












<clipPath
   id="clipPath8">
  <path
     d="M 76,2 V 48 H 54 V 71 H 35.580737 c -0.07818,0.665694 -0.141485,1.332869 -0.205737,2 -1.151162,12.530963 1.036422,24.087546 6.0625,33.96875 L 43.125,110 c 1.011403,1.81678 2.191241,3.52297 3.4375,5.1875 1.244725,1.66248 1.685716,2.58262 2.46875,3.6875 C 62.319911,133.81083 82.129473,141 105,141 155.64836,141 198.63299,118.56201 217.65625,68.15625 231.15302,69.54122 244.09968,66.080358 250,54.5625 240.60137,49.138835 228.52163,50.877226 221.5625,54.375 L 240,2 168,48 H 145 V 2 Z"
     id="path10" />
</clipPath>

        
    
            
            
        
                
                
                
            
                    
                
                    
                
                
                    
                
                
                    
                
                
                    
                
                
                    
                
                
                    
                
                
                    
                
                
                    
                
                
                    
                
                    
                </defs>
  <title
     id="title5344">MongoDB_Logo_FullColorBlack_RGB</title>
  <metadata
     id="metadata5371">
    <rdf:RDF>
      <cc:Work
         rdf:about="">
        <dc:title>MongoDB_Logo_FullColorBlack_RGB</dc:title>
      </cc:Work>
    </rdf:RDF>
  </metadata>
  <rect
     y="-254.83914"
     width="2048"
     height="549.99591"
     style="clip-rule:evenodd;fill:none;fill-rule:evenodd;stroke-width:0.913893;stroke-linejoin:round;stroke-miterlimit:2"
     id="rect28337"
     x="-988.37915" />
  <g
     id="g29321"
     transform="matrix(1.2394701,0,0,1.2394701,-0.73335896,-8.3513129)">
    <path
       d="m 20.169582,28.800187 c 0.150279,-2.680879 1.46309,-5.042775 3.44365,-6.717085 1.94228,-1.644537 4.556562,-2.64969 7.409021,-2.64969 2.849623,0 5.463905,1.005153 7.407603,2.64969 1.979142,1.67431 3.291954,4.036206 3.44365,6.71425 0.150279,2.7546 -0.956963,5.313558 -2.899244,7.210446 -1.980559,1.929496 -4.797575,3.140217 -7.952009,3.140217 -3.154434,0 -5.977121,-1.210721 -7.956263,-3.140217 -1.943698,-1.896888 -3.048104,-4.455846 -2.896408,-7.207611 z"
       style="clip-rule:evenodd;fill:#030303;fill-opacity:1;fill-rule:nonzero;stroke-width:1.41771;stroke-linejoin:round;stroke-miterlimit:2"
       id="path28339" />
    <path
       d="m 16.578099,31.828582 c 0.0095,0.5383 0.181133,1.584349 0.438647,2.401255 0.541217,1.729108 1.459249,3.328733 2.736637,4.738498 1.310851,1.449046 2.925046,2.612938 4.78948,3.439302 1.95973,0.867827 4.083133,1.310106 6.288738,1.306469 2.201967,-0.0029 4.325371,-0.453918 6.2851,-1.328292 1.864435,-0.834366 3.477174,-2.00335 4.785842,-3.453124 1.276662,-1.415584 2.193239,-3.018118 2.735911,-4.747226 0.272791,-0.873647 0.445195,-1.760387 0.514301,-2.650037 0.06765,-0.876557 0.03928,-1.754568 -0.08511,-2.631852 -0.242966,-1.709467 -0.834376,-3.313456 -1.745134,-4.775596 -0.832921,-1.343568 -1.906626,-2.519827 -3.183287,-3.509863 l 0.0029,-0.0022 -12.883728,-9.892359 c -0.01164,-0.0087 -0.0211,-0.01819 -0.03346,-0.02619 -0.845287,-0.64887 -2.266709,-0.646688 -3.196381,0.0036 -0.939855,0.657599 -1.047517,1.745111 -0.210958,2.43108 l -0.0036,0.0036 5.373616,4.369689 -16.378362,0.01746 h -0.02182 c -1.35377,0.0015 -2.655164,0.88965 -2.9126785,2.012079 -0.2647892,1.143524 0.6546975,2.092096 2.0622985,2.097188 l -0.0022,0.0051 8.30157,-0.016 -14.8136326,11.370502 c -0.018914,0.01382 -0.039282,0.02837 -0.05674,0.04219 -1.3974171,1.070054 -1.8491585,2.849355 -0.9689532,3.975421 0.8932989,1.144979 2.7926507,1.147161 4.204616,0.0065 l 8.0847918,-6.616729 c 0,0 -0.117846,0.893287 -0.108388,1.429405 z m 20.775021,2.991203 c -1.665842,1.697101 -3.998022,2.659495 -6.521519,2.664586 -2.527134,0.0044 -4.859314,-0.949299 -6.525157,-2.64349 -0.814008,-0.825636 -1.411965,-1.775663 -1.780779,-2.787522 -0.361538,-0.994401 -0.501934,-2.049906 -0.408822,-3.114867 0.08802,-1.040957 0.397911,-2.033902 0.892572,-2.932282 0.485931,-0.883103 1.155178,-1.681097 1.981552,-2.356154 1.619287,-1.319564 3.680858,-2.033902 5.836997,-2.036812 2.15832,-0.0029 4.218437,0.704882 5.839178,2.020081 0.824919,0.672147 1.493439,1.467231 1.979371,2.34888 0.496843,0.897652 0.804551,1.886961 0.896208,2.930827 0.09166,1.063506 -0.04874,2.117556 -0.410277,3.112684 -0.369541,1.014769 -0.965316,1.964796 -1.779324,2.794069 z"
       style="clip-rule:evenodd;fill:#ffffff;fill-opacity:1;fill-rule:nonzero;stroke:#030303;stroke-width:6.727;stroke-linecap:round;stroke-linejoin:round;stroke-miterlimit:2;stroke-dasharray:none;stroke-opacity:1;paint-order:stroke fill markers"
       id="path28345" />
    <path
       d="m 25.445619,29.042515 c 0.07711,-1.375576 0.75072,-2.587479 1.766957,-3.446577 0.996596,-0.843822 2.337999,-1.359572 3.801613,-1.359572 1.462159,0 2.803562,0.51575 3.800885,1.359572 1.01551,0.859098 1.689121,2.071001 1.766957,3.445122 0.07711,1.413402 -0.491023,2.726418 -1.487619,3.699723 -1.016236,0.990036 -2.461664,1.611263 -4.080223,1.611263 -1.618559,0 -3.066896,-0.621227 -4.082406,-1.611263 -0.997323,-0.973305 -1.564,-2.286321 -1.486164,-3.698268 z"
       style="clip-rule:evenodd;fill:#ffffff;fill-opacity:1;fill-rule:nonzero;stroke-width:0.727441;stroke-linejoin:round;stroke-miterlimit:2"
       id="path28343" />
  </g>
</svg>
