<?xml version="1.0" encoding="UTF-8" standalone="no"?>
<svg
   id="Layer_1"
   data-name="Layer 1"
   viewBox="0 0 50.000001 50"
   version="1.1"
   sodipodi:docname="c.svg"
   width="50"
   height="50"
   inkscape:version="1.1.2 (0a00cf5339, 2022-02-04, custom)"
   xmlns:inkscape="http://www.inkscape.org/namespaces/inkscape"
   xmlns:sodipodi="http://sodipodi.sourceforge.net/DTD/sodipodi-0.dtd"
   xmlns="http://www.w3.org/2000/svg"
   xmlns:svg="http://www.w3.org/2000/svg"
   xmlns:rdf="http://www.w3.org/1999/02/22-rdf-syntax-ns#"
   xmlns:cc="http://creativecommons.org/ns#"
   xmlns:dc="http://purl.org/dc/elements/1.1/">
  <sodipodi:namedview
     id="namedview5369"
     pagecolor="#505050"
     bordercolor="#ffffff"
     borderopacity="1"
     inkscape:pageshadow="0"
     inkscape:pageopacity="0"
     inkscape:pagecheckerboard="1"
     showgrid="false"
     inkscape:zoom="17.012251"
     inkscape:cx="-2.4688091"
     inkscape:cy="32.623549"
     inkscape:window-width="3840"
     inkscape:window-height="2083"
     inkscape:window-x="0"
     inkscape:window-y="48"
     inkscape:window-maximized="1"
     inkscape:current-layer="Layer_1" />
  <defs
     id="defs5342">
    <style
       id="style5340">.cls-1{fill:#10aa50;}.cls-2{fill:#b8c4c2;}.cls-3{fill:#12924f;}.cls-4{fill:#21313c;}</style>
  </defs>
  <title
     id="title5344">MongoDB_Logo_FullColorBlack_RGB</title>
  <metadata
     id="metadata5371">
    <rdf:RDF>
      <cc:Work
         rdf:about="">
        <dc:title>MongoDB_Logo_FullColorBlack_RGB</dc:title>
      </cc:Work>
    </rdf:RDF>
  </metadata>
  <path
     style="fill:#f8f8f8;fill-opacity:1;stroke:#000000;stroke-width:6.5137;stroke-linecap:round;stroke-linejoin:round;stroke-miterlimit:4;stroke-dasharray:none;stroke-opacity:1;paint-order:stroke fill markers"
     d="m 24.28482,46.696277 c -0.27746,-0.0541 -17.4367598,-10.02187 -17.7061398,-10.28546 -0.20191,-0.19757 -0.29377,-0.36479 -0.40817,-0.74301 l -0.14763,-0.48805 0.0173,-10.26046 0.0174,-10.26046 0.20806,-0.42201 c 0.11443,-0.2321 0.31961,-0.52919 0.45595,-0.6602 0.22947,-0.2205 16.7311298,-9.8647598 17.4114998,-10.1760098 0.41955,-0.19194 1.34302,-0.18997 1.76799,0.004 0.40177,0.18316 17.15843,9.8258698 17.4337,10.0323198 0.27502,0.20627 0.54778,0.61896 0.58545,0.88585 0.0633,0.44801 0.0802,20.46636 0.0176,20.80489 -0.0887,0.47958 -0.36044,1.00319 -0.67836,1.30689 -0.3124,0.29844 -17.04408,10.04102 -17.52405,10.20397 -0.2838,0.0964 -1.08865,0.12852 -1.45065,0.058 z m 1.86753,-7.83861 c 4.33027,-0.38747 8.12963,-2.65706 10.51724,-6.28261 0.2041,-0.30992 0.35738,-0.5981 0.34062,-0.64039 -0.0321,-0.081 -4.36259,-2.6498 -4.46699,-2.6498 -0.0333,0 -0.22267,0.24361 -0.42078,0.54135 -0.70232,1.05552 -1.693,1.96683 -2.8706,2.64061 -2.6045,1.49019 -5.8786,1.48994 -8.47879,-6.6e-4 -2.92194,-1.67503 -4.60633,-4.86784 -4.3184,-8.18561 0.21609,-2.4899 1.46008,-4.72397 3.4534,-6.20192 3.2155,-2.38415 7.57196,-2.23791 10.67781,0.35843 0.52985,0.44294 1.29164,1.32388 1.65782,1.91716 0.16057,0.26014 0.28063,0.39102 0.33836,0.36886 0.12253,-0.047 4.40213,-2.51368 4.46981,-2.57629 0.0615,-0.0569 -0.52432,-0.99371 -1.01849,-1.62878 -1.25882,-1.61775 -2.80213,-2.9118 -4.62039,-3.87415 -3.87297,-2.04985 -8.6226,-2.10084 -12.55597,-0.13479 -1.45473,0.72713 -2.46514,1.45842 -3.64875,2.64082 -1.23515,1.23388 -1.993,2.2836 -2.70415,3.74562 -1.60354,3.29657 -1.84485,7.07542 -0.67383,10.55219 0.88465,2.62656 2.71293,5.11705 4.96847,6.76809 2.71499,1.98734 6.07197,2.9355 9.35361,2.64187 z"
     id="path7477" />
</svg>
