<?xml version="1.0" encoding="UTF-8" standalone="no"?>
<svg
   id="Layer_1"
   data-name="Layer 1"
   viewBox="0 0 86.000002 50"
   version="1.1"
   sodipodi:docname="docker.svg"
   width="86"
   height="50"
   inkscape:version="1.1.2 (0a00cf5339, 2022-02-04, custom)"
   xmlns:inkscape="http://www.inkscape.org/namespaces/inkscape"
   xmlns:sodipodi="http://sodipodi.sourceforge.net/DTD/sodipodi-0.dtd"
   xmlns="http://www.w3.org/2000/svg"
   xmlns:svg="http://www.w3.org/2000/svg"
   xmlns:rdf="http://www.w3.org/1999/02/22-rdf-syntax-ns#"
   xmlns:cc="http://creativecommons.org/ns#"
   xmlns:dc="http://purl.org/dc/elements/1.1/">
  <sodipodi:namedview
     id="namedview5369"
     pagecolor="#505050"
     bordercolor="#ffffff"
     borderopacity="1"
     inkscape:pageshadow="0"
     inkscape:pageopacity="0"
     inkscape:pagecheckerboard="1"
     showgrid="false"
     inkscape:zoom="4.2530627"
     inkscape:cx="29.508147"
     inkscape:cy="5.9956792"
     inkscape:window-width="1895"
     inkscape:window-height="1012"
     inkscape:window-x="1925"
     inkscape:window-y="58"
     inkscape:window-maximized="0"
     inkscape:current-layer="Layer_1" />
  <defs
     id="defs5342"><style
   id="style5340">.cls-1{fill:#10aa50;}.cls-2{fill:#b8c4c2;}.cls-3{fill:#12924f;}.cls-4{fill:#21313c;}</style>
<style
   id="style1482">.cls-1{fill:#1b1b1f;}</style>
<style
   id="style5340-2">.cls-1{fill:#10aa50;}.cls-2{fill:#b8c4c2;}.cls-3{fill:#12924f;}.cls-4{fill:#21313c;}</style>

	












<clipPath
   id="clipPath8">
  <path
     d="M 76,2 V 48 H 54 V 71 H 35.580737 c -0.07818,0.665694 -0.141485,1.332869 -0.205737,2 -1.151162,12.530963 1.036422,24.087546 6.0625,33.96875 L 43.125,110 c 1.011403,1.81678 2.191241,3.52297 3.4375,5.1875 1.244725,1.66248 1.685716,2.58262 2.46875,3.6875 C 62.319911,133.81083 82.129473,141 105,141 155.64836,141 198.63299,118.56201 217.65625,68.15625 231.15302,69.54122 244.09968,66.080358 250,54.5625 240.60137,49.138835 228.52163,50.877226 221.5625,54.375 L 240,2 168,48 H 145 V 2 Z"
     id="path10" />
</clipPath>
</defs>
  <title
     id="title5344">MongoDB_Logo_FullColorBlack_RGB</title>
  <metadata
     id="metadata5371">
    <rdf:RDF>
      <cc:Work
         rdf:about="">
        <dc:title>MongoDB_Logo_FullColorBlack_RGB</dc:title>
      </cc:Work>
    </rdf:RDF>
  </metadata>
  <g
     id="g27465"
     transform="matrix(0.92592593,0,0,0.92592593,1.8512117,1.851775)">
    <path
       id="path26703"
       style="fill:#000000;fill-opacity:1;stroke:#ffffff;stroke-width:4;stroke-linecap:round;stroke-linejoin:round;stroke-miterlimit:4;stroke-dasharray:none;stroke-opacity:1;paint-order:stroke fill markers"
       d="M 41.446562,8.3e-5 V 7.894615 H 25.657499 v 7.894531 h -7.894531 v 8.070312 h -6.751954 l -0.111328,1.19336 c -0.156054,1.67644 -0.137424,3.352421 0.04492,5.003906 -2.1616216,-0.251613 -4.2360106,-1.019373 -5.5781246,-2.572266 0.682309,2.505684 -3.454871,3.159518 -5.36718702,3.644531 H 11.081327 c 0.300851,1.901044 0.837379,3.760821 1.640625,5.53711 0.259321,0.527629 0.503528,1.066343 0.789062,1.580078 4.870099,8.270366 13.422575,11.753906 22.744141,11.753906 15.685659,0 28.978487,-6.094051 36.675781,-18.871094 h 14.876953 c -1.911945,-0.485013 -6.049496,-1.138847 -5.367187,-3.644531 -2.032712,2.352199 -5.738257,2.909924 -8.892578,2.578125 0.908277,-1.615683 1.736338,-3.327143 2.466797,-5.146484 4.567774,0.239085 9.239797,-1.110892 11.474609,-5.472656 l 0.570312,-1.115235 -1.083984,-0.625 C 84.33334,16.178086 80.81361,15.969821 77.815702,16.851646 77.446627,13.665318 75.352357,10.869555 72.862577,8.869224 L 71.874296,8.074302 71.044218,9.035239 c -1.667132,1.927846 -2.162983,5.134501 -1.935547,7.597657 0.167525,1.810985 0.735172,3.646524 1.849609,5.101562 -0.846139,0.509051 -1.808232,0.914219 -2.666016,1.205078 -1.745714,0.591519 -3.642982,0.919922 -5.486328,0.919922 H 58.815702 V 15.789146 H 50.921171 V 8.3e-5 Z" />
    <path
       d="m 50.921171,15.789146 h 7.894654 v 8.070295 h 3.991786 c 1.843346,0 3.739388,-0.328398 5.485102,-0.919917 0.857784,-0.290859 1.820599,-0.695621 2.666738,-1.204672 -1.114437,-1.455038 -1.683401,-3.292283 -1.850926,-5.103268 -0.227436,-2.463156 0.269405,-5.66927 1.936536,-7.5971162 l 0.829867,-0.9598558 0.988888,0.7949181 c 2.48978,2.0003309 4.583676,4.7953959 4.952751,7.9817239 2.997908,-0.881825 6.517623,-0.673252 9.160141,0.85187 l 1.084113,0.625544 -0.570626,1.113697 C 85.255383,23.804129 80.583318,25.155249 76.015544,24.916164 69.180436,41.940245 54.299616,50 36.256699,50 26.935133,50 18.382785,46.515414 13.512686,38.245048 13.227152,37.731313 12.982636,37.19412 12.723315,36.666491 11.077081,33.026029 10.530309,29.03794 10.901236,25.053181 l 0.11132,-1.193579 h 6.750792 v -8.070296 h 7.894654 V 7.8946529 H 41.447307 V -4.8823855e-8 h 9.473747 V 15.789306"
       id="path14"
       style="fill:#000000;fill-opacity:1;stroke:none;stroke-width:0.345257;stroke-opacity:1" />
    <g
       id="g26265">
      <g
         id="g26119"
         transform="translate(-5.8496469,11.491729)">
        <path
           d="m 48.612875,-10.176087 h 6.842139 v 6.8419537 h -6.842139 z"
           id="path26115"
           style="fill:#ffffff;fill-opacity:1;stroke-width:0.345257" />
        <path
           d="m 49.453003,-3.9042035 v -5.7021826 m 1.026053,5.7021826 v -5.7021826 m 1.036407,5.7021826 v -5.7021826 m 1.03696,5.7021826 v -5.7021826 m 1.03678,5.7021826 v -5.7021826 m 1.025866,5.7021826 v -5.7021826"
           id="path26117"
           style="fill:#020202;fill-opacity:1;stroke:#030505;stroke-width:0.538601;stroke-opacity:1" />
      </g>
      <g
         id="g26194"
         transform="translate(-5.8496469,19.386382)">
        <path
           d="m 48.612875,-10.176087 h 6.842139 v 6.8419537 h -6.842139 z"
           id="path26190"
           style="fill:#ffffff;fill-opacity:1;stroke-width:0.345257" />
        <path
           d="m 49.453003,-3.9042035 v -5.7021826 m 1.026053,5.7021826 v -5.7021826 m 1.036407,5.7021826 v -5.7021826 m 1.03696,5.7021826 v -5.7021826 m 1.03678,5.7021826 v -5.7021826 m 1.025866,5.7021826 v -5.7021826"
           id="path26192"
           style="fill:#020202;fill-opacity:1;stroke:#030505;stroke-width:0.538601;stroke-opacity:1" />
      </g>
      <g
         id="g26200"
         transform="translate(-13.744299,19.386586)">
        <path
           d="m 48.612875,-10.176087 h 6.842139 v 6.8419537 h -6.842139 z"
           id="path26196"
           style="fill:#ffffff;fill-opacity:1;stroke-width:0.345257" />
        <path
           d="m 49.453003,-3.9042035 v -5.7021826 m 1.026053,5.7021826 v -5.7021826 m 1.036407,5.7021826 v -5.7021826 m 1.03696,5.7021826 v -5.7021826 m 1.03678,5.7021826 v -5.7021826 m 1.025866,5.7021826 v -5.7021826"
           id="path26198"
           style="fill:#020202;fill-opacity:1;stroke:#030505;stroke-width:0.538601;stroke-opacity:1" />
      </g>
      <g
         id="g26206"
         transform="translate(-21.638952,19.386382)">
        <path
           d="m 48.612875,-10.176087 h 6.842139 v 6.8419537 h -6.842139 z"
           id="path26202"
           style="fill:#ffffff;fill-opacity:1;stroke-width:0.345257" />
        <path
           d="m 49.453003,-3.9042035 v -5.7021826 m 1.026053,5.7021826 v -5.7021826 m 1.036407,5.7021826 v -5.7021826 m 1.03696,5.7021826 v -5.7021826 m 1.03678,5.7021826 v -5.7021826 m 1.025866,5.7021826 v -5.7021826"
           id="path26204"
           style="fill:#020202;fill-opacity:1;stroke:#030505;stroke-width:0.538601;stroke-opacity:1" />
      </g>
      <g
         id="g26212"
         transform="translate(-29.533605,27.281239)">
        <path
           d="m 48.612875,-10.176087 h 6.842139 v 6.8419537 h -6.842139 z"
           id="path26208"
           style="fill:#ffffff;fill-opacity:1;stroke-width:0.345257" />
        <path
           d="m 49.453003,-3.9042035 v -5.7021826 m 1.026053,5.7021826 v -5.7021826 m 1.036407,5.7021826 v -5.7021826 m 1.03696,5.7021826 v -5.7021826 m 1.03678,5.7021826 v -5.7021826 m 1.025866,5.7021826 v -5.7021826"
           id="path26210"
           style="fill:#020202;fill-opacity:1;stroke:#030505;stroke-width:0.538601;stroke-opacity:1" />
      </g>
      <g
         id="g26218"
         transform="translate(-21.638952,27.281035)">
        <path
           d="m 48.612875,-10.176087 h 6.842139 v 6.8419537 h -6.842139 z"
           id="path26214"
           style="fill:#ffffff;fill-opacity:1;stroke-width:0.345257" />
        <path
           d="m 49.453003,-3.9042035 v -5.7021826 m 1.026053,5.7021826 v -5.7021826 m 1.036407,5.7021826 v -5.7021826 m 1.03696,5.7021826 v -5.7021826 m 1.03678,5.7021826 v -5.7021826 m 1.025866,5.7021826 v -5.7021826"
           id="path26216"
           style="fill:#020202;fill-opacity:1;stroke:#030505;stroke-width:0.538601;stroke-opacity:1" />
      </g>
      <g
         id="g26224"
         transform="translate(-13.744299,27.281239)">
        <path
           d="m 48.612875,-10.176087 h 6.842139 v 6.8419537 h -6.842139 z"
           id="path26220"
           style="fill:#ffffff;fill-opacity:1;stroke-width:0.345257" />
        <path
           d="m 49.453003,-3.9042035 v -5.7021826 m 1.026053,5.7021826 v -5.7021826 m 1.036407,5.7021826 v -5.7021826 m 1.03696,5.7021826 v -5.7021826 m 1.03678,5.7021826 v -5.7021826 m 1.025866,5.7021826 v -5.7021826"
           id="path26222"
           style="fill:#020202;fill-opacity:1;stroke:#030505;stroke-width:0.538601;stroke-opacity:1" />
      </g>
      <g
         id="g26230"
         transform="translate(-5.8496464,27.281035)">
        <path
           d="m 48.612875,-10.176087 h 6.842139 v 6.8419537 h -6.842139 z"
           id="path26226"
           style="fill:#ffffff;fill-opacity:1;stroke-width:0.345257" />
        <path
           d="m 49.453003,-3.9042035 v -5.7021826 m 1.026053,5.7021826 v -5.7021826 m 1.036407,5.7021826 v -5.7021826 m 1.03696,5.7021826 v -5.7021826 m 1.03678,5.7021826 v -5.7021826 m 1.025866,5.7021826 v -5.7021826"
           id="path26228"
           style="fill:#020202;fill-opacity:1;stroke:#030505;stroke-width:0.538601;stroke-opacity:1" />
      </g>
      <g
         id="g26236"
         transform="translate(2.0450061,27.281239)">
        <path
           d="m 48.612875,-10.176087 h 6.842139 v 6.8419537 h -6.842139 z"
           id="path26232"
           style="fill:#ffffff;fill-opacity:1;stroke-width:0.345257" />
        <path
           d="m 49.453003,-3.9042035 v -5.7021826 m 1.026053,5.7021826 v -5.7021826 m 1.036407,5.7021826 v -5.7021826 m 1.03696,5.7021826 v -5.7021826 m 1.03678,5.7021826 v -5.7021826 m 1.025866,5.7021826 v -5.7021826"
           id="path26234"
           style="fill:#020202;fill-opacity:1;stroke:#030505;stroke-width:0.538601;stroke-opacity:1" />
      </g>
    </g>
    <path
       d="m 221.57014,54.379649 c 1.53332,-11.915247 -7.38383,-21.274779 -12.91407,-25.71836 -6.37269,7.367765 -7.36295,26.677556 2.63498,34.807431 -5.57952,4.956117 -17.33731,9.448435 -29.37574,9.448435 L 34,72.917155 C 32.829255,85.484184 34,146 34,146 h 217 l -0.98657,-91.424 c -9.39863,-5.423665 -21.48419,-3.694326 -28.44332,-0.196552"
       clip-path="url(#clipPath8)"
       id="path38"
       style="fill:#fdfdfd;fill-opacity:1"
       transform="matrix(0.34525728,0,0,0.34525728,3.3726978e-6,-1.6059028e-4)" />
    <path
       d="m 34,89 v 57 H 251 V 89"
       clip-path="url(#clipPath8)"
       id="path40"
       style="fill:#ffffff;fill-opacity:1"
       transform="matrix(0.34525728,0,0,0.34525728,3.3726978e-6,-1.6059028e-4)" />
    <path
       d="m 15.752366,40.405731 c 4.890624,0.267693 10.10998,0.315678 14.662645,-1.111296"
       id="path46"
       style="fill:#010101;fill-opacity:1;stroke:#000000;stroke-width:1.17387;stroke-linecap:round;stroke-opacity:1" />
    <path
       d="m 33.877122,35.667603 c -0.164767,0.09522 -0.276258,0.27366 -0.276258,0.477801 0,0.304729 0.247022,0.551397 0.551765,0.551397 0.208764,0 0.390156,-0.115945 0.483903,-0.287165 0.06621,0.159571 0.102983,0.334871 0.102983,0.518667 0,0.746473 -0.605204,1.351674 -1.35186,1.351674 -0.746474,0 -1.352046,-0.605201 -1.352046,-1.351674 0,-0.746839 0.605572,-1.352229 1.352046,-1.352229 0.172704,0 0.337457,0.03255 0.48945,0.09153 z"
       id="path50"
       style="fill:#020202;fill-opacity:1;stroke-width:0.345257" />
    <path
       d="M 3.3726978e-6,31.129045 H 87.8084 c -1.911945,-0.485014 -6.049252,-1.140141 -5.366943,-3.645825 -3.47645,4.022853 -11.860533,2.822246 -13.976432,0.838557 -2.356279,3.417462 -16.073282,2.118487 -17.029996,-0.543814 -2.953903,3.46665 -12.107201,3.46665 -15.061283,0 -0.957085,2.662301 -14.673903,3.961276 -17.030368,0.543814 C 17.22748,30.305466 8.8441357,31.506073 5.3673184,27.48322 6.0496267,29.988904 1.9123196,30.644031 3.3726978e-6,31.129045"
       id="path52"
       style="fill:#010101;fill-opacity:1;stroke-width:0.345257" />
  </g>
</svg>
