<?xml version="1.0" encoding="UTF-8" standalone="no"?>
<svg
   id="Layer_1"
   data-name="Layer 1"
   viewBox="0 0 50.000001 50"
   version="1.1"
   sodipodi:docname="figma.svg"
   width="50"
   height="50"
   inkscape:version="1.1.2 (0a00cf5339, 2022-02-04, custom)"
   xmlns:inkscape="http://www.inkscape.org/namespaces/inkscape"
   xmlns:sodipodi="http://sodipodi.sourceforge.net/DTD/sodipodi-0.dtd"
   xmlns="http://www.w3.org/2000/svg"
   xmlns:svg="http://www.w3.org/2000/svg"
   xmlns:rdf="http://www.w3.org/1999/02/22-rdf-syntax-ns#"
   xmlns:cc="http://creativecommons.org/ns#"
   xmlns:dc="http://purl.org/dc/elements/1.1/">
  <sodipodi:namedview
     id="namedview5369"
     pagecolor="#505050"
     bordercolor="#ffffff"
     borderopacity="1"
     inkscape:pageshadow="0"
     inkscape:pageopacity="0"
     inkscape:pagecheckerboard="1"
     showgrid="false"
     inkscape:zoom="1.5036848"
     inkscape:cx="43.559662"
     inkscape:cy="86.786808"
     inkscape:window-width="1895"
     inkscape:window-height="1012"
     inkscape:window-x="1925"
     inkscape:window-y="58"
     inkscape:window-maximized="0"
     inkscape:current-layer="Layer_1" />
  <defs
     id="defs5342"><style
   id="style5340">.cls-1{fill:#10aa50;}.cls-2{fill:#b8c4c2;}.cls-3{fill:#12924f;}.cls-4{fill:#21313c;}</style>
<style
   id="style1482">.cls-1{fill:#1b1b1f;}</style>
<style
   id="style5340-2">.cls-1{fill:#10aa50;}.cls-2{fill:#b8c4c2;}.cls-3{fill:#12924f;}.cls-4{fill:#21313c;}</style>

	












<clipPath
   id="clipPath8">
  <path
     d="M 76,2 V 48 H 54 V 71 H 35.580737 c -0.07818,0.665694 -0.141485,1.332869 -0.205737,2 -1.151162,12.530963 1.036422,24.087546 6.0625,33.96875 L 43.125,110 c 1.011403,1.81678 2.191241,3.52297 3.4375,5.1875 1.244725,1.66248 1.685716,2.58262 2.46875,3.6875 C 62.319911,133.81083 82.129473,141 105,141 155.64836,141 198.63299,118.56201 217.65625,68.15625 231.15302,69.54122 244.09968,66.080358 250,54.5625 240.60137,49.138835 228.52163,50.877226 221.5625,54.375 L 240,2 168,48 H 145 V 2 Z"
     id="path10" />
</clipPath>

        
    
            
            
        
                
                
                
            
                    
                
                    
                
                
                    
                
                
                    
                
                
                    
                
                
                    
                
                
                    
                
                
                    
                
                
                    
                
                
                    
                
                    
                </defs>
  <title
     id="title5344">MongoDB_Logo_FullColorBlack_RGB</title>
  <metadata
     id="metadata5371">
    <rdf:RDF>
      <cc:Work
         rdf:about="">
        <dc:title>MongoDB_Logo_FullColorBlack_RGB</dc:title>
      </cc:Work>
    </rdf:RDF>
  </metadata>
  <rect
     y="-254.83914"
     width="2048"
     height="549.99591"
     style="clip-rule:evenodd;fill:none;fill-rule:evenodd;stroke-width:0.913893;stroke-linejoin:round;stroke-miterlimit:2"
     id="rect28337"
     x="-988.37915" />
  <path
     id="path30078"
     style="fill:#ffffff;fill-opacity:1;stroke:#000000;stroke-width:6.38344;stroke-linecap:round;stroke-linejoin:round;stroke-miterlimit:4;stroke-dasharray:none;stroke-opacity:1;paint-order:stroke fill markers"
     d="m 25.023515,3.2916134 -3.893858,0.013396 c -2.922313,0.00956 -3.7914,0.01531 -4.345941,0.084775 0.03292,-0.00172 0.05645,-0.00575 0.03635,-0.01531 -0.02334,-0.00956 -0.06162,-0.00956 -0.08496,0 -0.02143,0.00956 2.49e-4,0.01531 0.03903,0.01531 -0.05549,0.00765 -0.127258,0.011482 -0.177779,0.020094 -0.01148,-0.00956 -0.03904,-0.011482 -0.06258,-0.00191 -0.01914,0.00765 -0.01531,0.013396 0,0.017222 -0.158642,0.029662 -0.305324,0.063725 -0.502661,0.1123319 -0.959548,0.2372173 -1.93362,0.7173355 -2.706585,1.3255158 0.0096,-0.00956 0.01722,-0.01531 0.03024,-0.031576 0.04229,-0.053774 0.04114,-0.055114 -0.0134,-0.013396 -0.03273,0.025643 -0.05951,0.052435 -0.05951,0.059515 0,0.00956 0.0077,0.00765 0.01531,0.00575 -0.0375,0.029853 -0.07693,0.058367 -0.113288,0.088794 -0.0057,0.00383 -0.01339,0.013396 -0.01933,0.019137 0.03273,-0.036551 0.05281,-0.066787 0.04363,-0.066787 -0.0096,0 -0.04459,0.030618 -0.07827,0.067935 -0.03388,0.037317 -0.05377,0.067743 -0.04459,0.067743 0.0096,0 0.04191,-0.029662 0.07387,-0.063916 -0.344152,0.2916992 -0.90252,0.8726481 -1.141268,1.1908132 -0.770975,1.0275207 -1.27423,2.2957417 -1.413832,3.5630824 -0.04555,0.4135803 -0.04631,1.1705293 -0.0015,1.5707503 0.378369,3.386069 3.067693,6.046343 6.46354,6.393616 0.149265,0.01531 2.000809,0.02985 4.114427,0.03234 l 3.772972,0.0038 -3.654268,0.01148 c -2.048306,0.0057 -0.357069,0.0057 3.758218,-0.0013 4.761177,-0.0077 7.624206,-0.02487 7.872522,-0.04708 0.984908,-0.08822 1.92692,-0.378712 2.777374,-0.840307 -0.03335,0.01914 -0.0627,0.04057 -0.0627,0.04918 0,0.0096 0.0306,7.27e-4 0.06793,-0.01933 0.03733,-0.01991 0.06783,-0.04401 0.06783,-0.0532 0,-0.0077 -0.02866,0.0017 -0.06001,0.01722 0.866903,-0.472789 1.637879,-1.124371 2.258618,-1.927534 0.0038,-0.0057 0.0071,-0.0096 0.0111,-0.01531 0.005,0.01722 0.02842,0.0019 0.06822,-0.04823 0.04222,-0.05377 0.04105,-0.05492 -0.01282,-0.01339 -0.02298,0.01722 -0.03198,0.02985 -0.04183,0.04191 1.949905,-2.554144 1.967751,-6.1013603 0.04679,-8.6812043 0.02528,0.031958 0.05165,0.058559 0.0586,0.058559 0.02792,0 0.01,-0.027748 -0.04658,-0.072145 -0.02635,-0.020668 -0.03942,-0.030236 -0.04164,-0.028897 -0.0019,-0.00191 -0.0036,-0.00575 -0.0055,-0.00765 -0.271604,-0.3583328 -0.849965,-0.954859 -1.199855,-1.2376022 -0.01979,-0.01531 -0.04329,-0.029279 -0.06337,-0.045163 0.02566,-9.951e-4 0.0086,-0.027939 -0.04689,-0.07138 -0.05381,-0.042291 -0.05508,-0.040952 -0.01282,0.013396 0.0241,0.03081 0.04717,0.052817 0.05594,0.055878 -0.819413,-0.645267 -1.860179,-1.1517555 -2.868074,-1.386217 -0.07147,-0.017223 -0.126396,-0.024686 -0.188457,-0.038464 0.03433,9.76e-4 0.05458,-0.00575 0.04353,-0.017223 -0.01129,-0.011482 -0.04057,-0.013396 -0.06507,-0.00192 -0.01282,0.00575 -0.01627,0.00956 -0.01378,0.013396 -0.05046,-0.011482 -0.105902,-0.022582 -0.155581,-0.031767 0.01703,-0.00192 0.03867,-0.00383 0.03086,-0.011482 -0.01129,-0.011482 -0.04057,-0.013396 -0.06507,-0.00192 -0.0065,0.00192 -0.0046,0.00383 -0.0071,0.00575 -0.0479,-0.00765 -0.113308,-0.019137 -0.165301,-0.025452 0.02308,-0.00192 0.03486,-0.00765 0.01761,-0.01531 -0.02333,-0.00956 -0.06146,-0.00956 -0.08479,0 -0.0084,0.00383 -0.0055,0.00575 -0.0036,0.00956 -0.53038,-0.063342 -1.376579,-0.069466 -4.305918,-0.078843 z m 7.474301,0.013396 c -0.05158,0.00765 -0.01742,0.01531 0.07593,0.01531 0.09329,2.488e-4 0.135488,-0.00575 0.09375,-0.013396 -0.04174,-0.00765 -0.118092,-0.00765 -0.169684,-4.784e-4 z m -15.083874,4.973e-4 c -0.04191,0.00765 -0.0077,0.01531 0.07636,0.01531 0.08401,0 0.118264,-0.00575 0.07636,-0.01531 -0.0421,-0.00765 -0.11061,-0.00765 -0.15271,0 z m -0.169742,0.00147 c -0.02334,0.00956 -0.0038,0.017222 0.04229,0.017222 0.04669,0 0.06583,-0.00765 0.04229,-0.017222 -0.02334,-0.00956 -0.06143,-0.00956 -0.08477,0 z m -0.219995,0.032915 c -0.03292,0.00765 -0.01339,0.01531 0.04191,0.017223 0.05607,7.463e-4 0.08305,-0.00575 0.06009,-0.01531 -0.02296,-0.00956 -0.06889,-0.00956 -0.101805,-0.00124 z m 15.914168,9.57e-5 c -0.03266,0.00765 -0.006,0.01531 0.05946,0.01531 0.06531,0 0.09201,-0.00765 0.05937,-0.01531 -0.03266,-0.00765 -0.08616,-0.00765 -0.1188,0 z m 2.078457,0.4995227 c -0.01856,0 -0.0111,0.01531 0.01703,0.032915 0.028,0.017222 0.06623,0.032915 0.08489,0.032915 0.01857,0 0.0111,-0.01531 -0.01703,-0.032915 -0.028,-0.017223 -0.06623,-0.032915 -0.08489,-0.032915 z m 0.29801,0.1362526 c -0.01454,9.952e-4 0.05741,0.045928 0.160058,0.1002754 0.208307,0.1100355 0.203597,0.1081218 0.203597,0.085349 0,-0.020668 -0.327592,-0.1877301 -0.363655,-0.1856244 z m 0.536287,0.2786672 c -0.0015,0.00192 0.01435,0.01531 0.04602,0.040187 0.06924,0.055497 0.08678,0.06296 0.08678,0.037125 0,-0.00956 -0.03431,-0.032532 -0.07631,-0.052817 -0.03666,-0.017222 -0.05513,-0.0266 -0.05649,-0.024495 z m 0.540003,0.3306039 c -0.0017,0.00172 0.0084,0.01531 0.02962,0.042291 0.02562,0.032724 0.05232,0.059323 0.05937,0.059323 0.02792,0 0.01,-0.027939 -0.0466,-0.072145 -0.02691,-0.02105 -0.04064,-0.031193 -0.04239,-0.02947 z m 0.135756,0.1018064 c -0.0017,0.00172 0.0084,0.01531 0.02962,0.042483 0.02562,0.032724 0.0523,0.059515 0.05937,0.059515 0.02792,0 0.01,-0.027939 -0.0466,-0.072145 -0.02691,-0.021051 -0.04064,-0.031384 -0.04239,-0.029662 z m 0.254472,0.1865819 0.0823,0.093387 c 0.04524,0.051286 0.08719,0.093195 0.09327,0.093195 0.02662,0 0.005,-0.027366 -0.08221,-0.1042949 z m -23.702469,0.15271 c -0.0017,-0.00172 -0.01531,0.00765 -0.04248,0.029662 -0.03273,0.025643 -0.05932,0.052243 -0.05932,0.059323 0,0.027939 0.02794,0.00956 0.07214,-0.046502 0.02106,-0.026983 0.03139,-0.04057 0.02966,-0.042483 z m 23.939981,0.050904 0.338693,0.3478459 c 0.186276,0.191366 0.342823,0.3478269 0.347838,0.3478269 0.02453,0 -0.01569,-0.042483 -0.33869,-0.3569742 z m -24.043261,0.050904 c -0.0096,0 -0.153667,0.1374008 -0.32096,0.3054584 -0.167254,0.1680194 -0.296292,0.3054393 -0.286972,0.3054393 0.0096,0 0.153667,-0.1374008 0.320883,-0.3054393 0.167254,-0.1680194 0.296388,-0.3054584 0.287049,-0.3054584 z m -0.609348,0.6108977 c -0.0017,-0.00172 -0.01531,0.00765 -0.04248,0.02947 -0.03273,0.025643 -0.05951,0.052435 -0.05951,0.059515 0,0.027939 0.02794,0.00956 0.07214,-0.046502 0.02105,-0.026983 0.03139,-0.04057 0.02966,-0.042291 z m 25.365247,0.084775 0.08221,0.093387 c 0.07689,0.087263 0.104412,0.1088873 0.104412,0.082288 0,-0.00575 -0.04205,-0.048033 -0.09337,-0.093195 z m -25.439574,0.017223 c -0.0096,0 -0.04459,0.030428 -0.07846,0.067743 -0.03388,0.037317 -0.05377,0.067935 -0.04459,0.067935 0.0096,0 0.04459,-0.030618 0.07846,-0.067935 0.03388,-0.037316 0.05377,-0.067743 0.04459,-0.067743 z m -0.163235,0.2035943 c -0.0017,-0.00172 -0.01531,0.00765 -0.04248,0.029662 -0.03272,0.025643 -0.05932,0.052243 -0.05932,0.059324 0,0.027939 0.02794,0.00956 0.07214,-0.046502 0.02106,-0.026983 0.03139,-0.04057 0.02947,-0.042291 z m 25.789502,0 c -0.0017,0.00172 0.0086,0.01531 0.02962,0.042292 0.02561,0.032724 0.0523,0.059515 0.05935,0.059515 0.02792,0 0.01,-0.027939 -0.04658,-0.072145 -0.02691,-0.021051 -0.04064,-0.031384 -0.04239,-0.029663 z m 0.203598,0.2715291 c -0.0017,0.00172 0.0086,0.01531 0.02962,0.042483 0.02563,0.032724 0.0523,0.059324 0.05937,0.059324 0.02792,0 0.01,-0.027939 -0.0466,-0.072145 -0.02691,-0.021051 -0.04064,-0.031384 -0.04239,-0.02947 z m 0.353937,0.508938 c -0.0094,0 -7.39e-4,0.030618 0.01935,0.067935 0.01998,0.037317 0.04392,0.067743 0.05326,0.067743 0.0094,0 7.38e-4,-0.030427 -0.01935,-0.067743 -0.01998,-0.037317 -0.04392,-0.067935 -0.05326,-0.067935 z m 0.17177,0.3054393 c -0.0088,0 0.01742,0.068318 0.05803,0.1519446 0.04061,0.083627 0.07959,0.1462036 0.08669,0.1389317 0.01531,-0.01531 -0.121728,-0.290972 -0.144711,-0.290972 z M 10.713031,8.9416557 c -0.0038,0.0038 -0.0057,0.01531 -0.0077,0.03522 -0.0015,0.03579 0.0057,0.05588 0.01722,0.04459 0.01148,-0.01148 0.01339,-0.04057 0.0019,-0.06507 -0.0057,-0.01339 -0.0096,-0.01914 -0.01339,-0.01531 z m 28.605952,0 c -0.0036,0.0038 -0.0062,0.01531 -0.0069,0.03522 -0.0015,0.03579 0.0065,0.05569 0.0178,0.04459 0.01129,-0.01148 0.01244,-0.04057 0.0027,-0.06507 -0.0053,-0.01339 -0.01011,-0.01914 -0.01359,-0.01531 z m -28.639862,0.169743 c -0.0038,0.0038 -0.0057,0.01531 -0.0077,0.03522 -0.0015,0.03579 0.0057,0.05588 0.01723,0.04459 0.01148,-0.01148 0.01339,-0.04057 0.0019,-0.06507 -0.0057,-0.01339 -0.0096,-0.01914 -0.01339,-0.01531 z m 28.673777,0 c -0.0036,0.0038 -0.0062,0.01531 -0.0069,0.03522 -0.0015,0.03579 0.0065,0.05588 0.0178,0.04459 0.01129,-0.01148 0.01263,-0.04057 0.0027,-0.06507 -0.0053,-0.01339 -0.01011,-0.01914 -0.01378,-0.01531 z m -28.707783,0.16955 c -0.0038,0.0038 -0.0057,0.01531 -0.0077,0.03522 -0.0015,0.03579 0.0057,0.05588 0.01722,0.04459 0.01148,-0.01148 0.0134,-0.04057 0.0019,-0.06507 -0.0057,-0.01339 -0.0096,-0.01914 -0.01339,-0.01531 z m 28.741703,9.6e-5 c -0.0036,0.0038 -0.006,0.01531 -0.0067,0.03521 -0.0015,0.03579 0.0065,0.05588 0.0178,0.04459 0.01129,-0.01148 0.01244,-0.04057 0.0027,-0.06507 -0.0053,-0.01339 -0.01011,-0.01914 -0.01378,-0.01531 z m 0.03486,0.211114 c -0.0031,0.0077 -0.005,0.02411 -0.005,0.04746 0,0.04669 0.0077,0.06583 0.01703,0.04248 0.0094,-0.02334 0.0094,-0.06143 0,-0.08477 -0.0048,-0.01148 -0.009,-0.01339 -0.01205,-0.0057 z m -28.810499,0.02641 c -0.0038,0.0038 -0.0057,0.01531 -0.0077,0.03522 -0.0015,0.03579 0.0057,0.05588 0.01722,0.04459 0.01148,-0.01148 0.01339,-0.04057 0.0019,-0.06507 -0.0057,-0.01339 -0.0096,-0.01914 -0.01339,-0.01531 z m -0.03388,0.169743 c -0.0038,0.0038 -0.0057,0.01531 -0.0077,0.03521 -0.0015,0.03579 0.0057,0.05588 0.01723,0.04459 0.01148,-0.01148 0.01339,-0.04057 0.0019,-0.06507 -0.0057,-0.0134 -0.0096,-0.01914 -0.01339,-0.01531 z m 28.891281,0.0974 c -0.0086,-0.03273 -0.0155,-0.0057 -0.0155,0.05951 0,0.06526 0.0071,0.09205 0.0155,0.05932 0.0086,-0.03273 0.0086,-0.08611 0,-0.118839 z m -28.888717,0.0222 c -0.0038,0.0077 -0.0057,0.02622 -0.0057,0.05434 -7.47e-4,0.05588 0.0057,0.08305 0.01531,0.06009 0.0096,-0.02296 0.0096,-0.06889 0.0013,-0.101805 -0.0038,-0.01722 -0.0077,-0.0201 -0.01148,-0.01339 z m -0.0356,0.2274203 c -0.0038,0.0077 -0.0057,0.02411 -0.0057,0.04746 0,0.04669 0.0077,0.06564 0.01722,0.04248 0.0096,-0.02334 0.0096,-0.06143 0,-0.08477 -0.0038,-0.01148 -0.0096,-0.01339 -0.01148,-0.0057 z m 0.01531,0.293421 c -0.0077,-0.107357 -0.01148,-0.01952 -0.01148,0.195117 0,0.214637 0.0057,0.302434 0.01148,0.195117 0.0077,-0.107357 0.0077,-0.282916 0,-0.390234 z m 28.9453,0.0015 c -0.0065,-0.126685 -0.01186,-0.03196 -0.01205,0.210636 -4.7e-5,0.242633 0.0053,0.346334 0.01186,0.230462 0.0065,-0.115777 0.0067,-0.314357 9.7e-5,-0.441098 z m -28.958246,0.597544 c -0.0038,0.0077 -0.0057,0.02622 -0.0057,0.05415 -7.46e-4,0.05588 0.0057,0.08305 0.01531,0.06009 0.0096,-0.02296 0.0096,-0.06889 0.0013,-0.101806 -0.0038,-0.01722 -0.0077,-0.0201 -0.01148,-0.01339 z m 28.912527,0.218463 c -0.0029,0.01148 -0.0046,0.03598 -0.0048,0.07329 -4.94e-4,0.07463 0.0063,0.109079 0.01474,0.07674 0.0084,-0.03253 0.0088,-0.09339 7.38e-4,-0.135679 -0.004,-0.02105 -0.0079,-0.02506 -0.01071,-0.01531 z M 10.580441,11.1654 c -0.0038,0.0077 -0.0057,0.02641 -0.0057,0.05434 -7.46e-4,0.05607 0.0057,0.08305 0.01531,0.06009 0.0096,-0.02296 0.0096,-0.06889 0.0013,-0.101806 -0.0038,-0.01722 -0.0077,-0.0201 -0.01148,-0.01339 z m -0.0019,0.151944 c -0.0038,0.0038 -0.0057,0.01531 -0.0077,0.03521 -0.0015,0.03579 0.0057,0.05569 0.01722,0.04459 0.01148,-0.01148 0.01339,-0.04057 0.0019,-0.06507 -0.0057,-0.01339 -0.0096,-0.01914 -0.01339,-0.01531 z m 28.846134,0.153476 c -0.0031,0.0077 -0.0052,0.02622 -0.0055,0.05415 -7.38e-4,0.05607 0.0063,0.08305 0.01569,0.06009 0.0094,-0.02296 0.0098,-0.0687 0.0013,-0.101805 -0.0044,-0.01722 -0.0082,-0.0201 -0.01129,-0.01339 z M 10.61247,11.48613 c -0.0038,0.0038 -0.0057,0.01531 -0.0077,0.03521 -0.0015,0.03579 0.0057,0.05588 0.01722,0.04459 0.01148,-0.01148 0.01339,-0.04057 0.0019,-0.06507 -0.0057,-0.0134 -0.0096,-0.01914 -0.0134,-0.01531 z m 28.776479,0.211114 c -0.0031,0.0077 -0.005,0.02411 -0.005,0.04746 0,0.04669 0.0077,0.06583 0.01703,0.04248 0.0094,-0.02334 0.0094,-0.06162 0,-0.08496 -0.0048,-0.01148 -0.009,-0.01339 -0.01205,-0.0057 z m -28.708563,0.196074 c -0.0038,0.0038 -0.0057,0.01531 -0.0077,0.03521 -0.0015,0.03579 0.0057,0.05569 0.01722,0.04459 0.01148,-0.01148 0.0134,-0.04057 0.0019,-0.06507 -0.0057,-0.0134 -0.0096,-0.01914 -0.01339,-0.01531 z m 28.673789,0 c -0.0036,0.0038 -0.0062,0.01531 -0.0069,0.03521 -0.0015,0.03579 0.0065,0.05569 0.0178,0.04459 0.01129,-0.01148 0.01263,-0.04057 0.0027,-0.06507 -0.0053,-0.0134 -0.01011,-0.01914 -0.01378,-0.01531 z m -0.03391,0.169741 c -0.0036,0.0038 -0.0062,0.01531 -0.0069,0.03521 -0.0015,0.03579 0.0065,0.05569 0.0178,0.0444 0.01129,-0.01148 0.01244,-0.04057 0.0027,-0.06507 -0.0053,-0.01339 -0.01011,-0.01914 -0.01359,-0.01531 z m -0.034,0.135679 c -0.0036,0.0038 -0.006,0.01531 -0.0067,0.03521 -0.0015,0.03579 0.0065,0.05588 0.0178,0.04459 0.01129,-0.01148 0.01244,-0.04057 0.0027,-0.06507 -0.0053,-0.0134 -0.01011,-0.01914 -0.01378,-0.01531 z m -0.349838,1.157841 c 0,-0.01914 -0.01474,-0.01148 -0.03288,0.01722 -0.01818,0.02794 -0.03287,0.06622 -0.03287,0.08477 0,0.01914 0.01474,0.01148 0.03287,-0.01722 0.01818,-0.02794 0.03288,-0.06622 0.03288,-0.08477 z m -0.45464,0.865261 c -0.0094,0 -0.03328,0.03043 -0.05326,0.06774 -0.01998,0.03732 -0.02876,0.06793 -0.01944,0.06793 0.0094,0 0.03337,-0.03062 0.05336,-0.06793 0.01998,-0.03731 0.02866,-0.06774 0.01934,-0.06774 z m -0.290864,0.475124 c -0.0017,-0.0017 -0.0155,0.0077 -0.04241,0.02947 -0.03266,0.02564 -0.05937,0.05244 -0.05937,0.05952 0,0.02794 0.02788,0.0096 0.07222,-0.0465 0.02111,-0.02698 0.03129,-0.04057 0.02952,-0.04248 z m -26.230526,0.135668 c -0.0017,0.0017 0.0077,0.01531 0.02947,0.04248 0.0444,0.05645 0.07214,0.07444 0.07214,0.0465 0,-0.0077 -0.0266,-0.03368 -0.05932,-0.05932 -0.02698,-0.02105 -0.04057,-0.03139 -0.04229,-0.02966 z m 26.020541,0.135679 c -0.0094,0 -0.04463,0.03043 -0.0784,0.06774 -0.03378,0.03731 -0.05383,0.06793 -0.04449,0.06793 0.0094,0 0.04463,-0.03062 0.0784,-0.06793 0.03378,-0.03731 0.05383,-0.06774 0.04449,-0.06774 z m -0.134434,0.169741 c -0.0094,0 -0.05288,0.03809 -0.0967,0.08477 -0.04382,0.04669 -0.07202,0.08477 -0.0627,0.08477 0.0094,0 0.05278,-0.03827 0.0966,-0.08477 0.04384,-0.04669 0.07211,-0.08477 0.06279,-0.08477 z m -25.631628,0.01722 0.06449,0.07636 c 0.06086,0.07176 0.08803,0.09186 0.08803,0.06469 0,-0.0057 -0.03445,-0.04076 -0.07636,-0.07636 z m 0.101805,0.135678 0.06449,0.07636 c 0.0356,0.04191 0.07004,0.07636 0.07636,0.07636 0.0057,0 7.46e-4,-0.0057 0.0019,-0.0096 l 0.178162,0.187346 c 0.101996,0.107357 0.189835,0.195118 0.195116,0.195118 0.0057,0 -0.0057,-0.01148 -0.0057,-0.01531 l 0.06373,0.0754 c 0.0356,0.0421 0.06984,0.07636 0.07636,0.07636 0.02717,0 0.0077,-0.02736 -0.0645,-0.08803 l -0.07578,-0.06411 c -0.0019,-0.01531 -0.03693,-0.05339 -0.178735,-0.188304 l -0.187539,-0.178353 c 0.0038,-0.0096 -0.01148,-0.03158 -0.06678,-0.07827 z m 25.348289,0.06794 -0.263045,0.253616 c -0.144634,0.139506 -0.262954,0.257905 -0.262954,0.263033 0,0.02487 0.0367,-0.0096 0.272289,-0.253694 z m -0.576872,0.542962 -0.110322,0.0997 c -0.06066,0.05473 -0.110227,0.104487 -0.110227,0.110227 0,0.02622 0.028,0.0038 0.120905,-0.0997 z m -24.092794,0.03387 0.06449,0.07636 c 0.0356,0.04191 0.07004,0.07636 0.07636,0.07636 0.02717,0 0.0077,-0.02736 -0.06469,-0.08822 z m 0.220549,0.186583 c -0.0017,0.0017 0.0077,0.01531 0.02966,0.04229 0.0444,0.05645 0.07214,0.07444 0.07214,0.0465 0,-0.0077 -0.02679,-0.03388 -0.05951,-0.05952 -0.02698,-0.02106 -0.04057,-0.03139 -0.04248,-0.02947 z m 23.611295,0 c -0.0094,0 -0.04463,0.03043 -0.0784,0.06774 -0.03378,0.03731 -0.05383,0.06793 -0.04449,0.06793 0.0094,0 0.04463,-0.03062 0.0784,-0.06793 0.03378,-0.03732 0.05383,-0.06774 0.04449,-0.06774 z m -0.163197,0.135678 c -0.0017,-0.0017 -0.0155,0.0077 -0.04248,0.02947 -0.03266,0.02564 -0.05937,0.05244 -0.05937,0.05952 0,0.02794 0.02788,0.0096 0.07222,-0.0465 0.02109,-0.02698 0.03139,-0.04057 0.02962,-0.04248 z m -0.135756,0.114246 c 0,-0.0096 -0.04585,0.01531 -0.101848,0.05549 -0.05599,0.0398 -0.101752,0.08019 -0.101752,0.08956 0,0.0096 0.04576,-0.01531 0.101752,-0.05549 0.05599,-0.0398 0.101848,-0.08019 0.101848,-0.08937 z m -0.339362,0.239685 c 0,-0.0096 -0.0305,-7.26e-4 -0.06783,0.01933 -0.03733,0.01991 -0.06793,0.04401 -0.06793,0.05339 0,0.0096 0.0306,7.47e-4 0.06793,-0.01933 0.03733,-0.01991 0.06783,-0.04401 0.06783,-0.05339 z m -0.86526,0.461614 c -0.01857,0 -0.0569,0.01531 -0.08489,0.03292 -0.02799,0.01722 -0.03561,0.03292 -0.01703,0.03292 0.01857,0 0.05689,-0.01531 0.08489,-0.03292 0.028,-0.01723 0.03561,-0.03292 0.01703,-0.03292 z m -1.14317,0.41691 c -0.02708,0.01148 -0.01914,0.01914 0.02048,0.02048 0.03577,0.0015 0.05585,-0.0057 0.04459,-0.01722 -0.01129,-0.01148 -0.04057,-0.01339 -0.06507,-0.0019 z m -0.407193,0.101805 c -0.02708,0.01148 -0.01914,0.01914 0.02048,0.02048 0.03577,0.0015 0.05586,-0.0057 0.04459,-0.01722 -0.01129,-0.01148 -0.04057,-0.0134 -0.06507,-0.0019 z m -0.169684,0.03387 c -0.02706,0.01148 -0.01914,0.01914 0.02048,0.02067 0.03577,0.0015 0.05586,-0.0057 0.04459,-0.01722 -0.01129,-0.01148 -0.04057,-0.01339 -0.06507,-0.0019 z m -17.000647,0.03388 c -0.02717,0.01148 -0.01914,0.01914 0.02048,0.02067 0.03579,0.0015 0.05569,-0.0057 0.04459,-0.01722 -0.01148,-0.01148 -0.04057,-0.01339 -0.06507,-0.0019 z m 16.794952,7.26e-4 c -0.02333,0.0096 -0.0043,0.01722 0.04239,0.01722 0.04665,0 0.06574,-0.0077 0.04241,-0.01722 -0.02333,-0.0096 -0.06146,-0.0096 -0.08479,0 z m -0.253901,0.03292 c -0.03301,0.0096 -0.01416,0.01531 0.04183,0.01722 0.05599,7.28e-4 0.083,-0.0057 0.06001,-0.01531 -0.02297,-0.0096 -0.06883,-0.0096 -0.101848,-0.0013 z m -16.305633,9.75e-4 c -0.02334,0.0096 -0.0038,0.01722 0.04229,0.01722 0.04669,0 0.06583,-0.0077 0.04248,-0.01722 -0.02335,-0.0096 -0.06143,-0.0096 -0.08477,0 z m 15.948745,0.03253 c -0.04198,0.0077 -0.0077,0.01531 0.07631,0.01531 0.08398,0 0.118302,-0.0057 0.07631,-0.01531 -0.04198,-0.0077 -0.110628,-0.0077 -0.152634,0 z m -15.626447,4.78e-4 c -0.03273,0.0077 -0.0057,0.01531 0.05952,0.01531 0.06526,0 0.09205,-0.0077 0.05932,-0.01531 -0.03273,-0.0077 -0.08611,-0.0077 -0.118838,0 z m -0.116542,1.92e-4 c -0.02698,0.01148 -0.01914,0.01914 0.02048,0.02048 0.03579,0.0015 0.05588,-0.0057 0.04459,-0.01723 -0.01148,-0.01148 -0.04057,-0.01339 -0.06507,-0.0019 z m 13.167574,0.03368 c -4.354032,-9.95e-4 -12.898647,0.03253 -13.195092,0.0622 -1.303662,0.130703 -2.588417,0.648368 -3.681805,1.483565 -0.2948,0.2252 -0.83562,0.754709 -1.131261,1.10755 -1.160941,1.385567 -1.786497,3.331529 -1.638973,5.098488 0.1219,1.459989 0.59754,2.726871 1.451014,3.865 0.267912,0.357281 0.877394,0.982818 1.233201,1.26579 1.04878,0.83407 2.356729,1.39414 3.573931,1.530355 0.190602,0.02125 0.397563,0.0488 0.459891,0.06105 0.11195,0.02181 7.710712,0.01339 7.732757,-0.0077 0.0057,-0.0057 0.01148,-3.259442 0.01148,-7.229253 v -7.218517 l 3.924163,0.01148 c 2.15833,0.0057 3.849124,-0.0013 3.75725,-0.01531 -0.0594,-0.0096 -1.045169,-0.01339 -2.496511,-0.01339 z m 2.067024,0.04076 c -1.593914,-2.49e-4 -3.149291,0.530925 -4.409671,1.496807 0.01205,-0.0096 0.02578,-0.02259 0.04449,-0.04631 0.04222,-0.05377 0.04105,-0.05511 -0.01282,-0.01339 -0.03266,0.02564 -0.05944,0.05243 -0.05944,0.05951 0,0.01148 0.0074,0.01148 0.01703,0.0077 -0.429786,0.330623 -0.825082,0.711365 -1.17518,1.140216 0.0178,-0.02278 0.03871,-0.0488 0.03201,-0.0488 -0.0094,0 -0.04463,0.03043 -0.0784,0.06774 -0.03378,0.03732 -0.05374,0.06774 -0.0444,0.06774 0.0074,0 0.03618,-0.02736 0.06298,-0.05454 -1.719271,2.132066 -2.065433,5.030668 -0.981496,7.463141 0.161762,0.363002 0.353928,0.716072 0.579638,1.054178 0.141113,0.211421 0.294572,0.409982 0.45321,0.602515 -0.01186,-0.01339 -0.02971,-0.03215 -0.06145,-0.05913 l -0.07631,-0.06469 0.06459,0.07636 c 0.03556,0.0421 0.06996,0.07636 0.07641,0.07636 0.01205,0 0.01129,-0.0077 0.0043,-0.01914 1.262666,1.527216 3.057945,2.449963 5.116019,2.607495 -0.02809,4.98e-4 -0.05657,-0.0038 -0.07802,0 -0.05132,0.0077 -0.0091,0.01339 0.09337,0.01339 0.07655,0 0.07401,-0.0057 0.06954,-0.01148 0.305675,0.01531 0.992596,-0.01531 1.348962,-0.06564 1.943796,-0.268812 3.659345,-1.322645 4.794,-2.843679 0.0034,0.0201 0.02817,0.0057 0.06944,-0.04784 0.04222,-0.05377 0.04105,-0.05492 -0.01282,-0.0134 -0.02348,0.01914 -0.03307,0.03081 -0.04269,0.04267 0.530646,-0.716015 0.933792,-1.534067 1.169942,-2.423612 0.04455,-0.167828 0.0795,-0.310224 0.108141,-0.444448 9.85e-4,0.02622 0.0055,0.04746 0.01512,0.03789 0.01129,-0.01148 0.01263,-0.04038 0.0027,-0.06488 -0.004,-0.0096 -0.0072,-0.01148 -0.01032,-0.01148 0.01148,-0.05607 0.0178,-0.109462 0.02706,-0.163427 0.0015,0.02373 0.0053,0.04516 0.01454,0.03598 0.01129,-0.01148 0.01244,-0.04057 0.0027,-0.06507 -0.0043,-0.0096 -0.0072,-0.01148 -0.01053,-0.01148 0.009,-0.05607 0.02152,-0.11348 0.0283,-0.170316 0.0019,0.03081 0.0074,0.04612 0.01531,0.0266 0.0094,-0.02334 0.0094,-0.06162 0,-0.08496 -0.004,-0.0096 -0.0072,-0.0096 -0.01032,-0.0038 0.02669,-0.25356 0.03582,-0.529663 0.03582,-0.937368 0,-0.407724 -0.0092,-0.683827 -0.03582,-0.937387 0.0029,0.0038 0.0063,0.0057 0.01032,-0.0038 0.0094,-0.02334 0.0094,-0.06143 0,-0.08477 -0.0079,-0.01952 -0.0134,-0.0038 -0.01531,0.0266 -0.0077,-0.06392 -0.02128,-0.128024 -0.03173,-0.191176 0.0029,0.0134 0.004,0.03541 0.01129,0.02813 0.01129,-0.01148 0.01244,-0.04057 0.0027,-0.06507 -0.0091,-0.02296 -0.0155,-0.01531 -0.01837,0.0096 -0.01,-0.05798 -0.01646,-0.11482 -0.02914,-0.175483 0.0031,0.01339 0.004,0.03407 0.01091,0.02717 0.01129,-0.01148 0.01263,-0.04057 0.0027,-0.06507 -0.0098,-0.02449 -0.01684,-0.01722 -0.01934,0.01339 -0.02846,-0.132809 -0.06273,-0.273099 -0.106706,-0.438726 -0.105348,-0.396855 -0.247312,-0.777827 -0.415291,-1.14412 0.01129,0.02487 0.02547,0.04325 0.03335,0.03541 0.0088,-0.0096 -2.47e-4,-0.04382 -0.02011,-0.07789 -0.03781,-0.06507 -0.04559,-0.04382 -0.01895,0.03024 -0.107452,-0.233161 -0.223259,-0.461594 -0.354032,-0.680345 0.01876,0.03311 0.04032,0.06239 0.04888,0.06239 0.0094,0 7.38e-4,-0.03062 -0.01935,-0.06793 -0.01998,-0.03731 -0.04392,-0.06774 -0.05326,-0.06774 -0.009,0 1.46e-4,0.03004 0.01876,0.06564 -0.355278,-0.592547 -0.794835,-1.127319 -1.299226,-1.592759 0.0257,-9.6e-5 0.0013,-0.0289 -0.117001,-0.1374 l -0.127182,-0.116926 0.116906,0.127259 c 0.06385,0.06946 0.119929,0.125536 0.126339,0.126301 -0.09035,-0.08324 -0.181204,-0.166106 -0.275718,-0.244757 0.0077,0.0038 0.0155,0.0057 0.0155,-0.0038 0,-0.0057 -0.03441,-0.04076 -0.07641,-0.07636 l -0.07631,-0.06469 0.06459,0.07636 c 0.01818,0.02162 0.02782,0.02928 0.04021,0.04172 -0.04572,-0.0375 -0.09389,-0.07214 -0.14052,-0.108696 0.0111,0.0077 0.01876,0.0077 0.01876,-0.0038 0,-0.0057 -0.03441,-0.04076 -0.07641,-0.07636 l -0.07631,-0.06469 0.0647,0.07636 c 0.02616,0.03081 0.04329,0.04765 0.05755,0.05971 -0.08319,-0.06488 -0.166049,-0.129939 -0.252093,-0.191175 0.01646,-0.0057 0.0023,-0.02851 -0.0483,-0.06812 -0.05381,-0.04229 -0.05498,-0.04095 -0.01282,0.0134 0.01876,0.02392 0.03177,0.03426 0.04353,0.04363 -0.786046,-0.55567 -1.686696,-0.9597 -2.659903,-1.166989 -0.496073,-0.105635 -0.996417,-0.157111 -1.493199,-0.157303 z m -6.604934,10.139925 c -0.03999,-0.06889 -0.0497,-0.04669 -0.01703,0.03865 0.01167,0.03024 0.02832,0.04803 0.03707,0.03923 0.0088,-0.0096 -2.47e-4,-0.04382 -0.02012,-0.07789 z m 5.705755,-10.112756 c -0.03301,0.0096 -0.01416,0.01531 0.04183,0.01722 0.05599,7.27e-4 0.08299,-0.0057 0.06004,-0.01531 -0.02297,-0.0096 -0.06883,-0.0096 -0.101848,-0.0013 z m 1.662117,9.5e-5 c -0.03266,0.0077 -0.006,0.01531 0.05937,0.01531 0.06531,0 0.0921,-0.0077 0.05946,-0.01531 -0.03266,-0.0077 -0.08615,-0.0077 -0.1188,0 z m -1.899631,0.03387 c -0.03301,0.0096 -0.01435,0.01531 0.04174,0.01722 0.05599,7.46e-4 0.083,-0.0057 0.06001,-0.01531 -0.02297,-0.0096 -0.06874,-0.0096 -0.101752,-0.0013 z m 2.17173,0 c -0.03301,0.0096 -0.01416,0.01531 0.04181,0.01722 0.05599,7.46e-4 0.08299,-0.0057 0.06004,-0.01531 -0.02297,-0.0096 -0.06883,-0.0096 -0.101847,-0.0013 z m -2.356844,0.03426 c -0.02706,0.01148 -0.01914,0.01914 0.02048,0.02048 0.03577,0.0015 0.05576,-0.0057 0.04449,-0.01722 -0.01129,-0.01148 -0.04047,-0.01339 -0.06497,-0.0019 z m 2.578924,0 c -0.02708,0.01148 -0.01914,0.01914 0.02048,0.02048 0.03577,0.0015 0.05576,-0.0057 0.04449,-0.01722 -0.01129,-0.01148 -0.04047,-0.01339 -0.06497,-0.0019 z m -2.748604,0.03387 c -0.02706,0.01148 -0.01914,0.01914 0.02048,0.02048 0.03577,0.0015 0.05576,-0.0057 0.04449,-0.01722 -0.01129,-0.01148 -0.04047,-0.01339 -0.06497,-0.0019 z m 2.918284,0 c -0.02708,0.01148 -0.01914,0.01914 0.02048,0.02048 0.03577,0.0015 0.05576,-0.0057 0.04449,-0.01722 -0.01129,-0.01148 -0.04047,-0.01339 -0.06497,-0.0019 z m -3.087962,0.03388 c -0.02708,0.01148 -0.01914,0.01914 0.02048,0.02048 0.03577,0.0015 0.05576,-0.0057 0.04449,-0.01722 -0.01129,-0.01148 -0.04047,-0.01339 -0.06497,-0.0019 z m 3.257545,0 c -0.02708,0.01148 -0.01895,0.01914 0.02058,0.02048 0.03577,0.0015 0.05576,-0.0057 0.04449,-0.01722 -0.01129,-0.01148 -0.04057,-0.01339 -0.06507,-0.0019 z m -3.393309,0.03387 c -0.02708,0.01148 -0.01914,0.01914 0.02048,0.02048 0.03577,0.0015 0.05586,-0.0057 0.04459,-0.01722 -0.01129,-0.01148 -0.04057,-0.01339 -0.06507,-0.0019 z m 3.529072,0 c -0.02708,0.01148 -0.01914,0.01914 0.02048,0.02048 0.03577,0.0015 0.05586,-0.0057 0.04459,-0.01722 -0.01129,-0.01148 -0.04057,-0.01339 -0.06507,-0.0019 z m -3.664834,0.03388 c -0.02708,0.01148 -0.01895,0.01914 0.02058,0.02067 0.03577,0.0015 0.05576,-0.0057 0.04449,-0.01722 -0.01129,-0.01148 -0.04057,-0.01339 -0.06507,-0.0019 z m -0.689199,0.227878 c -0.01857,0 -0.0569,0.01531 -0.08489,0.03292 -0.028,0.01722 -0.03561,0.03292 -0.01703,0.03292 0.01857,0 0.05689,-0.01531 0.08489,-0.03292 0.028,-0.01722 0.03561,-0.03292 0.01703,-0.03292 z m 6.093987,0.41492 c -0.0015,0.0019 0.01435,0.01531 0.04593,0.04018 0.06924,0.05549 0.08688,0.06296 0.08688,0.03712 0,-0.0096 -0.03441,-0.03234 -0.07641,-0.05281 -0.03666,-0.01722 -0.05504,-0.0266 -0.0564,-0.02449 z m -7.671884,0.432335 c -0.0017,-0.0017 -0.0155,0.0077 -0.04248,0.02966 -0.03266,0.02564 -0.05937,0.05224 -0.05937,0.05932 0,0.02794 0.02788,0.0096 0.07222,-0.0465 0.02109,-0.02698 0.03139,-0.04057 0.02962,-0.04248 z m -0.278005,0.203593 c -0.0094,0 -0.04453,0.03062 -0.0783,0.06774 -0.03378,0.03731 -0.05383,0.06793 -0.04449,0.06793 0.0094,0 0.04463,-0.03062 0.0784,-0.06793 0.03378,-0.03731 0.05374,-0.06774 0.0444,-0.06774 z m -0.180152,0.15271 -0.110227,0.0997 c -0.06064,0.05473 -0.110323,0.104487 -0.110323,0.110419 0,0.02622 0.028,0.0038 0.120906,-0.0997 z m -0.325545,0.28839 c -0.0094,0 -0.07658,0.06105 -0.149475,0.135678 -0.07289,0.07463 -0.124905,0.135679 -0.115566,0.135679 0.0094,0 0.07658,-0.06105 0.149476,-0.135679 0.07289,-0.07463 0.124904,-0.135678 0.115565,-0.135678 z m 10.047497,0.101805 c -0.0017,0.0017 0.0086,0.01531 0.02962,0.04248 0.04434,0.05645 0.07222,0.07444 0.07222,0.0465 0,-0.0077 -0.02679,-0.03368 -0.05946,-0.05932 -0.02691,-0.02105 -0.04064,-0.03139 -0.04239,-0.02966 z m 0.186639,0.220549 0.116905,0.127259 c 0.06432,0.07004 0.121614,0.127258 0.127279,0.127258 0.02591,0 0.0015,-0.0287 -0.116907,-0.137592 z m -10.573969,0.05091 c -0.0094,0 -0.06874,0.05339 -0.132042,0.118838 -0.0633,0.06526 -0.107452,0.118647 -0.09813,0.118647 0.0094,0 0.06874,-0.05339 0.132042,-0.118647 0.0633,-0.06526 0.107472,-0.118838 0.09813,-0.118838 z m 10.845401,0.254574 0.06468,0.07636 c 0.06076,0.07176 0.08803,0.09186 0.08803,0.06469 0,-0.0057 -0.03431,-0.04076 -0.07631,-0.07636 z m -11.221444,0.18654 c -0.0094,0 -0.04462,0.03062 -0.0784,0.06793 -0.03378,0.03731 -0.05374,0.06793 -0.0444,0.06793 0.0094,0 0.04463,-0.03043 0.0784,-0.06793 0.03378,-0.03731 0.05374,-0.06793 0.0444,-0.06793 z m 11.374162,0 c -0.0017,0.0017 0.0086,0.01531 0.02962,0.04248 0.02562,0.03273 0.0523,0.05932 0.05935,0.05932 0.02792,0 0.01,-0.02794 -0.04658,-0.07214 -0.02691,-0.02106 -0.04064,-0.03139 -0.04239,-0.02966 z m 0.101848,0.135678 c -0.0017,0.0017 0.0084,0.01531 0.02952,0.04229 0.04432,0.05645 0.07222,0.07444 0.07222,0.0465 0,-0.0077 -0.02669,-0.03368 -0.05937,-0.05932 -0.02691,-0.02106 -0.04065,-0.03139 -0.04239,-0.02966 z m -11.673127,0.135679 c -0.0017,-0.0017 -0.0155,0.0077 -0.04239,0.02966 -0.03266,0.02564 -0.05944,0.05224 -0.05944,0.05932 0,0.02794 0.02789,0.0096 0.07222,-0.0465 0.02111,-0.02698 0.03139,-0.04057 0.02962,-0.04248 z m -0.184247,0.237523 c -0.0094,0 -0.03328,0.03043 -0.05326,0.06774 -0.01998,0.03732 -0.02876,0.06793 -0.01945,0.06793 0.0094,0 0.03337,-0.03062 0.05335,-0.06793 0.01998,-0.03731 0.02867,-0.06774 0.01935,-0.06774 z m -0.203596,0.339349 c -0.0094,0 -0.03328,0.03043 -0.05326,0.06774 -0.01998,0.03731 -0.02876,0.06793 -0.01944,0.06793 0.0094,0 0.03337,-0.03062 0.05335,-0.06793 0.01998,-0.03732 0.02866,-0.06774 0.01934,-0.06774 z m 12.585166,0.06774 c -0.0094,0 0.0067,0.04593 0.03573,0.101805 0.02896,0.05607 0.06023,0.101805 0.06954,0.101805 0.0094,0 -0.0067,-0.04574 -0.03563,-0.101805 -0.02895,-0.05607 -0.06032,-0.101805 -0.06964,-0.101805 z M 25.70241,22.009328 c 0,-0.01914 -0.01473,-0.01148 -0.03287,0.01722 -0.01818,0.02794 -0.03287,0.06603 -0.03287,0.08477 0,0.01914 0.01474,0.01148 0.03287,-0.01722 0.01818,-0.02794 0.03287,-0.06603 0.03287,-0.08477 z m -0.101752,0.237505 c 0,-0.01914 -0.01474,-0.01148 -0.03288,0.01722 -0.01818,0.02794 -0.03295,0.06622 -0.03295,0.08496 0,0.01914 0.01493,0.01148 0.03295,-0.01722 0.01818,-0.02794 0.03288,-0.06622 0.03288,-0.08496 z m -0.328785,0.878121 c -0.0036,0.0038 -0.0062,0.01531 -0.0069,0.03522 -0.0015,0.03579 0.0065,0.05588 0.0178,0.04459 0.01129,-0.01148 0.01244,-0.04057 0.0027,-0.06507 -0.0053,-0.01339 -0.01011,-0.01914 -0.01359,-0.01531 z m -0.034,0.135678 c -0.0036,0.0038 -0.006,0.01531 -0.0067,0.03522 -0.0015,0.03579 0.0065,0.05569 0.0178,0.04459 0.01129,-0.01148 0.01244,-0.04057 0.0027,-0.06507 -0.0053,-0.01339 -0.01011,-0.01914 -0.01378,-0.01531 z m 14.048449,0 c -0.0036,0.0038 -0.006,0.01531 -0.0067,0.03522 -0.0015,0.03579 0.0065,0.05569 0.0178,0.04459 0.01129,-0.01148 0.01244,-0.04057 0.0027,-0.06507 -0.0053,-0.01339 -0.01011,-0.01914 -0.01378,-0.01531 z m -14.08237,0.135685 c -0.0036,0.0038 -0.006,0.01531 -0.0067,0.03522 -0.0015,0.03579 0.0065,0.05569 0.0178,0.04459 0.01129,-0.01148 0.01244,-0.04057 0.0027,-0.06507 -0.0053,-0.0134 -0.01011,-0.01914 -0.01378,-0.01531 z m -0.03393,0.169741 c -0.0038,0.0038 -0.0057,0.01531 -0.0077,0.03522 -0.0015,0.03579 0.0057,0.05588 0.0178,0.04459 0.01129,-0.01148 0.01244,-0.04057 0.0027,-0.06507 -0.0053,-0.01339 -0.01011,-0.01914 -0.01378,-0.01531 z m -0.03311,0.177205 c -0.0038,0.0077 -0.0057,0.02411 -0.0057,0.04746 0,0.04669 0.0077,0.06583 0.01722,0.04248 0.0096,-0.02334 0.0096,-0.06143 0,-0.08477 -0.0038,-0.01148 -0.0096,-0.01339 -0.01148,-0.0057 z m -0.03387,0.203594 c -0.0038,0.0077 -0.0057,0.02411 -0.0057,0.04746 0,0.04669 0.0077,0.06564 0.01722,0.04248 0.0096,-0.02334 0.0096,-0.06143 0,-0.08477 -0.0038,-0.01148 -0.0096,-0.01339 -0.01148,-0.0057 z m -0.02086,0.29344 c -0.0077,-0.03272 -0.01531,-0.0057 -0.01531,0.05952 0,0.06526 0.0077,0.09205 0.01531,0.05932 0.0077,-0.03273 0.0077,-0.08611 0,-0.11884 z m 14.387705,0.03388 c -0.0086,-0.03273 -0.0155,-0.0057 -0.0155,0.05952 0,0.06526 0.0071,0.09205 0.0155,0.05932 0.0086,-0.03273 0.0086,-0.08611 0,-0.11884 z m 0.03573,0.526009 c -0.0067,-0.116734 -0.01205,-0.02125 -0.01205,0.212072 0,0.233293 0.0055,0.328709 0.01205,0.212071 0.0067,-0.116542 0.0067,-0.307506 0,-0.424143 z m -0.03573,0.831332 c -0.0086,-0.03273 -0.0155,-0.0057 -0.0155,0.05952 0,0.06526 0.0071,0.09205 0.0155,0.05932 0.0086,-0.03273 0.0086,-0.08611 0,-0.118838 z m -14.387705,0.03407 c -0.0077,-0.03273 -0.01531,-0.0057 -0.01531,0.05932 0,0.06526 0.0077,0.09205 0.01531,0.05932 0.0077,-0.03273 0.0077,-0.08611 0,-0.118647 z m 0.02086,0.317247 c -0.0038,0.0077 -0.0057,0.02411 -0.0057,0.04746 0,0.04669 0.0077,0.06583 0.01722,0.04248 0.0096,-0.02334 0.0096,-0.06162 0,-0.08496 -0.0038,-0.01148 -0.0096,-0.0134 -0.01148,-0.0057 z m 0.03387,0.203594 c -0.0038,0.0077 -0.0057,0.0243 -0.0057,0.04746 0,0.04669 0.0077,0.06564 0.01722,0.04248 0.0096,-0.02334 0.0096,-0.06162 0,-0.08496 -0.0038,-0.01148 -0.0096,-0.01339 -0.01148,-0.0057 z m 0.03311,0.196073 c -0.0038,0.0038 -0.0057,0.01531 -0.0077,0.03522 -0.0015,0.03579 0.0057,0.05569 0.0178,0.0444 0.01129,-0.01148 0.01244,-0.04057 0.0027,-0.06507 -0.0053,-0.0134 -0.01011,-0.01914 -0.01378,-0.01531 z m 0.03393,0.169742 c -0.0036,0.0038 -0.006,0.01531 -0.0067,0.03522 -0.0015,0.03579 0.0065,0.05569 0.0178,0.0444 0.01129,-0.01148 0.01244,-0.04057 0.0027,-0.06507 -0.0053,-0.01339 -0.01011,-0.01914 -0.01378,-0.01531 z m 0.03391,0.135679 c -0.0036,0.0038 -0.006,0.01531 -0.0067,0.03522 -0.0015,0.03579 0.0065,0.05588 0.0178,0.04459 0.01129,-0.01148 0.01244,-0.04057 0.0027,-0.06507 -0.0053,-0.01339 -0.01011,-0.01914 -0.01378,-0.01531 z m 14.048449,0 c -0.0036,0.0038 -0.006,0.01531 -0.0067,0.03522 -0.0015,0.03579 0.0065,0.05588 0.0178,0.04459 0.01129,-0.01148 0.01244,-0.04057 0.0027,-0.06507 -0.0053,-0.01339 -0.01011,-0.01914 -0.01378,-0.01531 z m -14.014435,0.135672 c -0.0036,0.0038 -0.0062,0.01531 -0.0069,0.03522 -0.0015,0.03579 0.0065,0.05588 0.0178,0.04459 0.01129,-0.01148 0.01244,-0.04057 0.0027,-0.06507 -0.0053,-0.01339 -0.01011,-0.01914 -0.01359,-0.01531 z m 0.264287,0.841914 c -0.0033,0.0077 0.0024,0.03445 0.01895,0.07712 0.01167,0.03043 0.02822,0.04804 0.03697,0.03923 0.0088,-0.0096 -2.47e-4,-0.04382 -0.02011,-0.07789 -0.02001,-0.03445 -0.0324,-0.04612 -0.03573,-0.03865 z m 13.332474,0.315917 c 0,-0.01914 -0.01473,-0.01148 -0.03285,0.01722 -0.01818,0.02794 -0.03297,0.06622 -0.03297,0.08477 0,0.01914 0.01493,0.01148 0.03297,-0.01722 0.01818,-0.02794 0.03285,-0.06622 0.03285,-0.08496 z m -0.183864,0.356304 c -0.0094,0 -0.04059,0.04593 -0.06954,0.101806 -0.02895,0.05607 -0.04507,0.101805 -0.03573,0.101805 0.0094,0 0.04068,-0.04574 0.06964,-0.101805 0.02895,-0.05607 0.04495,-0.101806 0.03563,-0.101806 z M 25.921638,28.4736 c -0.0094,0 -4.94e-4,0.03043 0.01944,0.06774 0.01998,0.03731 0.04392,0.06794 0.05326,0.06794 0.0094,0 7.38e-4,-0.03062 -0.01934,-0.06794 -0.01998,-0.03731 -0.04401,-0.06774 -0.05335,-0.06774 z m 12.59412,0.169742 c -0.0094,0 -0.03328,0.03043 -0.05326,0.06774 -0.01998,0.03731 -0.02866,0.06793 -0.01935,0.06793 0.0094,0 0.03328,-0.03062 0.05326,-0.06793 0.01998,-0.03732 0.02867,-0.06774 0.01935,-0.06774 z M 26.11828,28.817484 c -0.0013,0.0019 0.01053,0.02277 0.03372,0.06354 0.02666,0.04669 0.05971,0.103912 0.07344,0.127259 0.01378,0.02334 0.03227,0.04248 0.04116,0.04248 0.02226,0 -0.03721,-0.104486 -0.106135,-0.186582 -0.02734,-0.03253 -0.04111,-0.0488 -0.04219,-0.0465 z m 0.162049,0.267052 c -0.0017,0.0017 0.0086,0.01531 0.02962,0.04248 0.04434,0.05645 0.07222,0.07444 0.07222,0.0465 0,-0.0077 -0.02669,-0.03368 -0.05937,-0.05932 -0.02691,-0.02106 -0.04074,-0.03139 -0.04248,-0.02966 z m 0.152729,0.220568 0.06469,0.07636 c 0.03556,0.0421 0.06987,0.07636 0.07631,0.07636 0.02715,0 0.0071,-0.02736 -0.0647,-0.08803 z m 11.622251,0.05091 c -0.0017,-0.0017 -0.0155,0.0077 -0.0425,0.02947 -0.03266,0.02564 -0.05935,0.05244 -0.05935,0.05951 0,0.02794 0.02788,0.0096 0.07222,-0.0465 0.02113,-0.02698 0.03139,-0.04057 0.02962,-0.04248 z m -0.108333,0.135674 c -0.0094,0 -0.04453,0.03062 -0.0783,0.06794 -0.03378,0.03731 -0.05383,0.06774 -0.04449,0.06774 0.0094,0 0.04463,-0.03043 0.0784,-0.06774 0.03378,-0.03732 0.05374,-0.06794 0.0444,-0.06794 z m -11.242494,0.15271 0.117001,0.127259 c 0.108849,0.118455 0.137573,0.142758 0.137573,0.116925 0,-0.0057 -0.05729,-0.06296 -0.127277,-0.127259 z m 11.075673,0.05091 c -0.0094,0 -0.06874,0.05339 -0.132043,0.118838 -0.0633,0.06526 -0.107566,0.118647 -0.09823,0.118647 0.0094,0 0.06883,-0.05339 0.132137,-0.118647 0.0633,-0.06526 0.107471,-0.118838 0.09814,-0.118838 z m -10.770232,0.288485 0.134148,0.144097 c 0.124751,0.134148 0.154336,0.159792 0.154336,0.134148 0,-0.0057 -0.06493,-0.07042 -0.144252,-0.144098 z m 10.434589,0.08477 c -0.0017,-0.0017 -0.0155,0.0077 -0.04248,0.02966 -0.03266,0.02564 -0.05937,0.05225 -0.05937,0.05932 0,0.02794 0.02789,0.0096 0.07222,-0.0465 0.02111,-0.02698 0.03139,-0.04057 0.02962,-0.04248 z m -0.240754,0.203614 c -0.0094,0 -0.07658,0.06105 -0.149475,0.135679 -0.07289,0.07463 -0.125001,0.135678 -0.115662,0.135678 0.0094,0 0.07668,-0.06105 0.149572,-0.135678 0.07289,-0.07463 0.124904,-0.135679 0.115565,-0.135679 z m -9.820558,0.05091 0.09967,0.110227 c 0.09291,0.102762 0.120904,0.125918 0.120904,0.0997 0,-0.0057 -0.04957,-0.05549 -0.110227,-0.110227 z m 9.511877,0.220645 c -0.0094,0 -0.04463,0.03062 -0.0784,0.06774 -0.03378,0.03731 -0.05374,0.06774 -0.0444,0.06774 0.0094,0 0.04454,-0.03043 0.0783,-0.06774 0.03378,-0.03732 0.05383,-0.06774 0.04449,-0.06774 z m -9.223489,0.03388 c -0.0017,0.0017 0.0086,0.01531 0.02962,0.04248 0.04434,0.05645 0.07222,0.07444 0.07222,0.0465 0,-0.0077 -0.02669,-0.03368 -0.05937,-0.05932 -0.02691,-0.02106 -0.04075,-0.03139 -0.04248,-0.02966 z m 9.053809,0.101805 c -0.0094,0 -0.04463,0.03062 -0.0784,0.06794 -0.03378,0.03731 -0.05374,0.06774 -0.0444,0.06774 0.0094,0 0.04463,-0.03043 0.0784,-0.06774 0.03378,-0.03731 0.05374,-0.06794 0.0444,-0.06794 z m -8.884129,0.03388 c -0.0017,0.0017 0.0084,0.01531 0.02962,0.04248 0.04434,0.05645 0.07222,0.07444 0.07222,0.0465 0,-0.0077 -0.02669,-0.03387 -0.05937,-0.05952 -0.02691,-0.02105 -0.04074,-0.03139 -0.04248,-0.02966 z m 0.135756,0.101805 c -0.0017,0.0017 0.0084,0.01531 0.02962,0.04248 0.04432,0.05645 0.07222,0.07444 0.07222,0.0465 0,-0.0077 -0.02679,-0.03368 -0.05946,-0.05932 -0.02691,-0.02105 -0.04064,-0.03139 -0.04239,-0.02966 z m 8.483317,0.06774 c -0.0017,-0.0017 -0.0155,0.0077 -0.04239,0.02966 -0.03266,0.02564 -0.05937,0.05224 -0.05937,0.05932 0,0.02794 0.02788,0.0096 0.07222,-0.0465 0.02113,-0.02698 0.03129,-0.04076 0.02952,-0.04248 z m -0.237512,0.184286 c 0,-0.0096 -0.0305,-7.27e-4 -0.06783,0.01933 -0.03733,0.01991 -0.06783,0.04401 -0.06783,0.05339 0,0.0096 0.0305,7.46e-4 0.06783,-0.01933 0.03733,-0.01991 0.06783,-0.04401 0.06783,-0.05339 z m -0.339265,0.203595 c 0,-0.0096 -0.0306,-4.79e-4 -0.06793,0.01952 -0.03733,0.0201 -0.06784,0.04401 -0.06784,0.05319 0,0.0096 0.0305,7.27e-4 0.06784,-0.01933 0.03733,-0.01991 0.06793,-0.04401 0.06793,-0.05339 z m -0.66176,0.325839 c -0.01856,0 -0.0568,0.01531 -0.08479,0.03292 -0.02799,0.01722 -0.03561,0.03292 -0.01703,0.03292 0.01856,0 0.0568,-0.01531 0.08479,-0.03292 0.02799,-0.01723 0.03561,-0.03292 0.01703,-0.03292 z m -4.740075,0.41691 c -0.02708,0.01148 -0.01914,0.01914 0.02048,0.02048 0.03577,0.0015 0.05586,-0.0057 0.04459,-0.01722 -0.01129,-0.01148 -0.04057,-0.01339 -0.06507,-0.0019 z m 3.529071,0 c -0.02708,0.01148 -0.01914,0.01914 0.02048,0.02048 0.03577,0.0015 0.05586,-0.0057 0.04459,-0.01722 -0.01129,-0.01148 -0.04057,-0.01339 -0.06507,-0.0019 z m -3.393308,0.03388 c -0.02708,0.01148 -0.01914,0.01914 0.02048,0.02067 0.03577,0.0015 0.05576,-0.0057 0.04449,-0.01722 -0.01129,-0.01148 -0.04047,-0.0134 -0.06497,-0.0019 z m 3.257545,0 c -0.02708,0.01148 -0.01895,0.01914 0.02058,0.02067 0.03577,0.0015 0.05576,-0.0057 0.04449,-0.01722 -0.01129,-0.01148 -0.04057,-0.0134 -0.06507,-0.0019 z m -3.087867,0.03407 c -0.02706,0.01148 -0.01914,0.01914 0.02048,0.02048 0.03577,0.0015 0.05577,-0.0057 0.04449,-0.01723 -0.01129,-0.01148 -0.04047,-0.01339 -0.06497,-0.0019 z m 2.918284,0 c -0.02708,0.01148 -0.01914,0.01914 0.02048,0.02048 0.03577,0.0015 0.05576,-0.0057 0.04449,-0.01723 -0.01129,-0.01148 -0.04047,-0.01339 -0.06497,-0.0019 z m -2.748603,0.03388 c -0.02705,0.01148 -0.01914,0.01914 0.02048,0.02048 0.03577,0.0015 0.05576,-0.0057 0.04449,-0.01722 -0.01129,-0.01148 -0.04047,-0.01339 -0.06497,-0.0019 z m 2.578923,0 c -0.02708,0.01148 -0.01914,0.01914 0.02048,0.02048 0.03577,0.0015 0.05576,-0.0057 0.04449,-0.01722 -0.01129,-0.01148 -0.04047,-0.01339 -0.06497,-0.0019 z m -0.22208,0.03349 c -0.03301,0.0096 -0.01416,0.01531 0.04181,0.01723 0.05599,7.27e-4 0.083,-0.0057 0.06004,-0.01531 -0.02297,-0.0096 -0.06883,-0.0096 -0.101848,-0.0013 z m -2.155438,9.77e-4 c -0.02333,0.0096 -0.0043,0.01722 0.04248,0.01722 0.04665,0 0.06574,-0.0077 0.04239,-0.01722 -0.02333,-0.0096 -0.06156,-0.0096 -0.08489,0 z m 0.221222,0.03292 c -0.03301,0.0077 -0.01416,0.01531 0.04183,0.01723 0.05599,7.27e-4 0.083,-0.0057 0.06004,-0.01531 -0.02297,-0.0096 -0.06883,-0.0096 -0.101848,-0.0013 z m 1.662117,1.91e-4 c -0.03266,0.0077 -0.006,0.01531 0.05937,0.01531 0.06531,0 0.0921,-0.0077 0.05946,-0.01531 -0.03266,-0.0077 -0.08615,-0.0077 -0.1188,0 z m -0.44111,0.03292 c -0.05132,0.0077 -0.0094,0.0134 0.09327,0.0134 0.102646,0 0.144693,-0.0057 0.09337,-0.0134 -0.05132,-0.0077 -0.135314,-0.0077 -0.18664,0 z m -7.575669,0.0243 -3.741243,0.0077 -3.741148,0.0077 3.724193,0.0096 3.604053,0.0077 h -3.65865 c -2.38088,0 -3.911253,0.0134 -4.13253,0.03541 -0.0731,0.0077 -0.144672,0.01971 -0.217123,0.02928 0.03368,7.28e-4 0.05415,-0.0057 0.04325,-0.01722 -0.01148,-0.01148 -0.04057,-0.01339 -0.06507,-0.0019 -0.0266,0.01148 -0.01914,0.01914 0.01933,0.02029 -0.07597,0.0096 -0.152327,0.01914 -0.22761,0.03062 0.02334,-0.0017 0.04478,-0.0057 0.03579,-0.01339 -0.01148,-0.01148 -0.04057,-0.0134 -0.06507,-0.0019 -0.0243,0.0096 -0.01722,0.01722 0.01339,0.01914 -1.152923,0.189835 -2.228151,0.646933 -3.171413,1.352192 -0.06047,0.04516 -0.134339,0.110036 -0.20369,0.168403 0.01148,-0.0096 0.02717,-0.02372 0.04689,-0.0488 0.04229,-0.05377 0.04095,-0.05511 -0.01339,-0.0134 -0.03273,0.02564 -0.05932,0.05224 -0.05932,0.05932 0,0.01339 0.0077,0.01531 0.01914,0.0077 -0.404643,0.340326 -0.91781,0.853493 -1.161552,1.176327 -0.0038,0.0057 -0.0077,0.01148 -0.01148,0.01723 -0.0019,-9.76e-4 -0.01531,0.0077 -0.04095,0.02851 -0.03273,0.02564 -0.05932,0.05224 -0.05932,0.05932 0,0.02679 0.0266,0.0096 0.06774,-0.0421 -0.81298,1.097828 -1.290955,2.30439 -1.428126,3.616721 -0.04823,0.460829 -0.02105,1.479203 0.05014,1.884477 0.0019,0.01531 0.0057,0.0289 0.0096,0.04363 -0.0096,-0.02411 -0.01722,-0.01722 -0.01952,0.02143 -0.0015,0.03579 0.0057,0.05588 0.01722,0.04459 0.01148,-0.01148 0.01148,-0.03846 0.0019,-0.06239 0.21278,1.169266 0.671829,2.236246 1.359158,3.152257 0.02181,0.02909 0.05817,0.06965 0.08496,0.102955 -0.0096,-0.0096 -0.01531,-0.01914 -0.03349,-0.03215 -0.05377,-0.04229 -0.05492,-0.04114 -0.01339,0.0134 0.02564,0.03273 0.05224,0.05951 0.05932,0.05951 0.01148,0 0.0096,-0.0077 0.0077,-0.01531 0.05014,0.06105 0.09702,0.119221 0.158834,0.188878 -0.01148,-0.0134 -0.0287,-0.03139 -0.05952,-0.05741 l -0.07636,-0.06449 0.06469,0.07636 c 0.0356,0.0421 0.06985,0.07636 0.07636,0.07636 0.0134,0 0.0134,-0.0077 0.0038,-0.02029 0.278802,0.312922 0.646301,0.682794 0.892608,0.888225 0.548244,0.457289 1.34735,0.922768 2.039674,1.188135 0.60975,0.233734 1.488388,0.415761 2.241374,0.464923 -0.01722,9.95e-4 -0.03693,-0.0019 -0.05109,0 -0.0421,0.0077 -0.0077,0.01531 0.07636,0.01531 0.05148,0 0.03884,-0.0057 0.04689,-0.0096 0.06469,0.0038 0.137975,0.0096 0.158451,0.01148 0.107356,0.0134 0.975641,-0.0666 1.270842,-0.115586 0.0038,-4.97e-4 0.0057,-0.0015 0.0096,-0.0019 -0.02277,0.0096 -0.01531,0.01722 0.02182,0.01933 0.03579,0.0015 0.05588,-0.0057 0.04459,-0.01722 -0.01148,-0.01148 -0.03769,-0.0096 -0.06124,-0.0019 1.47924,-0.249255 2.852885,-0.961615 3.917109,-2.032748 0.140079,-0.140845 0.271644,-0.285595 0.397372,-0.433195 0.0038,0.02106 0.02813,0.0057 0.06984,-0.04765 0.0421,-0.05377 0.04095,-0.05492 -0.01339,-0.0134 -0.02392,0.01914 -0.03387,0.03158 -0.04325,0.04344 0.80701,-0.953042 1.322856,-2.05064 1.586673,-3.376462 0.0015,-0.0077 0.0019,-0.01339 0.0038,-0.02105 0.0038,0.0096 0.0038,0.02966 0.0096,0.02373 0.01148,-0.01148 0.01339,-0.04057 0.0019,-0.06507 -0.0019,-0.0057 -0.0038,-0.0019 -0.0057,-0.0057 0.0096,-0.04976 0.01722,-0.103337 0.02487,-0.161896 0.0038,0.01531 0.0038,0.03579 0.01148,0.02851 0.01148,-0.01148 0.01339,-0.04038 0.0019,-0.06488 -0.0038,-0.0077 -0.0057,-0.0057 -0.0077,-0.0077 0.0333,-0.349014 0.03598,-1.097217 0.04382,-4.151112 l 0.0077,-3.126824 v 2.863983 c 0,2.080875 0.0077,3.78344 0.01722,3.78344 0.0096,0 0.01722,-1.7102 0.01722,-3.800511 z m -7.898058,0.04459 c -0.03273,0.0077 -0.0057,0.01531 0.05932,0.01531 0.06526,0 0.09205,-0.0077 0.05951,-0.01531 -0.03273,-0.0077 -0.08611,-0.0077 -0.118839,0 z m -3.985139,1.652215 c -0.0096,0 -0.04459,0.03043 -0.07846,0.06775 -0.03388,0.03731 -0.05377,0.06793 -0.0444,0.06793 0.0096,0 0.04459,-0.03062 0.07827,-0.06793 0.03368,-0.03732 0.05377,-0.06775 0.0444,-0.06775 z m -0.135678,0.101806 c -0.0096,0 -0.04459,0.03043 -0.07846,0.06774 -0.03388,0.03731 -0.05377,0.06774 -0.04459,0.06774 0.0096,0 0.04459,-0.03043 0.07846,-0.06774 0.03388,-0.03731 0.05377,-0.06774 0.04459,-0.06774 z m -0.131469,0.135678 c -0.0096,0 -0.107548,0.09167 -0.218463,0.203594 -0.110802,0.111949 -0.193778,0.203595 -0.184477,0.203595 0.0096,0 0.107547,-0.09167 0.218368,-0.203595 0.1108,-0.111949 0.193872,-0.203594 0.184476,-0.203594 z m -0.411475,0.407189 c -0.0096,0 -0.04459,0.03062 -0.07846,0.06793 -0.03368,0.03731 -0.05377,0.06774 -0.0444,0.06774 0.0096,0 0.04459,-0.03062 0.07846,-0.06774 0.03388,-0.03731 0.05377,-0.06793 0.04459,-0.06793 z m -0.101805,0.135869 c -0.0096,0 -0.04459,0.03043 -0.07846,0.06774 -0.03387,0.03732 -0.05377,0.06793 -0.0444,0.06793 0.0096,0 0.04459,-0.03062 0.07827,-0.06793 0.03387,-0.03731 0.05377,-0.06774 0.04459,-0.06774 z m -0.197126,0.237505 c -0.0017,-0.0017 -0.01531,0.0077 -0.04248,0.02966 -0.03273,0.02564 -0.05932,0.05224 -0.05932,0.05932 0,0.02794 0.02794,0.0096 0.07214,-0.0465 0.02106,-0.02698 0.03139,-0.04057 0.02966,-0.04248 z m -1.483584,3.100817 c -0.0038,0.0038 -0.0057,0.01531 -0.0077,0.03522 -0.0015,0.03578 0.0057,0.05569 0.01722,0.0444 0.01148,-0.01148 0.01339,-0.04057 0.0019,-0.06507 -0.0057,-0.01339 -0.0096,-0.01914 -0.01339,-0.01531 z m -0.06793,0.407209 c -0.0038,0.0038 -0.0057,0.01531 -0.0077,0.03522 -0.0015,0.03579 0.0057,0.05568 0.01722,0.04459 0.01148,-0.01148 0.01339,-0.04057 0.0019,-0.06507 -0.0057,-0.01339 -0.0096,-0.01914 -0.0134,-0.01531 z m -0.03387,0.169741 c -0.0038,0.0038 -0.0057,0.01531 -0.0077,0.03522 -0.0015,0.03579 0.0057,0.05588 0.01722,0.0444 0.01148,-0.01148 0.01339,-0.04057 0.0019,-0.06507 -0.0057,-0.01339 -0.0096,-0.01914 -0.0134,-0.01531 z m 0.0019,0.119413 c -0.0038,0.0077 -0.0057,0.02622 -0.0057,0.05434 -7.45e-4,0.05607 0.0057,0.08305 0.01531,0.06009 0.0096,-0.02296 0.0096,-0.0687 0.0013,-0.101805 -0.0038,-0.01723 -0.0077,-0.0201 -0.01148,-0.0134 z m -0.0356,0.227419 c -0.0038,0.0077 -0.0057,0.02411 -0.0057,0.04746 0,0.04669 0.0077,0.06564 0.01722,0.04248 0.0096,-0.02335 0.0096,-0.06143 0,-0.08477 -0.0038,-0.01148 -0.0096,-0.01339 -0.01148,-0.0057 z m 0.01531,0.311735 c -0.0057,-0.117307 -0.01148,-0.03024 -0.01148,0.193777 -5.7e-5,0.223956 0.0057,0.320098 0.01148,0.213507 0.0077,-0.106591 0.0077,-0.2899 9.6e-5,-0.407284 z m 14.44268,0.580681 c -0.0038,0.0077 -0.0057,0.02641 -0.0057,0.05434 -7.46e-4,0.05607 0.0057,0.08305 0.01531,0.06009 0.0096,-0.02296 0.0096,-0.06889 0.0013,-0.101806 -0.0038,-0.01722 -0.0077,-0.0201 -0.01148,-0.01339 z m -14.457358,0.02392 c -0.0038,0.0077 -0.0057,0.02411 -0.0057,0.04746 0,0.04669 0.0077,0.06583 0.01722,0.04248 0.0096,-0.02335 0.0096,-0.06143 0,-0.08477 -0.0038,-0.01148 -0.0096,-0.01339 -0.01148,-0.0057 z m 0.0356,0.213699 c -0.0038,0.0077 -0.0057,0.02641 -0.0057,0.05434 -7.46e-4,0.05607 0.0057,0.08305 0.01531,0.06009 0.0096,-0.02296 0.0096,-0.06889 0.0013,-0.101805 -0.0038,-0.01723 -0.0077,-0.0201 -0.01148,-0.0134 z m 14.387815,0.03407 c -0.0038,0.0077 -0.0057,0.02622 -0.0057,0.05415 -7.47e-4,0.05607 0.0057,0.08305 0.01531,0.06009 0.0096,-0.02296 0.0096,-0.0687 0.0013,-0.101806 -0.0038,-0.01722 -0.0077,-0.0201 -0.01148,-0.01339 z M 10.57865,40.261538 c -0.0038,0.0038 -0.0057,0.01531 -0.0077,0.03522 -0.0015,0.03579 0.0057,0.05568 0.01722,0.0444 0.01148,-0.01148 0.01339,-0.04057 0.0019,-0.06507 -0.0057,-0.0134 -0.0096,-0.01914 -0.0134,-0.01531 z m 14.387795,0.03387 c -0.0038,0.0038 -0.0057,0.01531 -0.0077,0.03522 -0.0015,0.03579 0.0057,0.05588 0.01722,0.04459 0.01148,-0.01148 0.01339,-0.04057 0.0019,-0.06507 -0.0057,-0.01339 -0.0096,-0.01914 -0.01339,-0.01531 z m -14.353886,0.135678 c -0.0038,0.0038 -0.0057,0.01531 -0.0077,0.03521 -0.0015,0.03578 0.0057,0.05588 0.01722,0.04459 0.01148,-0.01148 0.0134,-0.04057 0.0019,-0.06507 -0.0057,-0.01339 -0.0096,-0.01914 -0.01339,-0.01531 z m 0.101806,0.576873 c -0.0038,0.0038 -0.0057,0.01531 -0.0077,0.03522 -0.0015,0.03579 0.0057,0.05568 0.01722,0.0444 0.01148,-0.01148 0.0134,-0.04057 0.0019,-0.06507 -0.0057,-0.0134 -0.0096,-0.01914 -0.01339,-0.01531 z m 12.613757,3.142938 c -0.0017,-0.0017 -0.01531,0.0077 -0.04248,0.02966 -0.03273,0.02564 -0.05932,0.05224 -0.05932,0.05932 0,0.02794 0.02775,0.0096 0.07214,-0.0465 0.02104,-0.02698 0.03139,-0.04076 0.02966,-0.04248 z m -11.062353,0.03407 c -0.0017,0.0017 0.0077,0.01531 0.02966,0.04248 0.02564,0.03273 0.05225,0.05932 0.05932,0.05932 0.0057,0 0.0019,-0.0057 0.0038,-0.0096 l 0.29677,0.305822 c 0.282992,0.291527 0.323064,0.329303 0.323064,0.304674 0,-0.0057 -0.141228,-0.146395 -0.313916,-0.313917 L 12.358644,44.27688 c 0.0057,-0.0096 -0.0077,-0.02909 -0.05033,-0.06315 -0.02698,-0.02105 -0.04076,-0.03139 -0.04248,-0.02947 z m 10.957349,0.06774 c -0.0096,0 -0.07655,0.06105 -0.149456,0.135869 -0.07291,0.07463 -0.124962,0.13568 -0.115585,0.13568 0.0096,0 0.07674,-0.06105 0.149648,-0.13568 0.07291,-0.07463 0.124962,-0.135869 0.115585,-0.135869 z m -0.239513,0.271434 c -0.0096,0 -0.05281,0.03827 -0.09664,0.08496 -0.04382,0.04669 -0.07214,0.08477 -0.06277,0.08477 0.0096,0 0.05281,-0.03808 0.09664,-0.08477 0.04382,-0.04669 0.07195,-0.08496 0.06277,-0.08496 z m -0.167637,0.135678 c -0.0096,0 -0.07674,0.06105 -0.149648,0.13587 -0.07291,0.07463 -0.124962,0.135678 -0.115585,0.135678 0.0096,0 0.07674,-0.06105 0.149648,-0.135678 0.07291,-0.07463 0.124963,-0.13587 0.115585,-0.13587 z m -9.837514,0.237523 c -0.0017,0.0017 0.0077,0.01531 0.02966,0.04229 0.02564,0.03272 0.05224,0.05951 0.05932,0.05951 0.02794,0 0.0096,-0.02794 -0.0465,-0.07214 -0.02698,-0.02105 -0.04057,-0.03139 -0.04248,-0.02966 z m 0.08477,0.05091 0.06469,0.07636 c 0.0356,0.0421 0.06985,0.07636 0.07636,0.07636 0.02717,0 0.0077,-0.02736 -0.06469,-0.08803 z m 9.38258,0.05091 c -0.0017,-0.0017 -0.01531,0.0077 -0.04229,0.02947 -0.03273,0.02564 -0.05932,0.05243 -0.05932,0.05952 0,0.02794 0.02794,0.0096 0.07214,-0.0465 0.02104,-0.02698 0.03139,-0.04057 0.02947,-0.04248 z m -9.162032,0.135654 c -0.0017,0.0017 0.0077,0.01531 0.02966,0.04248 0.02564,0.03272 0.05225,0.05932 0.05932,0.05932 0.02794,0 0.0096,-0.02794 -0.0465,-0.07214 -0.02698,-0.02105 -0.04076,-0.03139 -0.04248,-0.02966 z m 8.992366,0 c -0.0017,-0.0017 -0.01531,0.0077 -0.04248,0.02966 -0.03273,0.02564 -0.05932,0.05224 -0.05932,0.05932 0,0.02794 0.02794,0.0096 0.07214,-0.0465 0.02105,-0.02698 0.03139,-0.04076 0.02947,-0.04248 z m -5.741115,1.469958 c -0.02698,0.01148 -0.01914,0.01914 0.02067,0.02048 0.03579,0.0015 0.05569,-0.0057 0.0444,-0.01722 -0.01148,-0.01148 -0.04057,-0.0134 -0.06507,-0.0019 z m 2.239672,0.03387 c -0.02717,0.01148 -0.01914,0.01914 0.02048,0.02048 0.03579,0.0015 0.05569,-0.0057 0.04459,-0.01722 -0.01148,-0.01148 -0.04057,-0.01339 -0.06507,-0.0019 z m -2.038163,7.46e-4 c -0.02334,0.0096 -0.0038,0.01722 0.04229,0.01722 0.04669,0 0.06583,-0.0077 0.04248,-0.01722 -0.02334,-0.0096 -0.06162,-0.0096 -0.08496,0 z m 0.289058,0.03292 c -0.03311,0.0096 -0.0134,0.01531 0.04191,0.01722 0.05607,7.27e-4 0.08305,-0.0057 0.06009,-0.01531 -0.02296,-0.0096 -0.06889,-0.0096 -0.101806,-0.0013 z m 1.425275,0 c -0.03311,0.0096 -0.01339,0.01531 0.04172,0.01722 0.05607,7.27e-4 0.08305,-0.0057 0.06009,-0.01531 -0.02296,-0.0096 -0.0687,-0.0096 -0.101805,-0.0013 z m -0.458742,0.03349 c -0.04191,0.0077 -0.0077,0.01531 0.07636,0.01531 0.08401,0 0.118264,-0.0057 0.07636,-0.01531 -0.0421,-0.0077 -0.11061,-0.0077 -0.15271,0 z m -0.746557,0.0015 c -0.02334,0.0096 -0.0038,0.01723 0.04248,0.01723 0.04669,0 0.06564,-0.0077 0.04229,-0.01723 -0.02334,-0.0096 -0.06143,-0.0096 -0.08477,0 z m 0.984061,0 c -0.02334,0.0096 -0.0038,0.01723 0.04248,0.01723 0.04669,0 0.06564,-0.0077 0.04229,-0.01723 -0.02334,-0.0096 -0.06143,-0.0096 -0.08477,0 z" />
</svg>
