<?xml version="1.0" encoding="UTF-8" standalone="no"?>
<svg
   id="Layer_1"
   data-name="Layer 1"
   viewBox="0 0 50.000001 50"
   version="1.1"
   sodipodi:docname="github.svg"
   width="50"
   height="50"
   inkscape:version="1.1.2 (0a00cf5339, 2022-02-04, custom)"
   xmlns:inkscape="http://www.inkscape.org/namespaces/inkscape"
   xmlns:sodipodi="http://sodipodi.sourceforge.net/DTD/sodipodi-0.dtd"
   xmlns="http://www.w3.org/2000/svg"
   xmlns:svg="http://www.w3.org/2000/svg"
   xmlns:rdf="http://www.w3.org/1999/02/22-rdf-syntax-ns#"
   xmlns:cc="http://creativecommons.org/ns#"
   xmlns:dc="http://purl.org/dc/elements/1.1/">
  <sodipodi:namedview
     id="namedview5369"
     pagecolor="#505050"
     bordercolor="#ffffff"
     borderopacity="1"
     inkscape:pageshadow="0"
     inkscape:pageopacity="0"
     inkscape:pagecheckerboard="1"
     showgrid="false"
     inkscape:zoom="24.058956"
     inkscape:cx="1.8704053"
     inkscape:cy="31.796891"
     inkscape:window-width="3840"
     inkscape:window-height="2083"
     inkscape:window-x="0"
     inkscape:window-y="48"
     inkscape:window-maximized="1"
     inkscape:current-layer="Layer_1" />
  <defs
     id="defs5342">
    <style
       id="style5340">.cls-1{fill:#10aa50;}.cls-2{fill:#b8c4c2;}.cls-3{fill:#12924f;}.cls-4{fill:#21313c;}</style>
    <style
       id="style1482">.cls-1{fill:#1b1b1f;}</style>
  </defs>
  <title
     id="title5344">MongoDB_Logo_FullColorBlack_RGB</title>
  <metadata
     id="metadata5371">
    <rdf:RDF>
      <cc:Work
         rdf:about="">
        <dc:title>MongoDB_Logo_FullColorBlack_RGB</dc:title>
      </cc:Work>
    </rdf:RDF>
  </metadata>
  <circle
     style="fill:#030303;fill-opacity:1;stroke:none;stroke-width:18.1151;stroke-linecap:round;stroke-linejoin:round;stroke-miterlimit:4;stroke-dasharray:none;stroke-opacity:1;paint-order:stroke fill markers;stop-color:#000000"
     id="path12728"
     cx="25"
     cy="25"
     r="25" />
  <path
     d="m 17.869868,37.111721 c 0,0.173705 -0.199745,0.31266 -0.451615,0.31266 -0.286592,0.02609 -0.486338,-0.112887 -0.486338,-0.31266 0,-0.17369 0.199746,-0.312647 0.451603,-0.312647 0.260549,-0.02608 0.48635,0.112888 0.48635,0.312647 z m -2.70096,-0.390812 c -0.06085,0.173693 0.112888,0.37345 0.37345,0.425561 0.225801,0.0868 0.486338,0 0.538448,-0.173704 0.05216,-0.173692 -0.112887,-0.373437 -0.373438,-0.451602 -0.225801,-0.06086 -0.477657,0.02608 -0.53846,0.199745 z m 3.83866,-0.147636 c -0.251855,0.06085 -0.425559,0.225801 -0.399505,0.425548 0.02609,0.173691 0.251856,0.286605 0.512407,0.225802 0.251856,-0.06085 0.425547,-0.225802 0.399492,-0.399494 -0.02608,-0.16501 -0.260538,-0.277911 -0.512394,-0.251856 z M 24.722112,3.2934049 c -12.045713,0 -21.2602169,9.1449991 -21.2602169,21.1907261 0,9.631356 6.0619385,17.87317 14.7206199,20.773877 1.111646,0.199747 1.502458,-0.48635 1.502458,-1.050853 0,-0.538463 -0.02608,-3.508641 -0.02608,-5.332426 0,0 -6.079315,1.30271 -7.35597,-2.588047 0,0 -0.99005,-2.527257 -2.4143564,-3.178619 0,0 -1.988796,-1.363502 0.1389554,-1.337447 0,0 2.162501,0.17369 3.352311,2.240665 1.901962,3.352297 5.08925,2.388301 6.331168,1.815104 0.199748,-1.389557 0.764264,-2.353566 1.389558,-2.92675 -4.854768,-0.538461 -9.752951,-1.24192 -9.752951,-9.596634 0,-2.388302 0.660043,-3.586791 2.049599,-5.115304 -0.225802,-0.564503 -0.964009,-2.892014 0.2258,-5.89693 1.815107,-0.564516 5.99247,2.344873 5.99247,2.344873 1.736939,-0.486338 3.604153,-0.738194 5.454006,-0.738194 1.849853,0 3.717067,0.251856 5.454006,0.738194 0,0 4.177364,-2.918069 5.992468,-2.344873 1.18981,3.013596 0.451603,5.332427 0.225801,5.89693 1.389557,1.537193 2.240665,2.735684 2.240665,5.115304 0,8.380769 -5.115305,9.049492 -9.970072,9.596634 0.798998,0.686085 1.476403,1.988797 1.476403,4.029715 0,2.926748 -0.02609,6.548277 -0.02609,7.26043 0,0.564503 0.399492,1.250601 1.502457,1.050854 8.684735,-2.883333 14.572984,-11.125147 14.572984,-20.756503 0,-12.045727 -9.770327,-21.1907261 -21.816052,-21.1907261 z M 11.903455,33.247018 c -0.112887,0.08682 -0.0868,0.286592 0.06072,0.451603 0.138956,0.138956 0.338701,0.199759 0.451603,0.0868 0.112887,-0.0868 0.0868,-0.286604 -0.06072,-0.451616 -0.138955,-0.138955 -0.338702,-0.199746 -0.451603,-0.08681 z m -0.937954,-0.703459 c -0.06086,0.112888 0.02608,0.251857 0.199747,0.338702 0.138955,0.0868 0.31266,0.06085 0.37345,-0.06085 0.06086,-0.112889 -0.02609,-0.251856 -0.199746,-0.338702 -0.173704,-0.05216 -0.31266,-0.02608 -0.373451,0.06086 z m 2.81385,3.091761 c -0.138956,0.112887 -0.08682,0.37345 0.112888,0.538448 0.199746,0.199759 0.451602,0.225814 0.564503,0.0868 0.112888,-0.112888 0.06086,-0.373451 -0.112888,-0.538462 -0.191065,-0.199746 -0.451603,-0.225801 -0.564516,-0.0868 z M 12.7893,34.358664 c -0.138956,0.0868 -0.138956,0.312647 0,0.512406 0.138955,0.199746 0.373437,0.286592 0.486338,0.199746 0.138955,-0.112888 0.138955,-0.338702 0,-0.538462 -0.121582,-0.199746 -0.347383,-0.286591 -0.486338,-0.17369 z"
     id="path12607"
     style="stroke:none;stroke-width:21.8859;stroke-linecap:round;stroke-linejoin:round;stroke-miterlimit:4;stroke-dasharray:none;stroke-opacity:1;paint-order:stroke fill markers;fill:#ffffff;fill-opacity:1" />
</svg>
