<?xml version="1.0" encoding="UTF-8" standalone="no"?>
<svg
   id="Layer_1"
   data-name="Layer 1"
   viewBox="0 0 113 50"
   version="1.1"
   sodipodi:docname="go.svg"
   width="113"
   height="50"
   inkscape:version="1.1.2 (0a00cf5339, 2022-02-04, custom)"
   xmlns:inkscape="http://www.inkscape.org/namespaces/inkscape"
   xmlns:sodipodi="http://sodipodi.sourceforge.net/DTD/sodipodi-0.dtd"
   xmlns="http://www.w3.org/2000/svg"
   xmlns:svg="http://www.w3.org/2000/svg"
   xmlns:rdf="http://www.w3.org/1999/02/22-rdf-syntax-ns#"
   xmlns:cc="http://creativecommons.org/ns#"
   xmlns:dc="http://purl.org/dc/elements/1.1/">
  <sodipodi:namedview
     id="namedview5369"
     pagecolor="#505050"
     bordercolor="#ffffff"
     borderopacity="1"
     inkscape:pageshadow="0"
     inkscape:pageopacity="0"
     inkscape:pagecheckerboard="1"
     showgrid="false"
     inkscape:zoom="12.029478"
     inkscape:cx="37.990011"
     inkscape:cy="27.266354"
     inkscape:window-width="3840"
     inkscape:window-height="2083"
     inkscape:window-x="0"
     inkscape:window-y="48"
     inkscape:window-maximized="1"
     inkscape:current-layer="Layer_1" />
  <defs
     id="defs5342">
    <style
       id="style5340">.cls-1{fill:#10aa50;}.cls-2{fill:#b8c4c2;}.cls-3{fill:#12924f;}.cls-4{fill:#21313c;}</style>
    <style
       id="style1482">.cls-1{fill:#1b1b1f;}</style>
  </defs>
  <title
     id="title5344">MongoDB_Logo_FullColorBlack_RGB</title>
  <metadata
     id="metadata5371">
    <rdf:RDF>
      <cc:Work
         rdf:about="">
        <dc:title>MongoDB_Logo_FullColorBlack_RGB</dc:title>
      </cc:Work>
    </rdf:RDF>
  </metadata>
  <path
     d="m 68.819671,16.774448 c -1.702564,0.437347 -3.108323,0.671646 -4.545372,1.187106 -1.140245,0.296653 -2.296097,0.609177 -3.623781,0.952804 l -0.09373,0.01508 c -0.656039,0.187442 -0.718544,0.202932 -1.327684,-0.499853 -0.734152,-0.827831 -1.265218,-1.358897 -2.280526,-1.85875 -3.077108,-1.499515 -6.044852,-1.06217 -8.809587,0.734113 -3.311406,2.139948 -5.013971,5.310777 -4.967112,9.24697 0.04686,3.904942 2.717876,7.107022 6.435376,7.638088 3.436381,0.437384 6.216721,-0.718505 8.403493,-3.202042 0.328019,-0.406132 0.624784,-0.827872 0.952803,-1.296471 v 0 0 c 0.125096,-0.156077 0.234301,-0.328019 0.359386,-0.515458 h -9.387548 c -1.015273,0 -1.265217,-0.624787 -0.921554,-1.45262 0.624787,-1.515124 1.796285,-4.045558 2.483537,-5.310775 0.140586,-0.28116 0.484206,-0.905947 1.077778,-0.905947 h 15.79167 c 0.702897,-2.093048 1.843142,-4.201745 3.373875,-6.201075 3.545707,-4.670306 7.700591,-7.1070217 13.620509,-8.1222917 4.967111,-0.874731 9.637456,-0.390524 13.886022,2.483534 3.842474,2.6241167 6.216724,6.1854697 6.857114,10.8557757 0.82787,6.575956 -1.07778,11.917946 -5.73248,16.494572 -3.077105,3.264547 -7.013298,5.310736 -11.543062,6.232327 -0.874693,0.156077 -1.733816,0.2343 -2.577256,0.312526 -0.452993,0.03024 -0.890338,0.07822 -1.327686,0.125073 -4.420436,-0.09371 -8.465957,-1.358935 -11.871084,-4.27982 -2.389855,-2.077443 -4.045558,-4.623485 -4.857784,-7.575656 -0.577927,1.140281 -1.249573,2.249274 -2.186771,3.295798 -3.373874,4.623485 -7.950499,7.497546 -13.729835,8.262913 -4.779672,0.640392 -9.200111,-0.28116 -13.10505,-3.20208 -3.592568,-2.733481 -5.638758,-6.32605 -6.169862,-10.808917 -0.640394,-5.310774 0.92159,-10.215381 4.123671,-14.260939 3.467594,-4.529728 8.044219,-7.4037887 13.636116,-8.4190997 4.576587,-0.968411 8.950164,-0.296653 12.901965,2.389857 2.577295,1.7025617 4.420438,4.0299107 5.638796,6.8571127 0.296652,0.437348 0.09371,0.687254 -0.484245,0.827834 z m -54.950596,0.874731 c -0.195367,0 -0.243748,-0.09371 -0.146621,-0.249794 l 1.023095,-1.312038 c 0.09675,-0.140586 0.340491,-0.2343 0.535754,-0.2343 h 17.378635 c 0.187441,0 0.234298,0.140586 0.140587,0.28116 l -0.827832,1.265178 c -0.09373,0.156078 -0.343514,0.296653 -0.484245,0.296653 z m -7.3497501,4.482867 c -0.1946238,0 -0.2433699,-0.109223 -0.1458778,-0.249794 l 1.0220364,-1.312076 c 0.097492,-0.140587 0.3408691,-0.249794 0.5349976,-0.249794 H 30.129414 c 0.187441,0 0.281159,0.156078 0.234298,0.296653 l -0.390524,1.171499 c -0.04686,0.187441 -0.234299,0.296653 -0.437346,0.296653 z m 11.6327071,4.186137 c -0.09675,0.140587 -0.04836,0.28116 0.145112,0.28116 l 10.613691,0.04686 c 0.140587,0 0.343512,-0.140587 0.343512,-0.328022 l 0.09371,-1.171496 c 0,-0.202932 -0.09371,-0.343514 -0.296655,-0.343514 h -9.731174 c -0.195367,0 -0.388937,0.140586 -0.487343,0.296655 z m 78.330396,-2.811592 c -0.03024,-0.406093 -0.04685,-0.74972 -0.109223,-1.093385 -0.874731,-4.810886 -5.310774,-7.544367 -9.934221,-6.466589 -4.529764,1.01527 -7.450687,3.889331 -8.512819,8.465957 -0.874731,3.795613 0.968414,7.638088 4.467259,9.20007 2.686622,1.171499 5.357598,1.030919 7.934894,-0.296653 3.842472,-2.124302 5.935523,-5.107689 6.185467,-9.293829 -0.01508,-0.187441 -0.01508,-0.359385 -0.03024,-0.515458 z"
     id="path13299"
     style="stroke:#000000;stroke-width:12.6257;stroke-linecap:round;stroke-linejoin:round;stroke-miterlimit:4;stroke-dasharray:none;stroke-opacity:1;paint-order:stroke fill markers;fill:#ffffff;fill-opacity:1" />
</svg>
