<?xml version="1.0" encoding="UTF-8" standalone="no"?>
<svg
   id="Layer_1"
   data-name="Layer 1"
   viewBox="0 0 50.000001 50"
   version="1.1"
   sodipodi:docname="inkscape.svg"
   width="50"
   height="50"
   inkscape:version="1.1.2 (0a00cf5339, 2022-02-04, custom)"
   xmlns:inkscape="http://www.inkscape.org/namespaces/inkscape"
   xmlns:sodipodi="http://sodipodi.sourceforge.net/DTD/sodipodi-0.dtd"
   xmlns="http://www.w3.org/2000/svg"
   xmlns:svg="http://www.w3.org/2000/svg"
   xmlns:rdf="http://www.w3.org/1999/02/22-rdf-syntax-ns#"
   xmlns:cc="http://creativecommons.org/ns#"
   xmlns:dc="http://purl.org/dc/elements/1.1/">
  <sodipodi:namedview
     id="namedview5369"
     pagecolor="#505050"
     bordercolor="#ffffff"
     borderopacity="1"
     inkscape:pageshadow="0"
     inkscape:pageopacity="0"
     inkscape:pagecheckerboard="1"
     showgrid="false"
     inkscape:zoom="8.5061255"
     inkscape:cx="35.562607"
     inkscape:cy="35.68017"
     inkscape:window-width="1895"
     inkscape:window-height="1012"
     inkscape:window-x="1925"
     inkscape:window-y="58"
     inkscape:window-maximized="0"
     inkscape:current-layer="Layer_1" />
  <defs
     id="defs5342">
    <style
       id="style5340">.cls-1{fill:#10aa50;}.cls-2{fill:#b8c4c2;}.cls-3{fill:#12924f;}.cls-4{fill:#21313c;}</style>
    <style
       id="style1482">.cls-1{fill:#1b1b1f;}</style>
    <style
       id="style5340-2">.cls-1{fill:#10aa50;}.cls-2{fill:#b8c4c2;}.cls-3{fill:#12924f;}.cls-4{fill:#21313c;}</style>
  </defs>
  <title
     id="title5344">MongoDB_Logo_FullColorBlack_RGB</title>
  <metadata
     id="metadata5371">
    <rdf:RDF>
      <cc:Work
         rdf:about="">
        <dc:title>MongoDB_Logo_FullColorBlack_RGB</dc:title>
      </cc:Work>
    </rdf:RDF>
  </metadata>
  <rect
     style="fill:#000000;fill-opacity:1;stroke:none;stroke-width:6;stroke-linecap:round;stroke-linejoin:round;stroke-miterlimit:4;stroke-dasharray:none;stroke-opacity:1;paint-order:stroke fill markers;stop-color:#000000"
     id="rect33123"
     width="10.123262"
     height="11.278745"
     x="20.763386"
     y="6.1228943" />
  <path
     id="path32908"
     style="fill:#ffffff;fill-opacity:1;stroke:#000000;stroke-width:6.89422;stroke-linecap:round;stroke-linejoin:round;stroke-miterlimit:4;stroke-dasharray:none;stroke-opacity:1;paint-order:stroke fill markers"
     d="m 24.648491,3.4471176 c -1.333176,-0.00269 -2.653719,0.4875907 -3.610432,1.4793001 L 5.1222815,21.42006 c -5.37772762,6.744588 3.6588274,5.959781 7.5330675,7.902405 1.38975,1.438672 -5.3257668,2.501172 -3.9360171,3.941041 1.3897511,1.438671 8.4022051,2.771131 9.7943261,4.209798 1.389749,1.438668 -2.843736,2.965358 -1.453985,4.404025 1.38975,1.43867 4.605269,0.07547 5.207138,3.396748 0.42889,2.373384 5.790822,1.02011 8.41393,-0.923718 1.38975,-1.439869 -2.658641,-1.303118 -1.268891,-2.741789 3.456012,-3.579276 6.674011,-1.300864 7.856423,-4.887339 0.584097,-1.772238 -5.087291,-2.732733 -3.695172,-4.171404 3.99864,-2.364982 17.81946,-3.905683 11.261688,-10.547078 L 28.336973,4.9264177 C 27.328131,3.9455087 25.981667,3.4498167 24.648491,3.4471176 Z m 0.142723,1.5696409 c 0.951825,0.00525 1.899356,0.3652644 2.58238,1.0659979 l 6.297629,6.4773086 c 0.59713,0.617943 0.588332,1.814732 0.254224,2.159098 l -3.126514,-2.534006 -0.61326,3.751325 -2.613603,-1.395734 -4.183551,2.676294 -1.384854,-5.643932 -2.247877,3.938779 h -3.434257 c -1.400412,0 -1.566821,-1.798649 -0.294368,-3.087331 C 18.249816,9.9947756 20.800335,7.5178256 22.18653,6.0827564 22.883182,5.3616239 23.839389,5.011656 24.791214,5.0167585 Z M 17.229156,30.216822 c 0.425336,0.267556 6.859564,1.590235 8.431771,1.854207 0.545001,0.116389 0.157964,0.684296 -0.593189,1.06826 -1.694238,0.455961 -9.911952,-2.922467 -7.838582,-2.922467 z m 25.257403,4.530503 c -0.0808,-0.0021 -0.162175,-5.65e-4 -0.243074,0.0023 -1.294373,0.04515 -2.571698,0.715964 -2.923577,1.97165 0,0.818324 5.954201,1.35363 5.954201,-0.194219 -0.397643,-1.165394 -1.575312,-1.748661 -2.78755,-1.779676 z M 14.947828,38.29313 c -1.865846,-0.0176 -4.055804,1.363879 -2.446352,2.775664 1.409892,1.234689 3.588717,-0.307314 4.241532,-2.030368 -0.384203,-0.517004 -1.065068,-0.738434 -1.79518,-0.745296 z m 23.627246,0.108415 c -1.817454,1.651049 0.202262,3.325179 1.993654,2.258477 0.399274,-0.410364 -0.0091,-1.848115 -1.993654,-2.258477 z" />
</svg>
