<?xml version="1.0" encoding="UTF-8" standalone="no"?>
<svg
   id="Layer_1"
   data-name="Layer 1"
   viewBox="0 0 55.000001 50"
   version="1.1"
   sodipodi:docname="krita.svg"
   width="55"
   height="50"
   inkscape:version="1.1.2 (0a00cf5339, 2022-02-04, custom)"
   xmlns:inkscape="http://www.inkscape.org/namespaces/inkscape"
   xmlns:sodipodi="http://sodipodi.sourceforge.net/DTD/sodipodi-0.dtd"
   xmlns="http://www.w3.org/2000/svg"
   xmlns:svg="http://www.w3.org/2000/svg"
   xmlns:rdf="http://www.w3.org/1999/02/22-rdf-syntax-ns#"
   xmlns:cc="http://creativecommons.org/ns#"
   xmlns:dc="http://purl.org/dc/elements/1.1/">
  <sodipodi:namedview
     id="namedview5369"
     pagecolor="#505050"
     bordercolor="#ffffff"
     borderopacity="1"
     inkscape:pageshadow="0"
     inkscape:pageopacity="0"
     inkscape:pagecheckerboard="1"
     showgrid="false"
     inkscape:zoom="6.014739"
     inkscape:cx="15.711405"
     inkscape:cy="8.2297835"
     inkscape:window-width="1895"
     inkscape:window-height="1012"
     inkscape:window-x="1925"
     inkscape:window-y="58"
     inkscape:window-maximized="0"
     inkscape:current-layer="Layer_1" />
  <defs
     id="defs5342"><style
   id="style5340">.cls-1{fill:#10aa50;}.cls-2{fill:#b8c4c2;}.cls-3{fill:#12924f;}.cls-4{fill:#21313c;}</style>
<style
   id="style1482">.cls-1{fill:#1b1b1f;}</style>
<style
   id="style5340-2">.cls-1{fill:#10aa50;}.cls-2{fill:#b8c4c2;}.cls-3{fill:#12924f;}.cls-4{fill:#21313c;}</style>

	












<clipPath
   id="clipPath8">
  <path
     d="M 76,2 V 48 H 54 V 71 H 35.580737 c -0.07818,0.665694 -0.141485,1.332869 -0.205737,2 -1.151162,12.530963 1.036422,24.087546 6.0625,33.96875 L 43.125,110 c 1.011403,1.81678 2.191241,3.52297 3.4375,5.1875 1.244725,1.66248 1.685716,2.58262 2.46875,3.6875 C 62.319911,133.81083 82.129473,141 105,141 155.64836,141 198.63299,118.56201 217.65625,68.15625 231.15302,69.54122 244.09968,66.080358 250,54.5625 240.60137,49.138835 228.52163,50.877226 221.5625,54.375 L 240,2 168,48 H 145 V 2 Z"
     id="path10" />
</clipPath>

        
    
            
            
        
                
                
                
            
                    
                
                    
                
                
                    
                
                
                    
                
                
                    
                
                
                    
                
                
                    
                
                
                    
                
                
                    
                
                
                    
                
                    
                <linearGradient
   id="linearGradient1403"
   x1="1142.588"
   x2="1280.895"
   y1="62.713322"
   y2="200.87399"
   gradientTransform="matrix(0.20953626,-0.02161194,0.02161194,0.20953626,-299.95416,10.808081)"
   gradientUnits="userSpaceOnUse">
  <stop
     stop-color="#343434"
     offset="0"
     id="stop30784" />
  <stop
     stop-color="#4d4d4d"
     offset="1"
     id="stop30786" />
</linearGradient>
<linearGradient
   id="linearGradient1405"
   x1="1327.594"
   x2="1324.91"
   y1="230.8623"
   y2="89.862343"
   gradientTransform="matrix(0.00234266,0.21063484,0.21063484,-0.00234266,-72.101108,-246.0881)"
   gradientUnits="userSpaceOnUse">
  <stop
     stop-color="#5596ea"
     offset="0"
     id="stop30789" />
  <stop
     stop-color="#5596ea"
     stop-opacity="0"
     offset="1"
     id="stop30791" />
</linearGradient>
<clipPath
   id="clipPath839-4">
  <circle
     cx="532"
     cy="538"
     r="400"
     fill-opacity="0.47451"
     id="circle30794" />
</clipPath>
<linearGradient
   id="linearGradient1351"
   x1="112"
   x2="711.86438"
   y1="512"
   y2="512"
   gradientTransform="matrix(0.06013459,0,0,0.06013459,-15.436843,-65.962191)"
   gradientUnits="userSpaceOnUse">
  <stop
     stop-color="#ff0"
     offset="0"
     id="stop30797" />
  <stop
     stop-color="#ff0"
     stop-opacity="0"
     offset="1"
     id="stop30799" />
</linearGradient>
<linearGradient
   id="linearGradient1353"
   x1="112"
   x2="711.86438"
   y1="512"
   y2="512"
   gradientTransform="matrix(0.06013459,0,0,0.06013459,-68.925901,-26.497539)"
   gradientUnits="userSpaceOnUse">
  <stop
     stop-color="#0ff"
     offset="0"
     id="stop30802" />
  <stop
     stop-color="#0ff"
     stop-opacity="0"
     offset="1"
     id="stop30804" />
</linearGradient>
<linearGradient
   id="linearGradient1355"
   x1="112"
   x2="711.86438"
   y1="512"
   y2="512"
   gradientTransform="matrix(0.06013459,0,0,0.06013459,-8.0039794,0.09300684)"
   gradientUnits="userSpaceOnUse">
  <stop
     stop-color="#f0f"
     offset="0"
     id="stop30807" />
  <stop
     stop-color="#f0f"
     stop-opacity="0"
     offset="1"
     id="stop30809" />
</linearGradient>
</defs>
  <title
     id="title5344">MongoDB_Logo_FullColorBlack_RGB</title>
  <metadata
     id="metadata5371">
    <rdf:RDF>
      <cc:Work
         rdf:about="">
        <dc:title>MongoDB_Logo_FullColorBlack_RGB</dc:title>
      </cc:Work>
    </rdf:RDF>
  </metadata>
  <rect
     y="-254.83914"
     width="2048"
     height="549.99591"
     style="clip-rule:evenodd;fill:none;fill-rule:evenodd;stroke-width:0.913893;stroke-linejoin:round;stroke-miterlimit:2"
     id="rect28337"
     x="-988.37915" />
  <g
     id="g32509"
     transform="matrix(0.92408334,0,0,0.92408334,57.711876,3.9448246)">
    <circle
       cx="-30.881916"
       cy="22.784931"
       r="24.053837"
       fill="#ffffff"
       id="circle30818"
       style="stroke-width:0.0601346" />
    <circle
       transform="rotate(-150)"
       cx="15.352062"
       cy="-35.173283"
       r="24.053835"
       fill="url(#linearGradient1351)"
       id="circle30820"
       style="fill:url(#linearGradient1351);stroke-width:0.0601346" />
    <circle
       transform="rotate(-29.999997)"
       cx="-38.136993"
       cy="4.2913709"
       r="24.053835"
       fill="url(#linearGradient1353)"
       id="circle30822"
       style="fill:url(#linearGradient1353);stroke-width:0.0601346" />
    <circle
       transform="rotate(90)"
       cx="22.784931"
       cy="30.881916"
       r="24.053837"
       fill="url(#linearGradient1355)"
       id="circle30824"
       style="fill:#ffffff;fill-opacity:0.999402;stroke:#010101;stroke-width:6;stroke-linecap:round;stroke-linejoin:round;stroke-miterlimit:4;stroke-dasharray:none;stroke-opacity:1;paint-order:stroke fill markers" />
    <path
       d="m -27.868849,24.656037 c -3.854035,3.596152 -11.268692,-2.108074 -14.398329,-5.6906 -3.218931,-3.684753 -15.23833,-16.1124398 -16.116858,-16.918446 -0.878485,-0.805977 -1.578131,-1.80132164 -0.801325,-2.79162547 0.808677,-0.96443903 1.926986,-0.48527393 2.896893,0.20798885 0.96997,0.69328803 15.610502,9.88935522 19.880228,12.27860362 4.151238,2.322965 11.262815,8.400889 8.539391,12.914079 z"
       fill="url(#linearGradient1403)"
       id="path30830"
       style="fill:#fdfdfd;fill-opacity:1;stroke:#000000;stroke-width:6;stroke-linecap:round;stroke-linejoin:round;stroke-miterlimit:4;stroke-dasharray:none;stroke-opacity:1;paint-order:stroke fill markers" />
    <path
       d="m -21.686124,28.20499 c -15.041626,13.418451 -27.344178,0.558513 -29.250351,-3.896306 1.127219,7.732306 6.337551,14.651804 14.208725,17.314757 5.944672,2.011146 15.430735,1.964467 19.683504,-5.697468 z"
       fill="url(#linearGradient1405)"
       id="path30832"
       style="fill:#ffffff;fill-opacity:1;stroke:#010101;stroke-width:6;stroke-linecap:round;stroke-linejoin:round;stroke-miterlimit:4;stroke-dasharray:none;stroke-opacity:1;paint-order:stroke fill markers" />
    <path
       d="m -21.748265,29.467739 c -1.228688,0.562727 -1.095811,0.969456 -2.186778,0.794001 -0.752455,-0.121017 -7.270974,-5.062152 -7.270974,-5.062152 -0.330401,-0.792904 0.06593,-1.882931 0.810426,-2.745652 0.690503,-0.906497 1.675282,-1.519236 2.519306,-1.359582 0,0 6.179966,5.358536 6.453661,6.06982 0.396818,1.031286 -0.02858,0.985204 -0.325641,2.303565 z"
       fill="#bfbfbf"
       id="path30834"
       style="fill:#fdfdfd;fill-opacity:1;stroke:#020202;stroke-width:6;stroke-linecap:round;stroke-linejoin:round;stroke-miterlimit:4;stroke-dasharray:none;stroke-opacity:1;paint-order:stroke fill markers" />
    <path
       d="m -21.411018,40.398025 c 4.855749,-2.746595 6.269028,-7.53112 4.35169,-11.031711 -1.489954,-2.720279 -3.936376,-3.234586 -5.626109,-1.919254 -1.676252,1.304841 -1.824021,2.859675 -1.324006,4.403896 1.019704,3.149512 5.120807,5.298769 2.598425,8.547069 z"
       fill="#282828"
       id="path30836"
       style="fill:#fbfbfb;fill-opacity:1;stroke:#010101;stroke-width:6;stroke-linecap:round;stroke-linejoin:round;stroke-miterlimit:4;stroke-dasharray:none;stroke-opacity:1;paint-order:stroke fill markers" />
  </g>
</svg>
