<?xml version="1.0" encoding="UTF-8" standalone="no"?>
<svg
   id="Layer_1"
   data-name="Layer 1"
   viewBox="0 0 50.000001 50"
   version="1.1"
   sodipodi:docname="linux.svg"
   width="50"
   height="50"
   inkscape:version="1.1.2 (0a00cf5339, 2022-02-04, custom)"
   xmlns:inkscape="http://www.inkscape.org/namespaces/inkscape"
   xmlns:sodipodi="http://sodipodi.sourceforge.net/DTD/sodipodi-0.dtd"
   xmlns="http://www.w3.org/2000/svg"
   xmlns:svg="http://www.w3.org/2000/svg"
   xmlns:rdf="http://www.w3.org/1999/02/22-rdf-syntax-ns#"
   xmlns:cc="http://creativecommons.org/ns#"
   xmlns:dc="http://purl.org/dc/elements/1.1/">
  <sodipodi:namedview
     id="namedview5369"
     pagecolor="#505050"
     bordercolor="#ffffff"
     borderopacity="1"
     inkscape:pageshadow="0"
     inkscape:pageopacity="0"
     inkscape:pagecheckerboard="1"
     showgrid="false"
     inkscape:zoom="17.012251"
     inkscape:cx="7.1713026"
     inkscape:cy="29.978396"
     inkscape:window-width="3840"
     inkscape:window-height="2083"
     inkscape:window-x="0"
     inkscape:window-y="48"
     inkscape:window-maximized="1"
     inkscape:current-layer="Layer_1" />
  <defs
     id="defs5342">
    <style
       id="style5340">.cls-1{fill:#10aa50;}.cls-2{fill:#b8c4c2;}.cls-3{fill:#12924f;}.cls-4{fill:#21313c;}</style>
    <style
       id="style1482">.cls-1{fill:#1b1b1f;}</style>
  </defs>
  <title
     id="title5344">MongoDB_Logo_FullColorBlack_RGB</title>
  <metadata
     id="metadata5371">
    <rdf:RDF>
      <cc:Work
         rdf:about="">
        <dc:title>MongoDB_Logo_FullColorBlack_RGB</dc:title>
      </cc:Work>
    </rdf:RDF>
  </metadata>
  <g
     id="g17130"
     transform="matrix(1.0000442,0,0,0.99942097,-0.12440862,-0.01386336)">
    <path
       style="fill:#000000;fill-opacity:1;stroke:#000000;stroke-width:1px;stroke-linecap:butt;stroke-linejoin:miter;stroke-opacity:1"
       d="M 23.84911,11.023959 7.8787645,40.849004 18.980757,46.06446 33.89368,45.844734 l 8.827805,-5.58906 z"
       id="path16846" />
    <path
       d="m 24.844375,13.616324 c 0.086,0.043 0.15478,0.14618 0.25796,0.14618 0.0946,0 0.24077,-0.0344 0.24937,-0.12898 0.0172,-0.12039 -0.16338,-0.19778 -0.27516,-0.24937 -0.14618,-0.0602 -0.33536,-0.086 -0.47294,-0.009 -0.0344,0.0172 -0.0688,0.0602 -0.0516,0.0946 0.0258,0.11178 0.19777,0.0946 0.29236,0.14618 z m -1.88316,0.14618 c 0.10319,0 0.17198,-0.10319 0.25797,-0.14618 0.0946,-0.0516 0.26656,-0.0344 0.30096,-0.13758 0.0172,-0.0344 -0.0172,-0.0774 -0.0516,-0.0946 -0.13759,-0.0774 -0.32676,-0.0516 -0.47294,0.009 -0.11179,0.0516 -0.29237,0.12898 -0.27517,0.24936 0.009,0.086 0.15478,0.12899 0.24077,0.12039 z m 19.01215,23.97371 c -0.30956,-0.34396 -0.45574,-0.99747 -0.61912,-1.69398 -0.15478,-0.69651 -0.33536,-1.44462 -0.90289,-1.92616 -0.11178,-0.0946 -0.22357,-0.18057 -0.34395,-0.24936 -0.11179,-0.0688 -0.23217,-0.12899 -0.35256,-0.17198 0.7911,-2.3475 0.48154,-4.6864 -0.31815,-6.80172 -0.98028,-2.58827 -2.69146,-4.84978 -3.99849,-6.39758 -1.47041,-1.84876 -2.89783,-3.60293 -2.87203,-6.1912 0.043,-3.94689 0.43854,-11.28175 -6.51796,-11.29034 -8.80526,-0.0172 -6.60395,8.89125 -6.69853,11.6257 -0.14618,2.01214 -0.55033,3.59433 -1.93475,5.56348 -1.62519,1.93475 -3.9125,5.05615 -4.99596,8.31513 -0.51593,1.5392 -0.7567,3.1042 -0.53313,4.58321 -0.55893,0.49873 -0.98027,1.26403 -1.42742,1.73697 -0.36115,0.36975 -0.88568,0.50734 -1.4618105,0.71371 -0.57612,0.20637 -1.20384,0.51593 -1.59079,1.24684 -0.1805796,0.33535 -0.2407696,0.69651 -0.2407696,1.06626 0,0.33536 0.0516,0.67931 0.10318,1.01467 0.1031896,0.69651 0.2149796,1.35003 0.0688,1.78857 -0.44715,1.23824 -0.50734,2.09813 -0.18918,2.72585 0.3267596,0.62772 0.9802696,0.90288 1.7283796,1.05766 1.4876105,0.30956 3.5083405,0.23217 5.0991405,1.07486 1.70258,0.89429 3.43096,1.21245 4.80678,0.89429 0.99747,-0.22357 1.81437,-0.8255 2.22711,-1.73698 1.07486,-0.009 2.26151,-0.46434 4.15327,-0.56753 1.28123,-0.10318 2.88922,0.45575 4.73799,0.35256 0.0516,0.19777 0.12038,0.39555 0.21497,0.57612 v 0.009 c 0.71371,1.43602 2.04653,2.08953 3.46535,1.97775 1.42742,-0.11179 2.93222,-0.94588 4.15326,-2.39909 1.16945,-1.41022 3.09561,-1.99494 4.37684,-2.76885 0.63632,-0.38695 1.15225,-0.86848 1.19525,-1.57359 0.0344,-0.70511 -0.37836,-1.48761 -1.33283,-2.55387 z m -16.87962,-27.21549 c 0.84269,-1.90896 2.94082,-1.87456 3.78351,-0.0344 0.55893,1.22104 0.30956,2.65706 -0.36975,3.47395 -0.13759,-0.0688 -0.50734,-0.22357 -1.08347,-0.42134 0.0946,-0.10319 0.26657,-0.23217 0.33536,-0.39555 0.41275,-1.01467 -0.0172,-2.3217 -0.7825,-2.3475 -0.62772,-0.043 -1.19524,0.92868 -1.01467,1.97775 -0.35255,-0.17198 -0.80829,-0.30096 -1.11785,-0.37835 -0.086,-0.59333 -0.0258,-1.25544 0.24937,-1.87456 z m -3.49975,-0.9888699 c 0.86848,0 1.78857,1.2210399 1.64239,2.8806199 -0.30097,0.086 -0.61053,0.21498 -0.87709,0.39555 0.10318,-0.7653 -0.28377,-1.72837 -0.8255,-1.68538 -0.7223,0.0602 -0.84269,1.82296 -0.15478,2.41629 0.086,0.0688 0.16338,-0.0172 -0.50733,0.47294 -1.34143,-1.25544 -0.90288,-4.4800199 0.72231,-4.4800199 z m -1.16945,5.2195199 c 0.53313,-0.39555 1.16945,-0.85989 1.21244,-0.90288 0.40415,-0.37835 1.16085,-1.22104 2.39909,-1.22104 0.61052,0 1.34143,0.19777 2.22711,0.7653 0.54173,0.35255 0.97168,0.37835 1.94335,0.79969 0.72231,0.30096 1.17805,0.8341 0.90289,1.565 -0.22357,0.61052 -0.94588,1.23824 -1.95195,1.5564 -0.95448,0.30956 -1.70258,1.37582 -3.28478,1.28124 -0.33535,-0.0172 -0.60192,-0.086 -0.82549,-0.18058 -0.68791,-0.30096 -1.04907,-0.89429 -1.71978,-1.28983 -0.7395,-0.41275 -1.13505,-0.89429 -1.26404,-1.31563 -0.12038,-0.42135 0,-0.7739 0.36116,-1.05767 z m 0.28376,28.7203 c -0.23217,3.01821 -3.77491,2.95802 -6.47496,1.5478 -2.57107,-1.35863 -5.8988405,-0.55893 -6.5781605,-1.88316 -0.20637,-0.40415 -0.20637,-1.09206 0.22358,-2.27011 v -0.0172 c 0.20637,-0.65352 0.0516,-1.37583 -0.0516,-2.05514 -0.10318,-0.67071 -0.15478,-1.28983 0.0774,-1.71978 0.30096,-0.57612 0.73091,-0.7825 1.27264,-0.97167 0.8856805,-0.31816 1.0146705,-0.29236 1.6853805,-0.85129 0.47294,-0.49014 0.8169,-1.10926 1.22964,-1.5478 0.43855,-0.47294 0.85989,-0.69651 1.52201,-0.59333 0.69651,0.10319 1.29843,0.58473 1.88315,1.37583 l 1.68539,3.0612 c 0.81689,1.71118 3.70612,4.16186 3.52554,5.92464 z m -0.12038,-2.22712 c -0.35256,-0.56752 -0.8255,-1.16944 -1.23824,-1.68538 0.61052,0 1.22104,-0.18917 1.43601,-0.7653 0.19778,-0.53313 0,-1.28123 -0.63632,-2.14112 -1.16085,-1.565 -3.29337,-2.79464 -3.29337,-2.79464 -1.16085,-0.72231 -1.81437,-1.608 -2.11533,-2.57107 -0.30096,-0.96308 -0.25797,-2.00354 -0.0258,-3.02681 0.44715,-1.96915 1.5994,-3.8867 2.3389,-5.09054 0.19778,-0.14619 0.0688,0.27516 -0.7481,1.78857 -0.73091,1.38442 -2.09813,4.5832 -0.22357,7.08548 0.0516,-1.77997 0.47294,-3.59433 1.18664,-5.28832 1.03187,-2.35609 3.20739,-6.44057 3.37937,-9.69095 0.0946,0.0688 0.39555,0.27517 0.53313,0.35256 0.39555,0.23217 0.69651,0.57612 1.08346,0.88568 1.06626,0.85989 2.45068,0.7911 3.64593,0.10319 0.53313,-0.30096 0.96308,-0.64492 1.36722,-0.7739 0.85129,-0.26657 1.53061,-0.7395 1.91756,-1.28983 0.66211,2.61406 2.20991,6.38897 3.19878,8.22914 0.52454,0.98027 1.5736,3.0526 2.02934,5.55488 0.28377,-0.009 0.60192,0.0344 0.93728,0.12038 1.18665,-3.0698 -1.00607,-6.38037 -2.00354,-7.30046 -0.40415,-0.39554 -0.42135,-0.56752 -0.22357,-0.55892 1.08346,0.96307 2.51087,2.89782 3.02681,5.07334 0.24077,0.99747 0.28376,2.03794 0.0344,3.06981 1.41022,0.58472 3.08701,1.5392 2.63986,2.99241 -0.18917,-0.009 -0.27516,0 -0.36115,0 0.27516,-0.86849 -0.33536,-1.5134 -1.96055,-2.24431 -1.68538,-0.7395 -3.0956,-0.7395 -3.29337,1.07486 -1.04047,0.36116 -1.5736,1.26404 -1.84017,2.3475 -0.24076,0.96307 -0.30956,2.12392 -0.37835,3.43096 -0.043,0.66211 -0.30956,1.5478 -0.58472,2.49367 -2.76024,1.96915 -6.59535,2.82904 -9.82853,0.61912 z m 22.13354,-0.98887 c -0.0774,1.44462 -3.54274,1.71118 -5.4345,3.99849 -1.13505,1.35002 -2.52807,2.09813 -3.74911,2.19271 -1.22105,0.0946 -2.27871,-0.41274 -2.89783,-1.65958 -0.40415,-0.95448 -0.20637,-1.98635 0.0946,-3.1214 0.31816,-1.22104 0.7911,-2.47648 0.85129,-3.49115 0.0688,-1.30703 0.14618,-2.45068 0.36115,-3.32777 0.22357,-0.88569 0.56753,-1.47901 1.17805,-1.81437 0.0258,-0.0172 0.0602,-0.0258 0.086,-0.043 0.0688,1.13505 0.62772,2.2873 1.61659,2.53667 1.08346,0.28377 2.63986,-0.64491 3.30197,-1.40162 0.7739,-0.0258 1.35003,-0.0774 1.94335,0.43855 0.85129,0.7309 0.61052,2.60546 1.47041,3.57714 0.91149,0.99747 1.20385,1.67678 1.17805,2.11532 z m -21.96157,-24.45524 c 0.17198,0.16338 0.40415,0.38695 0.68792,0.61052 0.56752,0.44714 1.35862,0.91148 2.34749,0.91148 0.99747,0 1.93475,-0.50733 2.73445,-0.92868 0.42135,-0.22357 0.93728,-0.60192 1.27264,-0.89428 0.33535,-0.29237 0.50733,-0.54174 0.26656,-0.56753 -0.24077,-0.0258 -0.22357,0.22357 -0.51593,0.43854 -0.37835,0.27517 -0.83409,0.63632 -1.19525,0.84269 -0.63632,0.36116 -1.67678,0.87709 -2.57107,0.87709 -0.89428,0 -1.60799,-0.41275 -2.14112,-0.83409 -0.26657,-0.21497 -0.49014,-0.42995 -0.66211,-0.59333 -0.12899,-0.12038 -0.16338,-0.39554 -0.36976,-0.42134 -0.12038,-0.009 -0.15478,0.31816 0.14618,0.55893 z"
       id="path16642"
       style="fill:#ffffff;fill-opacity:1;stroke:#000000;stroke-width:6;stroke-linecap:round;stroke-linejoin:round;stroke-miterlimit:4;stroke-dasharray:none;stroke-opacity:1;paint-order:stroke fill markers" />
  </g>
</svg>
