<?xml version="1.0" encoding="UTF-8" standalone="no"?>
<svg
   id="Layer_1"
   data-name="Layer 1"
   viewBox="0 0 50.000001 50"
   version="1.1"
   sodipodi:docname="linux.svg"
   width="50"
   height="50"
   inkscape:version="1.1.2 (0a00cf5339, 2022-02-04, custom)"
   xmlns:inkscape="http://www.inkscape.org/namespaces/inkscape"
   xmlns:sodipodi="http://sodipodi.sourceforge.net/DTD/sodipodi-0.dtd"
   xmlns="http://www.w3.org/2000/svg"
   xmlns:svg="http://www.w3.org/2000/svg"
   xmlns:rdf="http://www.w3.org/1999/02/22-rdf-syntax-ns#"
   xmlns:cc="http://creativecommons.org/ns#"
   xmlns:dc="http://purl.org/dc/elements/1.1/">
  <sodipodi:namedview
     id="namedview5369"
     pagecolor="#505050"
     bordercolor="#ffffff"
     borderopacity="1"
     inkscape:pageshadow="0"
     inkscape:pageopacity="0"
     inkscape:pagecheckerboard="1"
     showgrid="false"
     inkscape:zoom="17.012251"
     inkscape:cx="7.1713026"
     inkscape:cy="29.978396"
     inkscape:window-width="3840"
     inkscape:window-height="2083"
     inkscape:window-x="0"
     inkscape:window-y="48"
     inkscape:window-maximized="1"
     inkscape:current-layer="Layer_1" />
  <defs
     id="defs5342">
    <style
       id="style5340">.cls-1{fill:#10aa50;}.cls-2{fill:#b8c4c2;}.cls-3{fill:#12924f;}.cls-4{fill:#21313c;}</style>
    <style
       id="style1482">.cls-1{fill:#1b1b1f;}</style>
  </defs>
  <title
     id="title5344">MongoDB_Logo_FullColorBlack_RGB</title>
  <metadata
     id="metadata5371">
    <rdf:RDF>
      <cc:Work
         rdf:about="">
        <dc:title>MongoDB_Logo_FullColorBlack_RGB</dc:title>
      </cc:Work>
    </rdf:RDF>
  </metadata>
  <path
     style="fill:#ffffff;fill-opacity:1;stroke:none;stroke-width:0.999733px;stroke-linecap:butt;stroke-linejoin:miter;stroke-opacity:1"
     d="M 23.725756,11.003712 7.7547041,40.811488 18.857187,46.023924 33.770769,45.804325 42.598965,40.218501 Z"
     id="path16846" />
  <path
     d="m 24.721065,13.594576 c 0.086,0.04298 0.154786,0.146096 0.257971,0.146096 0.0946,0 0.240781,-0.03438 0.249381,-0.128906 0.0172,-0.12032 -0.163387,-0.197665 -0.275172,-0.249225 -0.146187,-0.06016 -0.335375,-0.08595 -0.472961,-0.009 -0.0344,0.01719 -0.0688,0.06016 -0.0516,0.09455 0.0258,0.111716 0.197778,0.09455 0.292373,0.146096 z m -1.883244,0.146096 c 0.103195,0 0.171988,-0.103131 0.257982,-0.146096 0.0946,-0.05157 0.266571,-0.03438 0.300973,-0.1375 0.0172,-0.03438 -0.0172,-0.07736 -0.0516,-0.09455 -0.137596,-0.07736 -0.326775,-0.05157 -0.472961,0.009 -0.111795,0.05157 -0.292383,0.128905 -0.275182,0.249215 0.009,0.08595 0.154786,0.128916 0.24078,0.120321 z M 41.850812,37.7005 c -0.309574,-0.343761 -0.455761,-0.996892 -0.619148,-1.692999 -0.154787,-0.696107 -0.335375,-1.443783 -0.90293,-1.925045 -0.111785,-0.09455 -0.22358,-0.180465 -0.343965,-0.249215 -0.111795,-0.06876 -0.23218,-0.128916 -0.352575,-0.171881 0.791135,-2.34614 0.481561,-4.683686 -0.318165,-6.797781 -0.980323,-2.586772 -2.691578,-4.846972 -3.998666,-6.393876 -1.470475,-1.847689 -2.897958,-3.600844 -2.872157,-6.187615 0.043,-3.944605 0.438559,-11.2752175 -6.518248,-11.2838025 -8.805649,-0.01719 -6.604242,8.8861015 -6.698826,11.6189685 -0.146187,2.010975 -0.550355,3.592249 -1.934836,5.560258 -1.625262,1.93363 -3.912673,5.053223 -4.996181,8.310316 -0.515953,1.538309 -0.756733,3.102402 -0.533153,4.580556 -0.558955,0.498441 -0.980314,1.263298 -1.427483,1.735964 -0.3611663,0.369536 -0.8857195,0.507046 -1.4618755,0.713297 -0.5761454,0.20625 -1.2038932,0.515631 -1.5908603,1.246118 -0.1805876,0.335156 -0.2407802,0.696107 -0.2407802,1.065643 0,0.335165 0.051602,0.678916 0.1031845,1.014082 0.1031942,0.696107 0.2149891,1.349248 0.068803,1.787534 -0.4471698,1.237523 -0.5073624,2.096916 -0.1891884,2.724272 0.3267741,0.627357 0.9803129,0.902357 1.728456,1.057048 1.4876759,0.30938 3.5084959,0.232035 5.0993659,1.074237 1.702655,0.893772 3.431112,1.211748 4.806993,0.893772 0.997514,-0.22344 1.81445,-0.825022 2.227208,-1.735974 1.074907,-0.009 2.26161,-0.464071 4.153454,-0.567201 1.281286,-0.10312 2.889347,0.455486 4.738199,0.352356 0.0516,0.197655 0.120385,0.395321 0.214979,0.575786 v 0.009 c 0.713742,1.435188 2.046621,2.08832 3.465504,1.976605 1.427483,-0.111726 2.932349,-0.945333 4.153443,-2.397701 1.169502,-1.409404 3.095747,-1.993785 4.377034,-2.767247 0.636348,-0.386726 1.152301,-0.867977 1.195303,-1.572679 0.0344,-0.704701 -0.378377,-1.486748 -1.332889,-2.552391 z M 24.970446,10.500769 c 0.842727,-1.9078548 2.94095,-1.8734747 3.783677,-0.03438 0.558954,1.220333 0.309573,2.655521 -0.369767,3.471938 -0.137596,-0.06876 -0.507362,-0.22344 -1.083517,-0.421096 0.0946,-0.10313 0.266581,-0.232035 0.335374,-0.395321 0.412769,-1.014082 -0.0172,-2.320355 -0.782534,-2.346141 -0.627748,-0.04298 -1.195293,0.928143 -1.014715,1.976605 -0.352566,-0.17188 -0.808326,-0.300785 -1.117899,-0.378131 -0.086,-0.592986 -0.0258,-1.254713 0.249381,-1.873474 z M 21.470541,9.5124715 c 0.868518,0 1.788649,1.2203325 1.642462,2.8789515 -0.300983,0.08595 -0.610557,0.214856 -0.877128,0.395321 0.103184,-0.764856 -0.283783,-1.727369 -0.825537,-1.684404 -0.722332,0.06016 -0.842727,1.821905 -0.154787,2.414891 0.086,0.06876 0.163388,-0.01719 -0.507352,0.472666 -1.341489,-1.254713 -0.90292,-4.4774255 0.722342,-4.4774255 z m -1.169502,5.2164975 c 0.533154,-0.395321 1.169502,-0.859392 1.212494,-0.902357 0.404168,-0.378131 1.160901,-1.220333 2.399196,-1.220333 0.610547,0 1.341489,0.197655 2.227208,0.764857 0.541754,0.352346 0.971723,0.378131 1.943436,0.799227 0.722342,0.300786 1.178102,0.833617 0.90293,1.564094 -0.22358,0.610166 -0.945922,1.237523 -1.952036,1.555498 -0.954522,0.309381 -1.702656,1.375024 -3.284925,1.280499 -0.335365,-0.01719 -0.601947,-0.08595 -0.825527,-0.180476 -0.68794,-0.300786 -1.049116,-0.893772 -1.719856,-1.289083 -0.739533,-0.412511 -1.1351,-0.893772 -1.264096,-1.314868 -0.120385,-0.421106 0,-0.773452 0.361176,-1.057058 z m 0.283773,28.70367 c -0.232181,3.016463 -3.775077,2.956307 -6.475247,1.546904 C 11.538382,43.6217 8.2104643,44.420937 7.5311142,43.097473 7.3247351,42.693557 7.3247351,42.006046 7.7547041,40.828678 v -0.01719 c 0.2063791,-0.653142 0.051602,-1.375034 -0.051602,-2.05395 -0.1031845,-0.670322 -0.1547868,-1.289083 0.077403,-1.718784 0.3009733,-0.575787 0.7309423,-0.782047 1.2726962,-0.971108 0.8857197,-0.317976 1.0147157,-0.29219 1.6854557,-0.850797 0.47296,-0.489856 0.816936,-1.108618 1.229694,-1.546904 0.438569,-0.472666 0.859928,-0.696106 1.522077,-0.592986 0.696541,0.10313 1.298488,0.584391 1.883233,1.375033 l 1.685465,3.059428 c 0.816926,1.710189 3.706284,4.15945 3.525696,5.921209 z m -0.120386,-2.22583 c -0.352575,-0.567192 -0.825536,-1.168763 -1.238294,-1.684404 0.610547,0 1.221094,-0.189061 1.436073,-0.764857 0.197789,-0.532821 0,-1.280488 -0.636348,-2.13988 -1.160901,-1.564094 -3.293516,-2.793022 -3.293516,-2.793022 -1.160901,-0.721892 -1.81445,-1.607069 -2.115423,-2.569581 -0.300973,-0.962523 -0.257981,-2.00238 -0.0258,-3.025058 0.44717,-1.96801 1.59947,-3.884449 2.339003,-5.087592 0.197789,-0.146106 0.0688,0.275 -0.748133,1.787534 -0.730942,1.383618 -2.098223,4.580546 -0.22358,7.081377 0.0516,-1.778939 0.472961,-3.592248 1.186693,-5.285258 1.031915,-2.354725 3.207531,-6.43684 3.379519,-9.685338 0.0946,0.06876 0.395568,0.27501 0.533154,0.352356 0.395567,0.232035 0.69654,0.575786 1.083507,0.885167 1.066308,0.859392 2.450789,0.790642 3.646092,0.10313 0.533153,-0.300786 0.963122,-0.644547 1.36728,-0.773452 0.851328,-0.266415 1.530678,-0.739072 1.917645,-1.289083 0.662139,2.612546 2.210007,6.385271 3.198921,8.224375 0.524563,0.979703 1.57367,3.050833 2.02943,5.551664 0.283782,-0.009 0.601947,0.03438 0.937321,0.12031 1.186703,-3.068023 -1.006114,-6.376676 -2.003628,-7.296233 -0.404168,-0.395311 -0.421369,-0.567191 -0.22358,-0.558596 1.083508,0.962512 2.510981,2.896142 3.026944,5.070402 0.24078,0.996893 0.283772,2.03676 0.0344,3.068033 1.410283,0.584381 3.087147,1.538308 2.639977,2.990677 -0.189178,-0.009 -0.275172,0 -0.361166,0 0.275172,-0.867987 -0.335375,-1.512524 -1.960637,-2.243011 -1.685454,-0.739071 -3.095737,-0.739071 -3.293515,1.074238 -1.040516,0.360951 -1.57367,1.263308 -1.840252,2.346141 -0.24077,0.962512 -0.309573,2.12269 -0.378366,3.428973 -0.043,0.661727 -0.309574,1.546904 -0.584746,2.492226 -2.760362,1.96801 -6.595642,2.827402 -9.828965,0.618762 z m 22.134519,-0.988298 c -0.0774,1.443784 -3.542897,1.71019 -5.434741,3.996175 -1.1351,1.349238 -2.528181,2.096915 -3.749275,2.191441 -1.221104,0.09455 -2.278811,-0.412502 -2.897958,-1.65862 -0.404168,-0.953927 -0.206379,-1.985199 0.0946,-3.119592 0.318174,-1.220333 0.791135,-2.475046 0.851327,-3.489129 0.0688,-1.306273 0.146187,-2.449261 0.361166,-3.325843 0.22358,-0.885177 0.567556,-1.478153 1.178103,-1.813319 0.0258,-0.01719 0.0602,-0.02578 0.086,-0.04297 0.0688,1.134392 0.627748,2.285975 1.616662,2.535201 1.083508,0.283606 2.639976,-0.644537 3.302116,-1.400809 0.773934,-0.02578 1.350089,-0.07735 1.943436,0.438297 0.851327,0.730476 0.610547,2.603951 1.470475,3.575068 0.91153,0.996893 1.203903,1.675809 1.178102,2.114095 z M 20.636404,15.777432 c 0.171988,0.163285 0.404168,0.386726 0.68795,0.610166 0.567545,0.446881 1.35868,0.910952 2.347594,0.910952 0.997514,0 1.934836,-0.507036 2.734571,-0.928142 0.421369,-0.22344 0.937321,-0.601571 1.272696,-0.893762 0.335365,-0.292201 0.507353,-0.541426 0.266572,-0.567201 -0.240781,-0.02578 -0.22358,0.22344 -0.515953,0.438286 -0.378366,0.27501 -0.834127,0.635951 -1.195303,0.842202 -0.636348,0.360951 -1.676854,0.876582 -2.571183,0.876582 -0.89432,0 -1.608061,-0.412511 -2.141215,-0.833607 -0.266582,-0.214846 -0.490162,-0.429701 -0.662139,-0.592987 -0.128996,-0.12031 -0.163387,-0.395311 -0.369776,-0.421096 -0.120386,-0.009 -0.154787,0.317976 0.146186,0.558607 z"
     id="path16642"
     style="fill:#030303;fill-opacity:1;stroke:#ffffff;stroke-width:5.9984;stroke-linecap:round;stroke-linejoin:round;stroke-miterlimit:4;stroke-dasharray:none;stroke-opacity:1;paint-order:stroke fill markers" />
</svg>
