<?xml version="1.0" encoding="UTF-8" standalone="no"?>
<svg
   id="Layer_1"
   data-name="Layer 1"
   viewBox="0 0 1112.61 295.56299"
   version="1.1"
   sodipodi:docname="mongodb.svg"
   width="1112.61"
   height="295.56299"
   inkscape:version="1.1.2 (0a00cf5339, 2022-02-04, custom)"
   xmlns:inkscape="http://www.inkscape.org/namespaces/inkscape"
   xmlns:sodipodi="http://sodipodi.sourceforge.net/DTD/sodipodi-0.dtd"
   xmlns="http://www.w3.org/2000/svg"
   xmlns:svg="http://www.w3.org/2000/svg"
   xmlns:rdf="http://www.w3.org/1999/02/22-rdf-syntax-ns#"
   xmlns:cc="http://creativecommons.org/ns#"
   xmlns:dc="http://purl.org/dc/elements/1.1/">
  <sodipodi:namedview
     id="namedview5369"
     pagecolor="#505050"
     bordercolor="#ffffff"
     borderopacity="1"
     inkscape:pageshadow="0"
     inkscape:pageopacity="0"
     inkscape:pagecheckerboard="1"
     showgrid="false"
     inkscape:zoom="1.0632657"
     inkscape:cx="556.77523"
     inkscape:cy="149.53929"
     inkscape:window-width="3840"
     inkscape:window-height="2083"
     inkscape:window-x="0"
     inkscape:window-y="48"
     inkscape:window-maximized="1"
     inkscape:current-layer="Layer_1" />
  <defs
     id="defs5342">
    <style
       id="style5340">.cls-1{fill:#10aa50;}.cls-2{fill:#b8c4c2;}.cls-3{fill:#12924f;}.cls-4{fill:#21313c;}</style>
  </defs>
  <title
     id="title5344">MongoDB_Logo_FullColorBlack_RGB</title>
  <metadata
     id="metadata5371">
    <rdf:RDF>
      <cc:Work
         rdf:about="">
        <dc:title>MongoDB_Logo_FullColorBlack_RGB</dc:title>
      </cc:Work>
    </rdf:RDF>
  </metadata>
  <path
     style="fill:#ffffff;fill-opacity:1;stroke:#090909;stroke-width:19.8219;stroke-linecap:round;stroke-linejoin:round;stroke-miterlimit:4;stroke-dasharray:none;stroke-opacity:1;paint-order:stroke fill markers"
     d="m 627.96566,283.69881 c -16.87781,-4.57461 -25.94057,-15.44867 -24.5009,-29.39772 0.68035,-6.59192 2.73471,-10.7672 7.96644,-16.19105 l 4.06296,-4.21214 h -2.95912 c -3.9581,0 -7.06634,-2.33276 -7.84757,-5.88967 -0.78519,-3.57496 -0.0328,-5.04038 8.53049,-16.61447 l 6.75082,-9.12438 -2.79359,-1.98921 c -4.45063,-3.16912 -9.82323,-11.899 -11.57725,-18.81169 -4.26141,-16.79458 4.67713,-33.76108 22.14637,-42.03662 7.56454,-3.58347 8.87941,-3.63607 49.77599,-1.99146 l 20.31739,0.81705 0.30755,4.84163 0.30755,4.84165 -7.2452,-0.67301 c -3.98486,-0.37017 -8.80215,-0.94623 -10.70509,-1.28016 l -3.45992,-0.60714 3.3597,3.82649 c 1.84782,2.10456 4.51976,6.29978 5.93764,9.32271 2.21018,4.71215 2.57783,6.83941 2.5772,14.91162 -9e-4,11.41369 -1.86181,16.20308 -9.38748,24.16037 -9.48748,10.03161 -25.87011,15.28949 -39.91709,12.81112 -3.40774,-0.60124 -6.87097,-1.36822 -7.69609,-1.70437 -1.04948,-0.42757 -3.04492,1.45296 -6.64163,6.25918 l -5.14141,6.8704 26.46347,0.37601 c 24.88544,0.3536 26.81104,0.51346 32.29194,2.68087 11.36277,4.49342 17.67923,12.79177 17.76123,23.33407 0.12387,15.92699 -9.55172,27.33709 -28.71578,33.86359 -10.34805,3.5241 -29.98184,4.31319 -39.96862,1.60633 z m 34.29585,-10.62489 c 9.38414,-3.9037 14.12554,-8.9989 16.25438,-17.46727 2.18467,-8.69047 -2.75849,-18.15936 -10.72614,-20.54653 -2.27828,-0.68258 -10.54189,-1.16222 -20.02368,-1.16222 -15.65661,0 -16.24181,0.0742 -19.36515,2.4565 -9.26735,7.06856 -11.51519,21.16283 -4.78288,29.98934 2.68615,3.52173 8.07855,6.66884 13.99538,8.16804 5.27418,1.33636 20.05137,0.47433 24.64809,-1.43786 z m -5.55416,-74.93555 c 9.96237,-4.50962 14.86784,-12.6882 14.8132,-24.69713 -0.0547,-12.03164 -3.8839,-19.34288 -12.57896,-24.01772 -6.66193,-3.58175 -11.91611,-4.22824 -18.59172,-2.28759 -13.2899,3.86347 -20.52197,17.41836 -17.37677,32.56878 3.35337,16.15302 19.40075,24.92191 33.73425,18.43366 z M 64.979832,262.94434 c -0.02483,-0.98527 -0.60428,-7.6358 -1.287684,-14.77898 l -1.242551,-12.98755 -3.694753,-3.24404 c -2.032113,-1.78423 -4.735066,-4.06236 -6.006562,-5.06252 C 49.106143,224.00635 37.031666,209.35548 31.58466,201.19183 22.053738,186.90747 15.490179,171.53297 11.910076,155.10602 9.1237464,142.32122 9.5139149,120.39054 12.77843,106.29732 17.705392,85.027197 28.362025,63.047276 43.14302,43.668618 58.887486,23.026782 69.106134,9.9109276 69.443847,9.9109276 c 0.192852,0 2.023517,2.3414564 4.068143,5.2032364 2.044626,2.861781 7.901566,10.428319 13.015419,16.814534 23.116511,28.868015 35.986211,54.183349 40.393321,79.455632 2.22713,12.77126 2.00612,32.16375 -0.50776,44.5571 -5.13541,25.31713 -19.77486,50.56474 -41.177422,71.0157 l -8.813018,8.42116 -1.486639,14.37397 -1.486639,14.37396 -4.212144,0.30476 c -3.501496,0.25335 -4.219759,0.003 -4.257276,-1.48664 z m 7.492431,-34.01663 2.862686,-2.98801 -2.793335,-62.67189 c -1.536335,-34.46954 -2.964098,-62.85772 -3.172807,-63.08485 -0.20871,-0.227119 -0.388488,0.21887 -0.399507,0.99109 -0.01102,0.77223 -1.315082,29.27853 -2.897918,63.34735 l -2.877883,61.9433 2.587795,2.7255 c 1.423288,1.49903 2.866906,2.72551 3.20804,2.72551 0.341135,0 1.908452,-1.3446 3.482929,-2.988 z m 189.524187,6.70459 c -0.89426,-0.68137 -12.19309,-26.66039 -25.10849,-57.73115 -12.91542,-31.07075 -23.87656,-56.92775 -24.35808,-57.45998 -0.50743,-0.56086 -0.76035,20.83082 -0.60157,50.88157 l 0.27392,51.84926 2.33976,1.89411 c 1.28687,1.04177 3.40534,1.89413 4.70769,1.89413 2.04549,0 2.36794,0.47237 2.36794,3.46883 v 3.46883 h -16.84858 -16.84858 v -3.46883 c 0,-3.29295 0.17308,-3.46883 3.41357,-3.46883 2.11418,0 4.39645,-0.84884 5.9957,-2.22996 l 2.58212,-2.22995 0.5871,-56.49229 c 0.56711,-54.56876 0.52325,-56.54885 -1.28801,-58.15352 -1.03129,-0.91367 -3.65906,-1.80565 -5.83946,-1.98219 -3.80886,-0.30837 -3.96438,-0.45704 -3.96438,-3.78977 v -3.468829 h 17.21651 17.21648 l 21.82687,53.241369 c 12.00477,29.28275 22.11117,53.06566 22.45868,52.85089 0.3475,-0.21477 10.42948,-24.28263 22.4044,-53.48413 l 21.77257,-53.093625 16.6008,-0.005 16.6008,-0.005 v 3.964375 c 0,3.91761 -0.0438,3.96454 -3.71659,3.97954 -8.04407,0.0329 -8.17652,0.61493 -8.17652,35.93378 0,16.573 0.29639,41.65125 0.65864,55.72946 0.73801,28.68066 0.88523,29.2349 7.76565,29.2349 3.30364,0 3.46882,0.16519 3.46882,3.46883 v 3.46883 h -19.3263 -19.32631 v -3.46883 c 0,-2.99646 0.32245,-3.46883 2.36793,-3.46883 3.48099,0 6.68652,-3.0352 6.82685,-6.46409 0.51467,-12.57596 -0.45315,-97.79427 -1.10226,-97.05554 -0.45503,0.51784 -11.00028,25.47108 -23.43389,55.45163 -12.43361,29.98056 -23.28024,55.2906 -24.10361,56.24452 -1.77141,2.05227 -3.19584,2.18275 -5.41017,0.49554 z m 140.99115,0.11344 c -7.13564,-1.1699 -18.4945,-6.60533 -23.83428,-11.40516 -5.87483,-5.28073 -11.52222,-14.34496 -13.98094,-22.43977 -2.79382,-9.19802 -2.26305,-27.00046 1.06198,-35.61999 4.69051,-12.15929 15.49901,-22.94036 27.71526,-27.64496 7.86913,-3.03049 25.24378,-3.7599 33.35987,-1.40048 8.44204,2.45416 14.32744,5.70743 20.3868,11.2692 6.97236,6.39981 11.27755,13.72115 13.74761,23.37897 9.81522,38.37713 -19.37729,70.26928 -58.4563,63.86219 z m 24.13743,-13.13137 c 12.9194,-6.32089 19.35024,-20.61281 18.23501,-40.52555 -1.06756,-19.06178 -9.55803,-31.15301 -24.57764,-35.00085 -19.90882,-5.1004 -36.41116,7.79783 -39.80971,31.11529 -3.01794,20.70611 6.14126,40.56833 21.18153,45.93329 7.50309,2.6764 17.65393,2.05762 24.97081,-1.52218 z m 326.24189,13.26077 c -19.51952,-3.50467 -34.7314,-17.73235 -39.19677,-36.66074 -1.93232,-8.19097 -1.47395,-22.03556 0.99243,-29.97555 4.15517,-13.37666 15.4922,-25.5458 28.43958,-30.52697 8.72388,-3.35629 25.54729,-3.89207 34.72058,-1.10577 22.39303,6.80167 36.38611,27.69174 34.62596,51.69261 -1.998,27.24413 -20.14324,45.38469 -47.01353,47.0014 -4.20245,0.25286 -9.85816,0.0617 -12.56825,-0.42498 z m 22.32192,-12.57547 c 6.5647,-2.91081 11.34875,-7.55355 14.70563,-14.27126 4.08147,-8.16776 5.40018,-15.4707 4.81457,-26.66293 -0.6409,-12.24884 -3.35374,-19.50812 -9.86196,-26.38961 -6.57105,-6.94792 -12.9196,-9.66846 -22.59281,-9.6817 -16.87798,-0.0231 -28.5105,11.1221 -31.76848,30.43757 -3.68615,21.85407 5.22609,41.75077 21.27133,47.48848 6.46633,2.31234 17.08116,1.89532 23.43172,-0.92055 z m -293.41382,7.1294 c 0,-3.13177 0.26747,-3.46883 2.75275,-3.46883 1.51402,0 3.74398,-0.69428 4.95546,-1.54283 l 2.20271,-1.54285 v -34.51069 c 0,-38.02893 0.2884,-36.33091 -6.35366,-37.40877 -2.86402,-0.46477 -3.55726,-1.01425 -3.55726,-2.81963 0,-1.7709 1.69433,-3.20232 8.05841,-6.80798 4.43212,-2.51108 9.32085,-4.56559 10.86381,-4.56559 2.46955,0 2.93532,0.50427 3.89046,4.21214 0.59677,2.31668 1.55594,5.70831 2.13149,7.53695 l 1.04644,3.32479 4.3884,-5.01659 c 2.89603,-3.31062 6.64283,-6.12645 11.01785,-8.28026 6.38267,-3.14217 7.07297,-3.26367 18.54341,-3.26367 11.01505,0 12.29457,0.20083 16.95864,2.66185 5.18215,2.7344 10.19136,7.66524 12.68411,12.48568 2.82351,5.46008 3.5797,14.63911 3.5797,43.45277 0,28.84323 0.0118,29.00729 2.20271,30.54185 1.21148,0.84855 3.44144,1.54283 4.95547,1.54283 2.48527,0 2.75274,0.33706 2.75274,3.46883 v 3.46883 h -18.33521 -18.33521 v -3.46883 c 0,-3.19352 0.23598,-3.46883 2.97327,-3.46883 1.65183,0 3.85425,-0.88097 4.95547,-1.98218 1.89356,-1.89356 1.98218,-3.30364 1.98218,-31.53842 0,-32.0669 -0.48221,-35.66737 -5.502,-41.08099 -3.98038,-4.29266 -7.87945,-5.80081 -14.99708,-5.80081 -11.60342,0 -20.43415,6.09005 -25.98207,17.91833 -2.54516,5.42636 -2.58183,5.83257 -2.88441,31.94927 -0.29656,25.59651 -0.2404,26.51911 1.73441,28.49391 1.15339,1.1534 3.33383,2.04089 5.01416,2.04089 2.7373,0 2.97328,0.27531 2.97328,3.46883 v 3.46883 h -18.33521 -18.33522 z m 345.89137,0.0849 c 0,-3.26718 0.23364,-3.55377 2.89724,-3.55377 1.67096,0 4.18789,-1.08601 5.94656,-2.56583 l 3.04931,-2.56583 V 166.5491 c 0,-54.42401 -0.0318,-55.31985 -2.05411,-57.89082 -1.59614,-2.02918 -2.92195,-2.6114 -5.94656,-2.6114 h -3.89244 v -4.07156 -4.071578 l 29.48502,0.461918 c 26.00168,0.40734 30.39833,0.709445 37.21601,2.55718 18.12474,4.9122 32.56584,16.38939 40.18966,31.9411 5.85166,11.93669 7.42497,18.98297 7.40051,33.14406 -0.0356,20.57208 -5.05215,34.40436 -17.18345,47.37999 -7.71317,8.24999 -16.03424,13.52267 -27.2357,17.25803 -7.78407,2.59575 -8.49391,2.6511 -38.90039,3.0329 l -30.97166,0.3889 v -3.5538 z m 56.61321,-7.95263 c 9.45794,-2.00475 17.32892,-6.35043 23.79793,-13.13918 10.38087,-10.89398 14.74537,-23.59594 14.71656,-42.82943 -0.0306,-20.41955 -4.47139,-33.22967 -15.34473,-44.26405 -9.62801,-9.77062 -18.88906,-13.24286 -35.43156,-13.28433 -10.4286,-0.0262 -12.87316,1.03667 -14.13354,6.14488 -0.30604,1.24034 -0.42889,25.15111 -0.27299,53.13502 l 0.28346,50.87986 2.78077,2.39138 c 2.3876,2.05327 3.78887,2.38895 9.91092,2.37418 3.92158,-0.01 10.08352,-0.64322 13.69318,-1.40833 z m 71.23776,7.93416 c 0,-3.24676 0.23647,-3.5353 2.89724,-3.5353 1.67095,0 4.18788,-1.08601 5.94655,-2.56583 l 3.04933,-2.56583 V 166.5491 c 0,-54.42401 -0.0318,-55.31985 -2.05412,-57.89082 -1.50528,-1.91365 -2.96176,-2.6114 -5.45102,-2.6114 -3.31644,0 -3.39688,-0.0963 -3.39688,-4.06585 V 97.9152 l 31.96272,0.433592 c 29.16162,0.395595 32.51972,0.616916 38.31802,2.525438 7.7565,2.55299 15.8741,7.99028 19.2693,12.90697 10.6581,15.43389 7.6596,33.23607 -7.3741,43.78165 l -5.9906,4.20218 6.2587,2.18883 c 7.9753,2.78922 13.8469,6.68423 17.0344,11.30029 11.3395,16.42115 7.2045,38.55248 -9.257,49.54505 -12.1226,8.09521 -14.4641,8.47111 -55.28546,8.87562 l -35.92708,0.35602 z m 70.48874,-9.18481 c 10.8634,-4.8751 17.0323,-14.35767 16.9567,-26.06545 -0.055,-8.56601 -2.3435,-13.9102 -8.2164,-19.19052 -6.8494,-6.15823 -10.9453,-7.07344 -31.6566,-7.07344 h -17.34411 v 25.11199 25.112 l 2.91498,2.50625 c 2.89378,2.48808 3.02302,2.50315 17.83963,2.08064 12.3537,-0.35227 15.7139,-0.77973 19.5058,-2.48147 z m -8.7748,-64.10393 c 6.6426,-1.99912 10.186,-4.94838 13.0991,-10.90246 3.1313,-6.40004 3.5971,-16.85703 1.0258,-23.02834 -2.4302,-5.83281 -8.1252,-11.11089 -13.8104,-12.7992 -5.6105,-1.66614 -25.45041,-2.00725 -28.29225,-0.48642 -0.99695,0.53359 -2.30566,2.38411 -2.90805,4.11226 -1.18386,3.39611 -1.57356,42.67257 -0.4346,43.81147 1.27604,1.27607 26.6329,0.70344 31.3204,-0.70731 z m 64.0004,74.45621 c -3.4671,-2.93082 -4.8011,-5.76034 -4.8011,-10.18348 0,-9.21941 10.3886,-15.34779 18.8011,-11.09104 3.3566,1.69849 6.9673,7.33155 6.9673,10.86975 0,4.28151 -2.8344,9.54366 -6.031,11.19667 -4.3594,2.25434 -11.7993,1.85988 -14.9363,-0.7919 z m 12.5645,-0.31943 c 10.1257,-4.80497 6.5307,-20.24082 -4.7142,-20.24082 -5.1527,0 -10.6692,5.09866 -10.6692,9.86104 0,4.5119 2.6245,8.91184 6.2585,10.49238 4.0944,1.78079 5.1626,1.76761 9.1249,-0.1126 z m -9.6846,-4.04863 c 0.7737,-0.31221 1.2389,-2.4844 1.2389,-5.78571 0,-3.30133 -0.4652,-5.47352 -1.2389,-5.78573 -0.6814,-0.27494 0.825,-0.5351 3.3475,-0.57813 5.7596,-0.0982 7.7734,1.77434 5.5529,5.16343 -1.358,2.07253 -1.3164,2.52055 0.461,4.96041 l 1.9537,2.68212 h -2.0648 c -1.1357,0 -2.0649,-0.36075 -2.0649,-0.80167 0,-0.44092 -0.6982,-1.6674 -1.5516,-2.72551 -1.4895,-1.84665 -1.5347,-1.81449 -1.1286,0.80167 0.3869,2.49221 0.1592,2.71881 -2.6605,2.64726 -1.6959,-0.043 -2.5261,-0.3032 -1.8447,-0.57814 z m 6.6899,-8.75899 c 0,-0.99935 -0.5575,-2.00284 -1.2389,-2.22996 -0.7846,-0.26154 -1.2389,0.55611 -1.2389,2.22996 0,1.67384 0.4543,2.4915 1.2389,2.22996 0.6814,-0.22713 1.2389,-1.23061 1.2389,-2.22996 z"
     id="path5721" />
</svg>
