<?xml version="1.0" encoding="UTF-8" standalone="no"?>
<svg
   id="Layer_1"
   data-name="Layer 1"
   viewBox="0 0 50.000001 50"
   version="1.1"
   sodipodi:docname="mongodb.svg"
   width="50"
   height="50"
   inkscape:version="1.1.2 (0a00cf5339, 2022-02-04, custom)"
   xmlns:inkscape="http://www.inkscape.org/namespaces/inkscape"
   xmlns:sodipodi="http://sodipodi.sourceforge.net/DTD/sodipodi-0.dtd"
   xmlns="http://www.w3.org/2000/svg"
   xmlns:svg="http://www.w3.org/2000/svg"
   xmlns:rdf="http://www.w3.org/1999/02/22-rdf-syntax-ns#"
   xmlns:cc="http://creativecommons.org/ns#"
   xmlns:dc="http://purl.org/dc/elements/1.1/">
  <sodipodi:namedview
     id="namedview5369"
     pagecolor="#505050"
     bordercolor="#ffffff"
     borderopacity="1"
     inkscape:pageshadow="0"
     inkscape:pageopacity="0"
     inkscape:pagecheckerboard="1"
     showgrid="false"
     inkscape:zoom="17.012251"
     inkscape:cx="-14.930417"
     inkscape:cy="25.746152"
     inkscape:window-width="3840"
     inkscape:window-height="2083"
     inkscape:window-x="0"
     inkscape:window-y="48"
     inkscape:window-maximized="1"
     inkscape:current-layer="Layer_1" />
  <defs
     id="defs5342">
    <style
       id="style5340">.cls-1{fill:#10aa50;}.cls-2{fill:#b8c4c2;}.cls-3{fill:#12924f;}.cls-4{fill:#21313c;}</style>
    <style
       id="style1482">.cls-1{fill:#1b1b1f;}</style>
    <style
       id="style5340-2">.cls-1{fill:#10aa50;}.cls-2{fill:#b8c4c2;}.cls-3{fill:#12924f;}.cls-4{fill:#21313c;}</style>
  </defs>
  <title
     id="title5344">MongoDB_Logo_FullColorBlack_RGB</title>
  <metadata
     id="metadata5371">
    <rdf:RDF>
      <cc:Work
         rdf:about="">
        <dc:title>MongoDB_Logo_FullColorBlack_RGB</dc:title>
      </cc:Work>
    </rdf:RDF>
  </metadata>
  <path
     style="fill:#ffffff;fill-opacity:1;stroke:#090909;stroke-width:7.72049;stroke-linecap:round;stroke-linejoin:round;stroke-miterlimit:4;stroke-dasharray:none;stroke-opacity:1;paint-order:stroke fill markers"
     d="m 24.302011,45.820929 c -0.0047,-0.163382 -0.100225,-1.266244 -0.213541,-2.450803 l -0.206051,-2.153734 -0.612704,-0.53796 c -0.336985,-0.295881 -0.785222,-0.673668 -0.996068,-0.839524 -0.603988,-0.475083 -2.6063,-2.904652 -3.509587,-4.258427 -1.580512,-2.368791 -2.668953,-4.91835 -3.262639,-7.642445 -0.462063,-2.120107 -0.397365,-5.756882 0.143991,-8.093972 0.817051,-3.527239 2.584246,-7.172181 5.035377,-10.3857586 2.610919,-3.423046 4.305484,-5.5980604 4.361488,-5.5980604 0.03197,0 0.335562,0.3882884 0.674624,0.8628584 0.339063,0.47457 1.310325,1.729333 2.158354,2.78836 3.833421,4.7872066 5.967611,8.9852656 6.69845,13.1761836 0.369328,2.117867 0.33268,5.333731 -0.08424,7.388931 -0.851611,4.19835 -3.279278,8.385185 -6.828475,11.776577 l -1.461467,1.396479 -0.246526,2.383644 -0.246538,2.383645 -0.698496,0.05052 c -0.580653,0.042 -0.699768,4.9e-4 -0.705987,-0.246538 z m 1.242466,-5.640998 0.474722,-0.495502 -0.463218,-10.39291 c -0.254775,-5.716115 -0.491535,-10.423735 -0.526153,-10.46141 -0.03465,-0.03769 -0.06441,0.03629 -0.06627,0.164362 -0.0023,0.128053 -0.218081,4.855275 -0.480556,10.504931 l -0.477242,10.272091 0.429136,0.45197 c 0.236025,0.248591 0.475422,0.45197 0.531987,0.45197 0.05659,0 0.316485,-0.222969 0.577572,-0.495502 z"
     id="path5721"
     sodipodi:nodetypes="cccsscssssssscscccsccccsscscsssc" />
</svg>
