<?xml version="1.0" encoding="UTF-8" standalone="no"?>
<!-- Created with Inkscape (http://www.inkscape.org/) -->

<svg
   version="1.1"
   id="svg3808"
   xml:space="preserve"
   width="609.828"
   height="381.28601"
   viewBox="0 0 609.828 381.28601"
   sodipodi:docname="node-js.svg"
   inkscape:version="1.1.2 (0a00cf5339, 2022-02-04, custom)"
   xmlns:inkscape="http://www.inkscape.org/namespaces/inkscape"
   xmlns:sodipodi="http://sodipodi.sourceforge.net/DTD/sodipodi-0.dtd"
   xmlns="http://www.w3.org/2000/svg"
   xmlns:svg="http://www.w3.org/2000/svg"><defs
     id="defs3812"><clipPath
       clipPathUnits="userSpaceOnUse"
       id="clipPath3822"><path
         d="M 0,600 H 600 V 0 H 0 Z"
         id="path3820" /></clipPath><linearGradient
       x1="0"
       y1="0"
       x2="1"
       y2="0"
       gradientUnits="userSpaceOnUse"
       gradientTransform="matrix(-38.064877,-77.652351,-77.652351,38.064877,258.70169,355.28543)"
       spreadMethod="pad"
       id="linearGradient3870"><stop
         style="stop-opacity:1;stop-color:#687e67"
         offset="0"
         id="stop3864" /><stop
         style="stop-opacity:1;stop-color:#687e67"
         offset="0.5288042"
         id="stop3866" /><stop
         style="stop-opacity:1;stop-color:#83a178"
         offset="1"
         id="stop3868" /></linearGradient><linearGradient
       x1="0"
       y1="0"
       x2="1"
       y2="0"
       gradientUnits="userSpaceOnUse"
       gradientTransform="matrix(106.80725,78.914902,78.914902,-106.80725,235.15767,314.64658)"
       spreadMethod="pad"
       id="linearGradient3896"><stop
         style="stop-opacity:1;stop-color:#687e67"
         offset="0"
         id="stop3886" /><stop
         style="stop-opacity:1;stop-color:#687e67"
         offset="0.137556"
         id="stop3888" /><stop
         style="stop-opacity:1;stop-color:#9bb48f"
         offset="0.69737407"
         id="stop3890" /><stop
         style="stop-opacity:1;stop-color:#9bb48f"
         offset="0.908084"
         id="stop3892" /><stop
         style="stop-opacity:1;stop-color:#9bb48f"
         offset="1"
         id="stop3894" /></linearGradient><clipPath
       clipPathUnits="userSpaceOnUse"
       id="clipPath3906"><path
         d="m 239.032,373.393 -42.134,-24.315 c -1.575,-0.909 -2.545,-2.588 -2.545,-4.407 v -48.666 c 0,-1.818 0.97,-3.497 2.544,-4.408 l 42.133,-24.334 c 1.576,-0.909 3.516,-0.909 5.091,0 l 42.124,24.334 c 1.574,0.911 2.543,2.59 2.543,4.408 v 48.668 c 0,1.817 -0.969,3.496 -2.545,4.405 l -42.123,24.315 c -0.787,0.454 -1.666,0.682 -2.544,0.682 -0.879,0 -1.757,-0.228 -2.544,-0.682"
         id="path3904" /></clipPath><linearGradient
       x1="0"
       y1="0"
       x2="1"
       y2="0"
       gradientUnits="userSpaceOnUse"
       gradientTransform="matrix(97.416992,0,0,-97.416992,192.8623,382.16568)"
       spreadMethod="pad"
       id="linearGradient3930"><stop
         style="stop-opacity:1;stop-color:#9bb48f"
         offset="0"
         id="stop3920" /><stop
         style="stop-opacity:1;stop-color:#9bb48f"
         offset="0.0919165"
         id="stop3922" /><stop
         style="stop-opacity:1;stop-color:#9bb48f"
         offset="0.30262629"
         id="stop3924" /><stop
         style="stop-opacity:1;stop-color:#687e67"
         offset="0.862444"
         id="stop3926" /><stop
         style="stop-opacity:1;stop-color:#687e67"
         offset="1"
         id="stop3928" /></linearGradient><linearGradient
       x1="0"
       y1="0"
       x2="1"
       y2="0"
       gradientUnits="userSpaceOnUse"
       gradientTransform="matrix(97.416992,0,0,-97.416992,192.8623,320.34848)"
       spreadMethod="pad"
       id="linearGradient3956"><stop
         style="stop-opacity:1;stop-color:#9bb48f"
         offset="0"
         id="stop3946" /><stop
         style="stop-opacity:1;stop-color:#9bb48f"
         offset="0.0919165"
         id="stop3948" /><stop
         style="stop-opacity:1;stop-color:#9bb48f"
         offset="0.30262629"
         id="stop3950" /><stop
         style="stop-opacity:1;stop-color:#687e67"
         offset="0.862444"
         id="stop3952" /><stop
         style="stop-opacity:1;stop-color:#687e67"
         offset="1"
         id="stop3954" /></linearGradient><clipPath
       clipPathUnits="userSpaceOnUse"
       id="clipPath3966"><path
         d="m 239.032,373.393 -42.134,-24.315 c -1.575,-0.909 -2.545,-2.588 -2.545,-4.407 v -48.666 c 0,-1.818 0.97,-3.497 2.544,-4.408 l 42.133,-24.334 c 1.576,-0.909 3.516,-0.909 5.091,0 l 42.124,24.334 c 1.574,0.911 2.543,2.59 2.543,4.408 v 48.668 c 0,1.817 -0.969,3.496 -2.545,4.405 l -42.123,24.315 c -0.787,0.454 -1.666,0.682 -2.544,0.682 -0.879,0 -1.757,-0.228 -2.544,-0.682"
         id="path3964" /></clipPath><linearGradient
       x1="0"
       y1="0"
       x2="1"
       y2="0"
       gradientUnits="userSpaceOnUse"
       gradientTransform="matrix(97.416992,0,0,-97.416992,192.8623,292.53787)"
       spreadMethod="pad"
       id="linearGradient3990"><stop
         style="stop-opacity:1;stop-color:#9bb48f"
         offset="0"
         id="stop3980" /><stop
         style="stop-opacity:1;stop-color:#9bb48f"
         offset="0.0919165"
         id="stop3982" /><stop
         style="stop-opacity:1;stop-color:#9bb48f"
         offset="0.30262629"
         id="stop3984" /><stop
         style="stop-opacity:1;stop-color:#687e67"
         offset="0.862444"
         id="stop3986" /><stop
         style="stop-opacity:1;stop-color:#687e67"
         offset="1"
         id="stop3988" /></linearGradient><clipPath
       clipPathUnits="userSpaceOnUse"
       id="clipPath4000"><path
         d="m 239.032,373.393 -42.134,-24.315 c -1.575,-0.909 -2.545,-2.588 -2.545,-4.407 v -48.666 c 0,-1.818 0.97,-3.497 2.544,-4.408 l 42.133,-24.334 c 1.576,-0.909 3.516,-0.909 5.091,0 l 42.124,24.334 c 1.574,0.911 2.543,2.59 2.543,4.408 v 48.668 c 0,1.817 -0.969,3.496 -2.545,4.405 l -42.123,24.315 c -0.787,0.454 -1.666,0.682 -2.544,0.682 -0.879,0 -1.757,-0.228 -2.544,-0.682"
         id="path3998" /></clipPath><linearGradient
       x1="0"
       y1="0"
       x2="1"
       y2="0"
       gradientUnits="userSpaceOnUse"
       gradientTransform="matrix(97.416992,0,0,-97.416992,192.8623,279.9682)"
       spreadMethod="pad"
       id="linearGradient4024"><stop
         style="stop-opacity:1;stop-color:#9bb48f"
         offset="0"
         id="stop4014" /><stop
         style="stop-opacity:1;stop-color:#9bb48f"
         offset="0.0919165"
         id="stop4016" /><stop
         style="stop-opacity:1;stop-color:#9bb48f"
         offset="0.30262629"
         id="stop4018" /><stop
         style="stop-opacity:1;stop-color:#687e67"
         offset="0.862444"
         id="stop4020" /><stop
         style="stop-opacity:1;stop-color:#687e67"
         offset="1"
         id="stop4022" /></linearGradient><clipPath
       clipPathUnits="userSpaceOnUse"
       id="clipPath4034"><path
         d="m 239.032,373.393 -42.134,-24.315 c -1.575,-0.909 -2.545,-2.588 -2.545,-4.407 v -48.666 c 0,-1.818 0.97,-3.497 2.544,-4.408 l 42.133,-24.334 c 1.576,-0.909 3.516,-0.909 5.091,0 l 42.124,24.334 c 1.574,0.911 2.543,2.59 2.543,4.408 v 48.668 c 0,1.817 -0.969,3.496 -2.545,4.405 l -42.123,24.315 c -0.787,0.454 -1.666,0.682 -2.544,0.682 -0.879,0 -1.757,-0.228 -2.544,-0.682"
         id="path4032" /></clipPath><linearGradient
       x1="0"
       y1="0"
       x2="1"
       y2="0"
       gradientUnits="userSpaceOnUse"
       gradientTransform="matrix(-60.080605,-122.56444,-122.56444,60.080605,304.47177,357.58765)"
       spreadMethod="pad"
       id="linearGradient4054"><stop
         style="stop-opacity:1;stop-color:#687e67"
         offset="0"
         id="stop4048" /><stop
         style="stop-opacity:1;stop-color:#687e67"
         offset="0.5288042"
         id="stop4050" /><stop
         style="stop-opacity:1;stop-color:#83a178"
         offset="1"
         id="stop4052" /></linearGradient></defs><sodipodi:namedview
     id="namedview3810"
     pagecolor="#505050"
     bordercolor="#ffffff"
     borderopacity="1"
     inkscape:pageshadow="0"
     inkscape:pageopacity="0"
     inkscape:pagecheckerboard="1"
     showgrid="false"
     inkscape:zoom="1.09125"
     inkscape:cx="9.163803"
     inkscape:cy="420.61856"
     inkscape:window-width="3840"
     inkscape:window-height="2083"
     inkscape:window-x="0"
     inkscape:window-y="48"
     inkscape:window-maximized="1"
     inkscape:current-layer="g3814" /><g
     id="g3814"
     inkscape:groupmode="layer"
     inkscape:label="nodejs"
     transform="matrix(1.3333333,0,0,-1.3333333,0,800)"><g
       id="g3900"><g
         id="g3902"
         clip-path="url(#clipPath3906)"><g
           id="g3908"><g
             id="g3910"><g
               id="g3916"><g
                 id="g3918"><path
                   d="M 237.627,382.331 237.047,382 h 0.774 z"
                   style="fill:url(#linearGradient3930);stroke:none"
                   id="path3932" /></g></g></g></g></g></g><g
       id="g3960"><g
         id="g3962"
         clip-path="url(#clipPath3966)"><g
           id="g3968"><g
             id="g3970"><g
               id="g3976"><g
                 id="g3978"><path
                   d="M 290.279,292.38 290,292.857 v -0.639 z"
                   style="fill:url(#linearGradient3990);stroke:none"
                   id="path3992" /></g></g></g></g></g></g><g
       id="g5151"
       transform="translate(-70.8058,156.52175)"><g
         id="g5016"
         transform="translate(-94.29928,-360.80378)"><path
           d="m 391.25248,525.81787 c -1.46,0 -2.912,0.381 -4.19,1.121 l -13.338,7.892 c -1.991,1.114 -1.019,1.509 -0.362,1.738 2.657,0.922 3.195,1.135 6.031,2.743 0.295,0.167 0.687,0.103 0.992,-0.076 l 10.247,-6.083 c 0.371,-0.206 0.895,-0.206 1.237,0 l 39.95,23.058 c 0.372,0.212 0.61,0.64 0.61,1.081 v 46.104 c 0,0.451 -0.238,0.872 -0.62,1.101 l -39.933,23.038 c -0.369,0.216 -0.859,0.216 -1.231,0 l -39.923,-23.045 c -0.388,-0.222 -0.634,-0.657 -0.634,-1.094 v -46.104 c 0,-0.441 0.246,-0.859 0.63,-1.068 l 10.944,-6.323 c 5.938,-2.969 9.574,0.528 9.574,4.041 v 45.519 c 0,0.644 0.517,1.151 1.161,1.151 h 5.065 c 0.634,0 1.158,-0.507 1.158,-1.151 v -45.519 c 0,-7.925 -4.316,-12.47 -11.829,-12.47 -2.309,0 -4.127,0 -9.202,2.501 l -10.476,6.031 c -2.588,1.496 -4.19,4.293 -4.19,7.288 v 46.104 c 0,2.995 1.602,5.792 4.19,7.281 l 39.949,23.085 c 2.528,1.429 5.888,1.429 8.396,0 l 39.947,-23.085 c 2.587,-1.496 4.196,-4.286 4.196,-7.281 v -46.104 c 0,-2.995 -1.609,-5.782 -4.196,-7.288 l -39.947,-23.065 c -1.277,-0.74 -2.726,-1.121 -4.206,-1.121"
           style="fill:#000000;fill-opacity:1;fill-rule:nonzero;stroke:#000000;stroke-width:15;stroke-linecap:round;stroke-linejoin:round;stroke-miterlimit:4;stroke-dasharray:none;stroke-opacity:1;paint-order:stroke fill markers"
           id="path4362" /><path
           d="m 403.59268,557.58067 c -17.482,0 -21.144,8.024 -21.144,14.755 0,0.64 0.514,1.151 1.154,1.151 h 5.165 c 0.577,0 1.058,-0.415 1.148,-0.978 0.78,-5.258 3.105,-7.912 13.677,-7.912 8.416,0 11.999,1.904 11.999,6.369 0,2.574 -1.016,4.485 -14.095,5.766 -10.931,1.081 -17.692,3.496 -17.692,12.24 0,8.061 6.794,12.868 18.186,12.868 12.798,0 19.131,-4.442 19.933,-13.972 0.03,-0.329 -0.086,-0.644 -0.305,-0.889 -0.219,-0.229 -0.524,-0.369 -0.846,-0.369 h -5.185 c -0.537,0 -1.012,0.382 -1.121,0.903 -1.244,5.533 -4.269,7.301 -12.476,7.301 -9.189,0 -10.257,-3.201 -10.257,-5.6 0,-2.906 1.26,-3.751 13.667,-5.393 12.277,-1.623 18.109,-3.921 18.109,-12.55 0,-8.704 -7.258,-13.69 -19.917,-13.69"
           style="fill:#000000;fill-opacity:1;fill-rule:nonzero;stroke:#000000;stroke-width:15;stroke-linecap:round;stroke-linejoin:round;stroke-miterlimit:4;stroke-dasharray:none;stroke-opacity:1;paint-order:stroke fill markers"
           id="path4366" /></g><g
         id="g4402"
         style="fill:#000000;fill-opacity:1;stroke:#000000;stroke-width:15;stroke-linecap:round;stroke-linejoin:round;stroke-miterlimit:4;stroke-dasharray:none;stroke-opacity:1;paint-order:stroke fill markers"
         transform="translate(1.29,0.01996378)"><g
           id="g4400"
           style="fill:#000000;fill-opacity:1;stroke:#000000;stroke-width:15;stroke-linecap:round;stroke-linejoin:round;stroke-miterlimit:4;stroke-dasharray:none;stroke-opacity:1;paint-order:stroke fill markers"><g
             id="g4398"
             style="fill:#000000;fill-opacity:1;stroke:#000000;stroke-width:15;stroke-linecap:round;stroke-linejoin:round;stroke-miterlimit:4;stroke-dasharray:none;stroke-opacity:1;paint-order:stroke fill markers"><g
               id="g4396"
               style="fill:#000000;fill-opacity:1;stroke:#000000;stroke-width:15;stroke-linecap:round;stroke-linejoin:round;stroke-miterlimit:4;stroke-dasharray:none;stroke-opacity:1;paint-order:stroke fill markers"><path
                 d="m 239.032,373.393 -42.134,-24.315 c -1.576,-0.909 -2.545,-2.588 -2.545,-4.407 v 0 -48.666 c 0,-1.818 0.969,-3.497 2.544,-4.408 v 0 l 42.133,-24.334 c 1.576,-0.909 3.516,-0.909 5.091,0 v 0 l 42.124,24.334 c 1.574,0.911 2.543,2.59 2.543,4.408 v 0 48.668 c 0,1.817 -0.969,3.496 -2.545,4.405 v 0 l -42.123,24.315 c -0.787,0.454 -1.666,0.682 -2.544,0.682 v 0 c -0.879,0 -1.757,-0.228 -2.544,-0.682"
                 style="fill:#000000;fill-opacity:1;stroke:#000000;stroke-width:15;stroke-linecap:round;stroke-linejoin:round;stroke-miterlimit:4;stroke-dasharray:none;stroke-opacity:1;paint-order:stroke fill markers"
                 id="path4394" /></g></g></g></g><g
         id="g5020"><path
           d="m 296.9532,165.0556 c -1.46,0 -2.912,0.381 -4.19,1.121 l -13.338,7.892 c -1.991,1.114 -1.019,1.509 -0.362,1.738 2.657,0.922 3.195,1.135 6.031,2.743 0.295,0.167 0.687,0.103 0.992,-0.076 l 10.247,-6.083 c 0.371,-0.206 0.895,-0.206 1.237,0 l 39.95,23.058 c 0.372,0.212 0.61,0.64 0.61,1.081 v 46.104 c 0,0.451 -0.238,0.872 -0.62,1.101 l -39.933,23.038 c -0.369,0.216 -0.859,0.216 -1.231,0 l -39.923,-23.045 c -0.388,-0.222 -0.634,-0.657 -0.634,-1.094 v -46.104 c 0,-0.441 0.246,-0.859 0.63,-1.068 l 10.944,-6.323 c 5.938,-2.969 9.574,0.528 9.574,4.041 v 45.519 c 0,0.644 0.517,1.151 1.161,1.151 h 5.065 c 0.634,0 1.158,-0.507 1.158,-1.151 v -45.519 c 0,-7.925 -4.316,-12.47 -11.829,-12.47 -2.309,0 -4.127,0 -9.202,2.501 l -10.476,6.031 c -2.588,1.496 -4.19,4.293 -4.19,7.288 v 46.104 c 0,2.995 1.602,5.792 4.19,7.281 l 39.949,23.085 c 2.528,1.429 5.888,1.429 8.396,0 l 39.947,-23.085 c 2.587,-1.496 4.196,-4.286 4.196,-7.281 v -46.104 c 0,-2.995 -1.609,-5.782 -4.196,-7.288 l -39.947,-23.065 c -1.277,-0.74 -2.726,-1.121 -4.206,-1.121"
           style="fill:#689f63;fill-opacity:1;fill-rule:nonzero;stroke:none"
           id="path3826" /><path
           d="m 309.2934,196.8184 c -17.482,0 -21.144,8.024 -21.144,14.755 0,0.64 0.514,1.151 1.154,1.151 h 5.165 c 0.577,0 1.058,-0.415 1.148,-0.978 0.78,-5.258 3.105,-7.912 13.677,-7.912 8.416,0 11.999,1.904 11.999,6.369 0,2.574 -1.016,4.485 -14.095,5.766 -10.931,1.081 -17.692,3.496 -17.692,12.24 0,8.061 6.794,12.868 18.186,12.868 12.798,0 19.131,-4.442 19.933,-13.972 0.03,-0.329 -0.086,-0.644 -0.305,-0.889 -0.219,-0.229 -0.524,-0.369 -0.846,-0.369 h -5.185 c -0.537,0 -1.012,0.382 -1.121,0.903 -1.244,5.533 -4.269,7.301 -12.476,7.301 -9.189,0 -10.257,-3.201 -10.257,-5.6 0,-2.906 1.26,-3.751 13.667,-5.393 12.277,-1.623 18.109,-3.921 18.109,-12.55 0,-8.704 -7.258,-13.69 -19.917,-13.69"
           style="fill:#689f63;fill-opacity:1;fill-rule:nonzero;stroke:none"
           id="path3830" /></g><path
         d="m 357.9388,245.6999 h 1.343 c 1.098,0 1.304,0.773 1.304,1.221 0,1.183 -0.816,1.183 -1.264,1.183 h -1.383 z m -1.632,3.789 h 2.975 c 1.019,0 3.016,0 3.016,-2.283 0,-1.589 -1.019,-1.914 -1.632,-2.118 1.184,-0.081 1.264,-0.856 1.426,-1.955 0.083,-0.692 0.206,-1.875 0.448,-2.281 h -1.831 c -0.043,0.406 -0.329,2.607 -0.329,2.728 -0.119,0.49 -0.285,0.733 -0.895,0.733 h -1.506 v -3.461 h -1.672 z m -3.563,-4.298 c 0,-3.586 2.893,-6.479 6.436,-6.479 3.586,0 6.478,2.954 6.478,6.479 0,3.584 -2.932,6.436 -6.478,6.436 -3.503,0 -6.436,-2.81 -6.436,-6.436 m 14.155,-0.022 c 0,-4.236 -3.464,-7.699 -7.699,-7.699 -4.197,0 -7.7,3.422 -7.7,7.699 0,4.359 3.586,7.701 7.7,7.701 4.156,0 7.699,-3.342 7.699,-7.701"
         style="fill:#689f63;fill-opacity:1;fill-rule:nonzero;stroke:none"
         id="path3834" /><path
         d="m 173.2428,345.43287 c 0,1.841 -0.969,3.533 -2.558,4.445 l -42.355,24.375 c -0.716,0.422 -1.519,0.641 -2.331,0.674 h -0.438 c -0.81,-0.033 -1.612,-0.252 -2.339,-0.674 l -42.355,-24.375 c -1.579,-0.912 -2.561,-2.604 -2.561,-4.445 l 0.093,-65.635 c 0,-0.913 0.474,-1.762 1.277,-2.21 0.786,-0.471 1.758,-0.471 2.541,0 l 25.172,14.414 c 1.592,0.945 2.561,2.614 2.561,4.439 v 30.664 c 0,1.828 0.968,3.52 2.554,4.429 l 10.718,6.173 c 0.799,0.461 1.672,0.687 2.564,0.687 0.873,0 1.768,-0.226 2.544,-0.687 l 10.715,-6.173 c 1.586,-0.909 2.558,-2.601 2.558,-4.429 v -30.664 c 0,-1.825 0.982,-3.504 2.564,-4.439 l 25.165,-14.414 c 0.789,-0.471 1.775,-0.471 2.557,0 0.78,0.448 1.271,1.297 1.271,2.21 z"
         style="fill:#000000;fill-opacity:1;fill-rule:evenodd;stroke:#000000;stroke-width:15;stroke-linecap:round;stroke-linejoin:round;stroke-miterlimit:4;stroke-dasharray:none;stroke-opacity:1;paint-order:stroke fill markers"
         id="path4374" /><path
         d="m 173.2428,345.4329 c 0,1.841 -0.969,3.533 -2.558,4.445 l -42.355,24.375 c -0.716,0.422 -1.519,0.641 -2.331,0.674 h -0.438 c -0.81,-0.033 -1.612,-0.252 -2.339,-0.674 l -42.355,-24.375 c -1.579,-0.912 -2.561,-2.604 -2.561,-4.445 l 0.093,-65.635 c 0,-0.913 0.474,-1.762 1.277,-2.21 0.786,-0.471 1.758,-0.471 2.541,0 l 25.172,14.414 c 1.592,0.945 2.561,2.614 2.561,4.439 v 30.664 c 0,1.828 0.968,3.52 2.554,4.429 l 10.718,6.173 c 0.799,0.461 1.672,0.687 2.564,0.687 0.873,0 1.768,-0.226 2.544,-0.687 l 10.715,-6.173 c 1.586,-0.909 2.558,-2.601 2.558,-4.429 v -30.664 c 0,-1.825 0.982,-3.504 2.564,-4.439 l 25.165,-14.414 c 0.789,-0.471 1.775,-0.471 2.557,0 0.78,0.448 1.271,1.297 1.271,2.21 z"
         style="fill:#ffffff;fill-opacity:1;fill-rule:evenodd;stroke:none"
         id="path3838" /><path
         d="m 373.1093,311.25659 c 0,-0.456 -0.244,-0.879 -0.64,-1.106 l -14.548,-8.386 c -0.395,-0.227 -0.882,-0.227 -1.277,0 l -14.548,8.386 c -0.397,0.227 -0.64,0.65 -0.64,1.106 v 16.799 c 0,0.456 0.243,0.879 0.639,1.108 l 14.547,8.402 c 0.397,0.229 0.884,0.229 1.281,0 l 14.547,-8.402 c 0.395,-0.229 0.639,-0.652 0.639,-1.108 z m 3.931,124.403 c -0.793,0.44 -1.76,0.431 -2.543,-0.029 -0.781,-0.459 -1.262,-1.299 -1.262,-2.206 v -65 c 0,-0.639 -0.342,-1.231 -0.894,-1.551 -0.554,-0.32 -1.237,-0.32 -1.791,0 l -10.609,6.112 c -1.582,0.913 -3.529,0.911 -5.112,-10e-4 l -42.371,-24.453 c -1.584,-0.914 -2.559,-2.603 -2.559,-4.431 v -48.916 c 0,-1.828 0.975,-3.516 2.557,-4.432 l 42.37,-24.471 c 1.584,-0.914 3.534,-0.914 5.118,0 l 42.377,24.471 c 1.582,0.916 2.558,2.604 2.558,4.432 v 121.936 c 0,1.854 -1.004,3.564 -2.624,4.468 z"
         style="fill:#000000;fill-opacity:1;fill-rule:evenodd;stroke:#000000;stroke-width:15;stroke-linecap:round;stroke-linejoin:round;stroke-miterlimit:4;stroke-dasharray:none;stroke-opacity:1;paint-order:stroke fill markers"
         id="path4378" /><path
         d="m 373.1093,311.2569 c 0,-0.456 -0.244,-0.879 -0.64,-1.106 l -14.548,-8.386 c -0.395,-0.227 -0.882,-0.227 -1.277,0 l -14.548,8.386 c -0.397,0.227 -0.64,0.65 -0.64,1.106 v 16.799 c 0,0.456 0.243,0.879 0.639,1.108 l 14.547,8.402 c 0.397,0.229 0.884,0.229 1.281,0 l 14.547,-8.402 c 0.395,-0.229 0.639,-0.652 0.639,-1.108 z m 3.931,124.403 c -0.793,0.44 -1.76,0.431 -2.543,-0.029 -0.781,-0.459 -1.262,-1.299 -1.262,-2.206 v -65 c 0,-0.639 -0.342,-1.231 -0.894,-1.551 -0.554,-0.32 -1.237,-0.32 -1.791,0 l -10.609,6.112 c -1.582,0.913 -3.529,0.911 -5.112,-0.001 l -42.371,-24.453 c -1.584,-0.914 -2.559,-2.603 -2.559,-4.431 v -48.916 c 0,-1.828 0.975,-3.516 2.557,-4.432 l 42.37,-24.471 c 1.584,-0.914 3.534,-0.914 5.118,0 l 42.377,24.471 c 1.582,0.916 2.558,2.604 2.558,4.432 v 121.936 c 0,1.854 -1.004,3.564 -2.624,4.468 z"
         style="fill:#ffffff;fill-opacity:1;fill-rule:evenodd;stroke:none"
         id="path3842" /><path
         d="m 472.8422,330.7856 c 0.304,0.176 0.678,0.176 0.982,0 l 8.13,-4.69 c 0.304,-0.176 0.491,-0.5 0.491,-0.851 v -9.388 c 0,-0.352 -0.187,-0.675 -0.491,-0.851 l -8.13,-4.691 c -0.304,-0.176 -0.678,-0.176 -0.982,0 l -8.124,4.691 c -0.304,0.176 -0.491,0.499 -0.491,0.851 v 9.388 c 0,0.351 0.187,0.675 0.491,0.851 z"
         style="fill:#000000;fill-opacity:1;fill-rule:evenodd;stroke:#000000;stroke-width:15;stroke-linecap:round;stroke-linejoin:round;stroke-miterlimit:4;stroke-dasharray:none;stroke-opacity:1;paint-order:stroke fill markers"
         id="path4386" /><path
         d="m 518.131,328.49573 c 1.576,0.915 2.546,2.601 2.546,4.424 v 11.854 c 0,1.823 -0.97,3.51 -2.548,4.425 l -42.099,24.443 c -1.584,0.921 -3.539,0.922 -5.127,0.007 l -42.356,-24.453 c -1.583,-0.914 -2.558,-2.602 -2.558,-4.43 v -48.903 c 0,-1.84 0.987,-3.537 2.584,-4.446 l 42.093,-23.985 c 1.552,-0.886 3.455,-0.896 5.017,-0.028 l 25.46,14.151 c 0.808,0.45 1.311,1.297 1.316,2.219 0.006,0.923 -0.485,1.777 -1.284,2.236 l -42.625,24.465 c -0.796,0.456 -1.286,1.304 -1.286,2.219 v 15.326 c 0,0.914 0.488,1.76 1.281,2.216 l 13.266,7.648 c 0.789,0.456 1.764,0.456 2.554,0 l 13.272,-7.648 c 0.793,-0.456 1.28,-1.302 1.28,-2.216 v -12.058 c 0,-0.916 0.49,-1.762 1.283,-2.218 0.793,-0.458 1.77,-0.454 2.561,0.005 z"
         style="fill:#000000;fill-opacity:1;fill-rule:evenodd;stroke:#000000;stroke-width:15;stroke-linecap:round;stroke-linejoin:round;stroke-miterlimit:4;stroke-dasharray:none;stroke-opacity:1;paint-order:stroke fill markers"
         id="path4382" /><path
         d="m 518.131,328.495 c 1.576,0.915 2.546,2.601 2.546,4.424 v 11.854 c 0,1.823 -0.97,3.51 -2.548,4.425 l -42.099,24.443 c -1.584,0.921 -3.539,0.922 -5.127,0.007 l -42.356,-24.453 c -1.583,-0.914 -2.558,-2.602 -2.558,-4.43 v -48.903 c 0,-1.84 0.987,-3.537 2.584,-4.446 l 42.093,-23.985 c 1.552,-0.886 3.455,-0.896 5.017,-0.028 l 25.46,14.151 c 0.808,0.45 1.311,1.297 1.316,2.219 0.006,0.923 -0.485,1.777 -1.284,2.236 l -42.625,24.465 c -0.796,0.456 -1.286,1.304 -1.286,2.219 v 15.326 c 0,0.914 0.488,1.76 1.281,2.216 l 13.266,7.648 c 0.789,0.456 1.764,0.456 2.554,0 l 13.272,-7.648 c 0.793,-0.456 1.28,-1.302 1.28,-2.216 v -12.058 c 0,-0.916 0.49,-1.762 1.283,-2.218 0.793,-0.458 1.77,-0.454 2.561,0.005 z"
         style="fill:#ffffff;fill-opacity:1;fill-rule:evenodd;stroke:none"
         id="path3846" /><path
         d="m 472.8422,330.7856 c 0.304,0.176 0.678,0.176 0.982,0 l 8.13,-4.69 c 0.304,-0.176 0.491,-0.5 0.491,-0.851 v -9.388 c 0,-0.352 -0.187,-0.675 -0.491,-0.851 l -8.13,-4.691 c -0.304,-0.176 -0.678,-0.176 -0.982,0 l -8.124,4.691 c -0.304,0.176 -0.491,0.499 -0.491,0.851 v 9.388 c 0,0.351 0.187,0.675 0.491,0.851 z"
         style="fill:#689f63;fill-opacity:1;fill-rule:evenodd;stroke:none"
         id="path3850" /><g
         id="g3852"><g
           id="g3854"><g
             id="g3860"><g
               id="g3862"><path
                 d="m 239.032,373.393 -42.134,-24.315 c -1.576,-0.909 -2.545,-2.588 -2.545,-4.407 v 0 -48.666 c 0,-1.818 0.969,-3.497 2.544,-4.408 v 0 l 42.133,-24.334 c 1.576,-0.909 3.516,-0.909 5.091,0 v 0 l 42.124,24.334 c 1.574,0.911 2.543,2.59 2.543,4.408 v 0 48.668 c 0,1.817 -0.969,3.496 -2.545,4.405 v 0 l -42.123,24.315 c -0.787,0.454 -1.666,0.682 -2.544,0.682 v 0 c -0.879,0 -1.757,-0.228 -2.544,-0.682"
                 style="fill:url(#linearGradient3870);stroke:none"
                 id="path3872" /></g></g></g></g><g
         id="g3874"><g
           id="g3876"><g
             id="g3882"><g
               id="g3884"><path
                 d="m 195.4,292.914 c 0.401,-0.525 0.906,-0.975 1.497,-1.317 v 0 l 36.143,-20.874 6.017,-3.46 c 0.9,-0.519 1.927,-0.739 2.936,-0.665 v 0 c 0.337,0.028 0.673,0.09 1.001,0.185 v 0 l 44.43,81.357 c -0.34,0.365 -0.736,0.682 -1.181,0.938 v 0 l -27.588,15.925 -14.579,8.39 c -0.417,0.24 -0.864,0.413 -1.323,0.526 v 0 z"
                 style="fill:url(#linearGradient3896);stroke:none"
                 id="path3898" /></g></g></g></g><g
         id="g3934"><g
           id="g3936"><g
             id="g3942"><g
               id="g3944"><path
                 d="m 241.065,374.048 c -0.705,-0.07 -1.398,-0.289 -2.033,-0.655 v 0 l -42.014,-24.245 45.293,-82.513 c 0.628,0.091 1.243,0.301 1.81,0.628 v 0 l 42.124,24.334 c 1.301,0.753 2.189,2.031 2.458,3.477 v 0 l -46.178,78.89 c -0.341,0.068 -0.688,0.102 -1.035,0.102 v 0 c -0.142,0 -0.284,-0.006 -0.425,-0.018"
                 style="fill:url(#linearGradient3956);stroke:none"
                 id="path3958" /></g></g></g></g><g
         id="g3994"><g
           id="g3996"
           clip-path="url(#clipPath4000)"><g
             id="g4002"><g
               id="g4004"><g
                 id="g4010"><g
                   id="g4012"><path
                     d="m 286.351,291.597 -42.177,-24.333 c -0.58,-0.335 -1.213,-0.545 -1.861,-0.633 l 0.84,-1.53 46.847,27.117 v 0.639 l -1.158,1.979 c -0.347,-1.348 -1.263,-2.528 -2.491,-3.239"
                     style="fill:url(#linearGradient4024);stroke:none"
                     id="path4026" /></g></g></g></g></g></g><g
         id="g4028"><g
           id="g4030"
           clip-path="url(#clipPath4034)"><g
             id="g4036"><g
               id="g4038"><g
                 id="g4044"><g
                   id="g4046"><path
                     d="m 286.351,291.597 -42.177,-24.333 c -0.58,-0.335 -1.213,-0.545 -1.861,-0.633 l 0.84,-1.53 46.847,27.117 v 0.639 l -1.158,1.979 c -0.347,-1.348 -1.263,-2.528 -2.491,-3.239"
                     style="fill:url(#linearGradient4054);stroke:none"
                     id="path4056" /></g></g></g></g></g></g></g></g></svg>
