<?xml version="1.0" encoding="UTF-8" standalone="no"?>
<svg
   id="Layer_1"
   data-name="Layer 1"
   viewBox="0 0 50.000001 50"
   version="1.1"
   sodipodi:docname="nodejs.svg"
   width="50"
   height="50"
   inkscape:version="1.1.2 (0a00cf5339, 2022-02-04, custom)"
   xmlns:inkscape="http://www.inkscape.org/namespaces/inkscape"
   xmlns:sodipodi="http://sodipodi.sourceforge.net/DTD/sodipodi-0.dtd"
   xmlns="http://www.w3.org/2000/svg"
   xmlns:svg="http://www.w3.org/2000/svg"
   xmlns:rdf="http://www.w3.org/1999/02/22-rdf-syntax-ns#"
   xmlns:cc="http://creativecommons.org/ns#"
   xmlns:dc="http://purl.org/dc/elements/1.1/">
  <sodipodi:namedview
     id="namedview5369"
     pagecolor="#505050"
     bordercolor="#ffffff"
     borderopacity="1"
     inkscape:pageshadow="0"
     inkscape:pageopacity="0"
     inkscape:pagecheckerboard="1"
     showgrid="false"
     inkscape:zoom="8.5061255"
     inkscape:cx="24.335404"
     inkscape:cy="27.274462"
     inkscape:window-width="3840"
     inkscape:window-height="2083"
     inkscape:window-x="0"
     inkscape:window-y="48"
     inkscape:window-maximized="1"
     inkscape:current-layer="Layer_1" />
  <defs
     id="defs5342">
    <style
       id="style5340">.cls-1{fill:#10aa50;}.cls-2{fill:#b8c4c2;}.cls-3{fill:#12924f;}.cls-4{fill:#21313c;}</style>
    <style
       id="style1482">.cls-1{fill:#1b1b1f;}</style>
  </defs>
  <title
     id="title5344">MongoDB_Logo_FullColorBlack_RGB</title>
  <metadata
     id="metadata5371">
    <rdf:RDF>
      <cc:Work
         rdf:about="">
        <dc:title>MongoDB_Logo_FullColorBlack_RGB</dc:title>
      </cc:Work>
    </rdf:RDF>
  </metadata>
  <g
     id="g17876"
     transform="matrix(1.062875,0,0,1.062875,-0.80866852,-2.48193)">
    <path
       style="fill:#000000;fill-opacity:1;stroke:none;stroke-width:1px;stroke-linecap:butt;stroke-linejoin:miter;stroke-opacity:1"
       d="M 24.24231,6.4198623 7.4591955,15.986404 7.6670822,35.093506 24.27374,46.53633 40.490912,35.847013 41.092185,16.170964 Z"
       id="path17592" />
    <path
       d="m 24.27374,46.53633 c -0.549474,0 -1.107154,-0.147624 -1.591023,-0.42646 l -5.060125,-2.993424 c -0.754506,-0.426468 -0.385455,-0.574084 -0.139418,-0.656094 1.008742,-0.352655 1.213774,-0.426467 2.288121,-1.041548 0.114817,-0.0656 0.26244,-0.04099 0.377257,0.03276 l 3.887357,2.304532 c 0.139418,0.08201 0.336244,0.08201 0.467464,0 l 15.14756,-8.742449 c 0.139418,-0.08201 0.229634,-0.24603 0.229634,-0.410057 V 17.118738 c 0,-0.172225 -0.09022,-0.328047 -0.237839,-0.418262 L 24.503373,7.9662315 c -0.139418,-0.08201 -0.328046,-0.08201 -0.467464,0 L 8.9047516,16.708681 c -0.1476237,0.08201 -0.237839,0.24603 -0.237839,0.418255 v 17.476693 c 0,0.164028 0.090215,0.328047 0.237839,0.401859 l 4.1497894,2.394739 c 2.255322,1.123558 3.633122,-0.196826 3.633122,-1.533614 V 18.611347 c 0,-0.246029 0.196826,-0.434658 0.442856,-0.434658 h 1.919077 c 0.237831,0 0.442863,0.188629 0.442863,0.434658 v 17.263464 c 0,3.00163 -1.640233,4.723873 -4.486042,4.723873 -0.877521,0 -1.566421,0 -3.485498,-0.951333 L 7.5515602,37.359223 C 6.5674127,36.793345 5.9605299,35.735393 5.9605299,34.595431 V 17.118738 c 0,-1.131764 0.6068828,-2.197913 1.5910303,-2.763791 L 22.682717,5.6124965 c 0.959531,-0.541276 2.230713,-0.541276 3.182053,0 l 15.147553,8.7506485 c 0.984139,0.565877 1.59103,1.623829 1.59103,2.763791 v 17.476693 c 0,1.131764 -0.606891,2.189716 -1.59103,2.763791 L 25.86477,46.10987 c -0.483875,0.278836 -1.03335,0.42646 -1.59103,0.42646 z M 36.50168,29.305673 c 0,-3.272268 -2.214317,-4.141591 -6.864378,-4.75668 -4.707469,-0.623286 -5.183139,-0.943135 -5.183139,-2.042091 0,-0.910328 0.401858,-2.124102 3.887356,-2.124102 3.108241,0 4.256408,0.672497 4.732071,2.771997 0.04099,0.196826 0.221435,0.34445 0.426467,0.34445 h 1.96828 c 0.123015,0 0.237831,-0.04922 0.319841,-0.139418 0.08202,-0.09022 0.123022,-0.21323 0.114817,-0.336252 -0.303438,-3.616711 -2.706383,-5.297957 -7.561476,-5.297957 -4.322014,0 -6.897184,1.820664 -6.897184,4.879703 0,3.313265 2.566965,4.231799 6.708555,4.641855 4.961712,0.483868 5.347167,1.213773 5.347167,2.189715 0,1.689444 -1.361397,2.411143 -4.551655,2.411143 -4.010363,0 -4.887892,-1.008741 -5.183132,-3.00163 -0.03284,-0.21323 -0.213229,-0.369051 -0.434665,-0.369051 h -1.960082 c -0.246029,0 -0.434657,0.196826 -0.434657,0.434665 0,2.550561 1.385998,5.593196 8.020741,5.593196 4.789479,-0.0082 7.545073,-1.902673 7.545073,-5.199543 z"
       id="path17280"
       style="fill:#ffffff;fill-opacity:1;stroke:#000000;stroke-width:5.682;stroke-linecap:round;stroke-linejoin:round;stroke-miterlimit:4;stroke-dasharray:none;stroke-opacity:1;paint-order:stroke fill markers" />
  </g>
</svg>
