<?xml version="1.0" encoding="UTF-8" standalone="no"?>
<svg
   id="Layer_1"
   data-name="Layer 1"
   viewBox="0 0 84.000002 50"
   version="1.1"
   sodipodi:docname="php.svg"
   width="84"
   height="50"
   inkscape:version="1.1.2 (0a00cf5339, 2022-02-04, custom)"
   xmlns:inkscape="http://www.inkscape.org/namespaces/inkscape"
   xmlns:sodipodi="http://sodipodi.sourceforge.net/DTD/sodipodi-0.dtd"
   xmlns="http://www.w3.org/2000/svg"
   xmlns:svg="http://www.w3.org/2000/svg"
   xmlns:rdf="http://www.w3.org/1999/02/22-rdf-syntax-ns#"
   xmlns:cc="http://creativecommons.org/ns#"
   xmlns:dc="http://purl.org/dc/elements/1.1/">
  <sodipodi:namedview
     id="namedview5369"
     pagecolor="#505050"
     bordercolor="#ffffff"
     borderopacity="1"
     inkscape:pageshadow="0"
     inkscape:pageopacity="0"
     inkscape:pagecheckerboard="1"
     showgrid="false"
     inkscape:zoom="12.029478"
     inkscape:cx="24.190576"
     inkscape:cy="26.601321"
     inkscape:window-width="3840"
     inkscape:window-height="2083"
     inkscape:window-x="0"
     inkscape:window-y="48"
     inkscape:window-maximized="1"
     inkscape:current-layer="Layer_1" />
  <defs
     id="defs5342">
    <style
       id="style5340">.cls-1{fill:#10aa50;}.cls-2{fill:#b8c4c2;}.cls-3{fill:#12924f;}.cls-4{fill:#21313c;}</style>
    <style
       id="style1482">.cls-1{fill:#1b1b1f;}</style>
    <style
       id="style5340-2">.cls-1{fill:#10aa50;}.cls-2{fill:#b8c4c2;}.cls-3{fill:#12924f;}.cls-4{fill:#21313c;}</style>
  </defs>
  <title
     id="title5344">MongoDB_Logo_FullColorBlack_RGB</title>
  <metadata
     id="metadata5371">
    <rdf:RDF>
      <cc:Work
         rdf:about="">
        <dc:title>MongoDB_Logo_FullColorBlack_RGB</dc:title>
      </cc:Work>
    </rdf:RDF>
  </metadata>
  <path
     d="m 41.7559,8.2661761 c 18.93185,0 33.489712,7.9747969 33.489712,16.7338109 0,8.759026 -14.568914,16.733823 -33.489712,16.733823 -18.931849,0 -33.4897244,-7.974797 -33.4897244,-16.733823 0,-8.759014 14.5689144,-16.7338109 33.4897244,-16.7338109 m 0,-1.855626 c -19.517261,0 -35.3453499,8.3171979 -35.3453499,18.5894369 0,10.272251 15.8280889,18.589449 35.3453499,18.589449 19.517249,0 35.345338,-8.317198 35.345338,-18.589449 0,-10.272239 -15.828089,-18.5894369 -35.345338,-18.5894369 z M 30.511654,23.508865 c -0.872579,4.47339 -3.954262,4.009483 -7.742837,4.009483 l 1.513225,-7.798071 c 4.197261,0 7.046971,-0.452854 6.229612,3.788588 z M 17.168786,35.415821 h 4.053677 l 0.960942,-4.948347 c 4.539674,0 7.356255,0.331362 9.96298,-2.109676 2.882853,-2.650894 3.63394,-7.367294 1.579484,-9.731008 -1.071396,-1.237096 -2.79449,-1.844586 -5.136113,-1.844586 H 20.780647 Z M 37.680132,11.822804 h 4.031586 l -0.960955,4.948348 c 3.479304,0 6.704571,-0.254038 8.261977,1.181863 1.634718,1.502173 0.850489,3.424084 -0.916773,12.492368 h -4.086808 c 1.701003,-8.770065 2.021313,-9.499061 1.402771,-10.161784 -0.596451,-0.640633 -1.95504,-0.508088 -5.235527,-0.508088 l -2.076546,10.669872 h -4.031574 z m 24.509791,11.686061 c -0.883631,4.539662 -4.053665,4.009483 -7.742838,4.009483 l 1.513225,-7.798071 c 4.219352,0 7.046972,-0.452854 6.229613,3.788588 z m -13.34287,11.906956 h 4.064717 l 0.960955,-4.948347 c 4.771621,0 7.411476,0.276141 9.962967,-2.109676 2.882854,-2.650894 3.63394,-7.367294 1.579498,-9.731008 -1.07141,-1.237096 -2.794491,-1.844586 -5.136126,-1.844586 h -7.80911 z"
     id="path18782"
     style="fill:#ffffff;fill-opacity:1;stroke:#090909;stroke-width:12.8211;stroke-linecap:round;stroke-linejoin:round;stroke-miterlimit:4;stroke-dasharray:none;stroke-opacity:1;paint-order:stroke fill markers" />
</svg>
