<?xml version="1.0" encoding="UTF-8" standalone="no"?>
<svg
   id="Layer_1"
   data-name="Layer 1"
   viewBox="0 0 50.000001 50"
   version="1.1"
   sodipodi:docname="postman.svg"
   width="50"
   height="50"
   inkscape:version="1.1.2 (0a00cf5339, 2022-02-04, custom)"
   xmlns:inkscape="http://www.inkscape.org/namespaces/inkscape"
   xmlns:sodipodi="http://sodipodi.sourceforge.net/DTD/sodipodi-0.dtd"
   xmlns="http://www.w3.org/2000/svg"
   xmlns:svg="http://www.w3.org/2000/svg"
   xmlns:rdf="http://www.w3.org/1999/02/22-rdf-syntax-ns#"
   xmlns:cc="http://creativecommons.org/ns#"
   xmlns:dc="http://purl.org/dc/elements/1.1/">
  <sodipodi:namedview
     id="namedview5369"
     pagecolor="#505050"
     bordercolor="#ffffff"
     borderopacity="1"
     inkscape:pageshadow="0"
     inkscape:pageopacity="0"
     inkscape:pagecheckerboard="1"
     showgrid="false"
     inkscape:zoom="8"
     inkscape:cx="29.1875"
     inkscape:cy="22.0625"
     inkscape:window-width="1895"
     inkscape:window-height="1012"
     inkscape:window-x="1925"
     inkscape:window-y="58"
     inkscape:window-maximized="0"
     inkscape:current-layer="Layer_1" />
  <defs
     id="defs5342">
    <style
       id="style5340">.cls-1{fill:#10aa50;}.cls-2{fill:#b8c4c2;}.cls-3{fill:#12924f;}.cls-4{fill:#21313c;}</style>
    <style
       id="style1482">.cls-1{fill:#1b1b1f;}</style>
    <style
       id="style5340-2">.cls-1{fill:#10aa50;}.cls-2{fill:#b8c4c2;}.cls-3{fill:#12924f;}.cls-4{fill:#21313c;}</style>
  </defs>
  <title
     id="title5344">MongoDB_Logo_FullColorBlack_RGB</title>
  <metadata
     id="metadata5371">
    <rdf:RDF>
      <cc:Work
         rdf:about="">
        <dc:title>MongoDB_Logo_FullColorBlack_RGB</dc:title>
      </cc:Work>
    </rdf:RDF>
  </metadata>
  <path
     style="fill:#ffffff;fill-opacity:1;stroke:#000000;stroke-width:5.9537;stroke-linecap:round;stroke-linejoin:round;stroke-miterlimit:4;stroke-dasharray:none;stroke-opacity:1;paint-order:stroke fill markers"
     d="M 23.207598,46.961102 C 13.809825,46.180265 5.9135475,39.53308 3.6175467,30.469958 2.7510113,26.657196 2.7843302,22.975029 3.5899123,19.661856 5.1473221,13.322256 9.578939,7.9471961 15.607608,5.0857028 17.544887,4.1661812 20.3907,3.4461211 22.279747,3.171074 c 1.808149,-0.2632687 3.615225,-0.255163 5.395428,-4.334e-4 2.353815,0.3368078 4.811086,1.0221629 6.845306,2.0008649 2.368212,1.139393 4.128576,2.3880783 6.006992,4.2609674 2.256926,2.2502781 3.803692,4.5837761 4.964702,7.4898861 1.583833,3.964475 1.951878,8.625776 1.015686,12.863556 -1.977004,8.949105 -9.399677,15.765954 -18.558341,17.043645 -1.217574,0.169855 -3.513941,0.233547 -4.741922,0.131513 z m -7.28348,-9.285807 c -0.588655,-0.830094 -1.385728,-1.532456 -2.191538,-2.215832 -0.190597,0 -1.832175,1.650339 -1.832175,1.841945 0,0.0859 0.04483,0.18389 0.09963,0.217709 0.09112,0.05627 2.615228,0.271722 3.535421,0.301829 0.312741,0.01026 0.388653,-0.01816 0.388653,-0.145651 z m 0.825183,-0.163825 c 0.09466,-0.113892 0.07741,-0.314949 -0.0936,-1.093203 -0.169317,-0.7704 -0.187653,-0.980031 -0.09546,-1.090966 0.06277,-0.07556 0.675773,-0.42799 1.362199,-0.783235 3.311627,-1.713832 8.060938,-4.926693 8.060938,-5.453134 0,-0.222818 -1.462692,-1.666997 -1.689768,-1.668378 -0.101702,-6.37e-4 -0.884487,0.147658 -1.739526,0.329503 l -1.554618,0.330631 -3.497886,3.482481 c -1.923827,1.915359 -3.497875,3.523221 -3.497875,3.573012 0,0.126941 2.39764,2.512854 2.52521,2.512854 0.05738,0 0.15658,-0.06278 0.220372,-0.139565 z M 28.54614,26.791926 c 1.875818,-1.87835 2.997786,-3.14132 3.859859,-4.344934 0.531199,-0.741659 1.224333,-2.129728 1.310965,-2.625331 0.05151,-0.294735 0.03615,-0.342231 -0.110354,-0.340996 -0.177793,0.0018 -8.818466,7.53293 -8.885202,7.744578 -0.02098,0.06661 0.312025,0.470884 0.740095,0.898335 0.731338,0.730278 0.791255,0.770254 0.993023,0.662464 0.118105,-0.06312 1.059323,-0.960435 2.091614,-1.994116 z m -5.58053,0.675988 c 0.326925,-0.07459 0.687003,-0.156998 0.800163,-0.183027 0.118175,-0.0272 0.205762,-0.116238 0.205762,-0.209212 0,-0.191953 -0.726608,-0.930423 -0.915481,-0.930423 -0.189691,0 -1.27927,1.106043 -1.27927,1.298606 0,0.205675 0.361159,0.212985 1.188826,0.02407 z m 9.449592,-7.338826 c 0.544863,-0.479004 1.048971,-0.983511 1.120237,-1.121126 0.289452,-0.558929 0.08418,-1.309648 -0.446416,-1.63271 -0.323785,-0.197136 -0.882065,-0.233757 -1.190398,-0.07807 -0.249166,0.125795 -8.567225,8.403305 -8.567225,8.525457 0,0.132871 1.027517,1.144461 1.162487,1.144461 0.06407,0 1.649727,-1.342589 3.523606,-2.983539 1.465906,-1.284815 2.932963,-2.568337 4.397709,-3.854467 z M 20.657436,26.27929 c 1.669823,-0.351811 1.942373,-0.437352 1.942373,-0.60958 0,-0.137338 -1.464468,-1.624718 -1.599689,-1.624718 -0.05214,0 -0.604194,0.509842 -1.226735,1.132984 -0.796897,0.797658 -1.115359,1.176032 -1.076015,1.27842 0.07757,0.201927 0.22376,0.188721 1.960066,-0.177106 z m 6.785908,-4.918943 c 3.360391,-3.345777 4.31783,-4.250041 4.551699,-4.298858 0.162882,-0.03399 0.321232,-0.102353 0.351881,-0.151876 0.08889,-0.143616 -0.224914,-0.424267 -0.659825,-0.590123 -0.905635,-0.34536 -2.054549,0.03653 -3.646134,1.211989 -1.502359,1.109537 -3.710598,3.076644 -5.702232,5.079552 -0.967556,0.973031 -1.116491,1.160884 -1.036947,1.307933 0.145043,0.268143 1.62702,1.678413 1.763749,1.678413 0.06723,0 2.037266,-1.906665 4.377809,-4.23703 z m 9.161244,-3.5864 c 0.1971,-0.07877 0.352548,-0.203354 0.352548,-0.2826 0,-0.07799 -0.493818,-0.64053 -1.097374,-1.250146 -0.603557,-0.609623 -1.097376,-1.145912 -1.097376,-1.191765 0,-0.04582 0.661963,-0.74878 1.471029,-1.56206 1.666494,-1.675171 1.660217,-1.658688 0.792824,-2.081788 -0.680701,-0.332043 -1.436441,-0.45508 -2.0896,-0.340198 -2.337889,0.411217 -3.633737,2.889183 -2.596916,4.965885 0.460985,0.92333 1.441829,1.687812 2.427227,1.891808 0.51031,0.10564 1.375752,0.03538 1.837638,-0.149136 z m 1.364127,-0.926544 c 1.091,-1.120266 1.284018,-2.804477 0.471788,-4.116681 -0.456694,-0.737817 -0.413878,-0.754093 -1.900399,0.722325 -0.732813,0.727836 -1.375179,1.400603 -1.427477,1.495038 -0.08188,0.14785 0.06171,0.328659 1.03337,1.301249 0.620655,0.621249 1.168211,1.129542 1.216796,1.129542 0.04858,0 0.321247,-0.239163 0.605922,-0.531473 z"
     id="path33993"
     sodipodi:nodetypes="sccssssssssssccssssccssscscssssccsssssscssccssssccssssccsssccsssssscsssscccsccssscsssssc" />
  <path
     style="fill:#000000"
     id="path33543"
     d="" />
  <path
     style="fill:#000000"
     id="path33339"
     d="" />
</svg>
