<?xml version="1.0" encoding="UTF-8" standalone="no"?>
<svg
   id="Layer_1"
   data-name="Layer 1"
   viewBox="0 0 50.000001 50"
   version="1.1"
   sodipodi:docname="postgresql.svg"
   width="50"
   height="50"
   inkscape:version="1.1.2 (0a00cf5339, 2022-02-04, custom)"
   xmlns:inkscape="http://www.inkscape.org/namespaces/inkscape"
   xmlns:sodipodi="http://sodipodi.sourceforge.net/DTD/sodipodi-0.dtd"
   xmlns="http://www.w3.org/2000/svg"
   xmlns:svg="http://www.w3.org/2000/svg"
   xmlns:rdf="http://www.w3.org/1999/02/22-rdf-syntax-ns#"
   xmlns:cc="http://creativecommons.org/ns#"
   xmlns:dc="http://purl.org/dc/elements/1.1/">
  <sodipodi:namedview
     id="namedview5369"
     pagecolor="#505050"
     bordercolor="#ffffff"
     borderopacity="1"
     inkscape:pageshadow="0"
     inkscape:pageopacity="0"
     inkscape:pagecheckerboard="1"
     showgrid="false"
     inkscape:zoom="6.014739"
     inkscape:cx="-18.537795"
     inkscape:cy="18.03902"
     inkscape:window-width="1895"
     inkscape:window-height="1012"
     inkscape:window-x="1925"
     inkscape:window-y="58"
     inkscape:window-maximized="0"
     inkscape:current-layer="Layer_1" />
  <defs
     id="defs5342"><style
   id="style5340">.cls-1{fill:#10aa50;}.cls-2{fill:#b8c4c2;}.cls-3{fill:#12924f;}.cls-4{fill:#21313c;}</style>
<style
   id="style1482">.cls-1{fill:#1b1b1f;}</style>
<style
   id="style5340-2">.cls-1{fill:#10aa50;}.cls-2{fill:#b8c4c2;}.cls-3{fill:#12924f;}.cls-4{fill:#21313c;}</style>

	












</defs>
  <title
     id="title5344">MongoDB_Logo_FullColorBlack_RGB</title>
  <metadata
     id="metadata5371">
    <rdf:RDF>
      <cc:Work
         rdf:about="">
        <dc:title>MongoDB_Logo_FullColorBlack_RGB</dc:title>
      </cc:Work>
    </rdf:RDF>
  </metadata>
  <g
     id="g23321"
     transform="matrix(0.65599689,0,0,0.65599689,9.1277862,8.1756174)">
    <path
       style="clip-rule:nonzero;fill:#ffffff;fill-opacity:1;fill-rule:nonzero;stroke:#ffffff;stroke-width:6.40342;stroke-linecap:butt;stroke-linejoin:miter;stroke-miterlimit:4;stroke-opacity:1"
       d="m 42.522541,43.056465 c 0.485112,-4.041339 0.339732,-4.633987 3.349889,-3.979352 l 0.764226,0.06713 c 2.314596,0.10531 5.342391,-0.372267 7.12119,-1.198652 3.829178,-1.776744 6.099767,-4.743236 2.324014,-3.96377 -8.612655,1.776739 -9.204789,-1.13958 -9.204789,-1.13958 C 55.971584,19.348334 59.773365,2.2190886 56.491799,-1.9737949 47.541296,-13.410473 32.048209,-8.0023277 31.788958,-7.8619143 l -0.08254,0.01524 c -1.701742,-0.3530885 -3.606229,-0.5640512 -5.745651,-0.5986408 -3.897501,-0.064042 -6.854917,1.0217649 -9.098279,2.7233365 0,0 -27.638853,-11.3868484 -26.3530418,14.32012 0.2734638,5.4685916 7.8386681,41.3800236 16.861604,30.5330826 3.2978328,-3.966339 6.4848768,-7.319995 6.4848768,-7.319995 1.582562,1.051389 3.477288,1.5877 5.464481,1.39506 l 0.153599,-0.130996 c -0.04812,0.492475 -0.02688,0.974161 0.06147,1.544377 -2.324014,2.597136 -1.641126,3.053137 -6.288298,4.009661 -4.7016255,0.969024 -1.939418,2.694227 -0.136475,3.145091 2.186341,0.546756 7.244137,1.321256 10.66252,-3.463076 l -0.136132,0.5459 c 0.911831,0.729465 0.850186,5.243074 0.979469,8.46796 0.129455,3.225058 0.345383,6.23453 1.002758,8.008877 0.657375,1.774004 1.433074,6.344292 7.540546,5.035364 5.104373,-1.093855 9.007011,-2.668198 9.362668,-17.313153"
       id="path21742" />
    <path
       style="clip-rule:nonzero;fill:#ffffff;fill-opacity:1;fill-rule:nonzero;stroke:none;stroke-width:2.13447;stroke-linecap:round;stroke-linejoin:round;stroke-miterlimit:4;stroke-opacity:1"
       d="M 56.082716,33.981474 C 47.469205,35.758218 46.877071,32.841898 46.877071,32.841898 55.971584,19.347136 59.773365,2.2175475 56.492484,-1.9748223 47.541981,-13.410815 32.048209,-8.0023277 31.789643,-7.8619143 l -0.08322,0.014898 c -1.701742,-0.3532598 -3.606229,-0.5637088 -5.746678,-0.5986409 -3.897502,-0.063871 -6.85389,1.0217649 -9.097252,2.7229941 0,0 -27.639366,-11.3863349 -26.353898,14.3204625 0.2734638,5.4689336 7.8384968,41.3803656 16.8617752,30.5334246 3.2980048,-3.966339 6.4845338,-7.319995 6.4845338,-7.319995 1.582734,1.051389 3.47746,1.5877 5.463797,1.39506 l 0.154284,-0.130996 c -0.04795,0.492475 -0.02603,0.974161 0.06182,1.544377 -2.324528,2.597136 -1.641468,3.053137 -6.288298,4.009661 -4.7019679,0.969024 -1.939761,2.694227 -0.136304,3.145091 2.186341,0.546756 7.24448,1.321256 10.662178,-3.463076 l -0.136304,0.5459 c 0.910804,0.729465 1.55037,4.74512 1.443177,8.385253 -0.107194,3.640305 -0.178771,6.139494 0.538879,8.091584 0.71765,1.95209 1.432903,6.344292 7.541574,5.035364 5.104372,-1.093855 7.749454,-3.928495 8.11744,-8.656833 0.261135,-3.361533 0.85207,-2.864606 0.8894,-5.869968 l 0.473981,-1.4228 c 0.546585,-4.55676 0.08682,-6.026821 3.231565,-5.343075 l 0.764226,0.06712 c 2.314596,0.10531 5.343931,-0.372267 7.121874,-1.198652 3.828493,-1.776744 6.099082,-4.743235 2.324186,-3.963769 z"
       id="path21744" />
    <path
       d="m 24.142246,36.593507 c -0.237162,8.478919 0.05959,17.016915 0.889228,19.091952 0.830152,2.075037 2.606725,6.111069 8.71591,4.802312 5.103858,-1.094197 6.960912,-3.211701 7.766749,-7.885586 0.593504,-3.438761 1.737702,-12.988932 1.884451,-14.945645"
       id="path21746"
       style="clip-rule:nonzero;fill:none;fill-rule:nonzero;stroke:#000000;stroke-width:2.13447;stroke-linecap:round;stroke-linejoin:round;stroke-miterlimit:4;stroke-opacity:1" />
    <path
       d="m 16.819854,-5.9120505 c 0,0 -27.658202,-11.3043125 -26.3723912,14.4024845 0.2734638,5.468934 7.8390105,41.381565 16.8621177,30.53411 3.2973195,-3.966852 6.2793935,-7.078038 6.2793935,-7.078038"
       id="path21748"
       style="clip-rule:nonzero;fill:none;fill-rule:nonzero;stroke:#000000;stroke-width:2.13447;stroke-linecap:round;stroke-linejoin:round;stroke-miterlimit:4;stroke-opacity:1" />
    <path
       d="m 31.759334,-7.9752725 c -0.95738,0.3001767 15.385208,-5.9742515 24.672875,5.8934277 3.280709,4.192541 -0.521071,21.3221288 -9.615413,34.8172348"
       id="path21750"
       style="clip-rule:nonzero;fill:none;fill-rule:nonzero;stroke:#000000;stroke-width:2.13447;stroke-linecap:round;stroke-linejoin:round;stroke-miterlimit:4;stroke-opacity:1" />
    <path
       style="clip-rule:nonzero;fill:none;fill-rule:nonzero;stroke:#000000;stroke-width:2.134;stroke-linecap:round;stroke-linejoin:bevel;stroke-miterlimit:4;stroke-dasharray:none;stroke-opacity:1"
       d="m 46.816625,32.73539 c 0,0 0.592648,2.917175 9.20633,1.139232 3.77404,-0.779466 1.502766,2.187369 -2.324871,3.964969 -3.141323,1.457903 -10.184087,1.83154 -10.299157,-0.183051 -0.296067,-5.197868 3.706744,-3.61873 3.417869,-4.92115 C 46.555662,31.562423 44.765561,30.411204 43.581464,27.540433 42.547713,25.034738 29.403813,5.8193244 47.226564,8.6731428 47.879487,8.5380376 42.578193,-8.2795587 25.898613,-8.5530226 9.2227997,-8.8264864 9.7698986,11.954537 9.7698986,11.954537"
       id="path21752" />
    <path
       d="m 19.474011,34.51299 c -2.32487,2.596965 -1.641125,3.052966 -6.288298,4.009832 -4.7019676,0.969196 -1.939418,2.694056 -0.136475,3.144749 2.186341,0.547098 7.24448,1.321599 10.662178,-3.463932 1.040772,-1.457047 -0.0062,-3.781918 -1.435814,-4.374565 -0.690765,-0.286136 -1.614412,-0.644704 -2.801591,0.683916 z"
       id="path21754"
       style="clip-rule:nonzero;fill:none;fill-rule:nonzero;stroke:#000000;stroke-width:2.13447;stroke-linecap:round;stroke-linejoin:round;stroke-miterlimit:4;stroke-opacity:1" />
    <path
       d="m 19.321782,34.467613 c -0.23425,-1.526911 0.501722,-3.343896 1.290434,-5.469619 1.185296,-3.189441 3.920105,-6.379395 1.732395,-16.4967 -1.63068,-7.539348 -12.5680342,-1.569035 -12.5748836,-0.546757 -0.00668,1.021936 0.4947006,5.1816 -0.1827088,10.025523 -0.88392,6.320832 4.0219904,11.666647 9.6712354,11.11972"
       id="path21756"
       style="clip-rule:nonzero;fill:none;fill-rule:nonzero;stroke:#000000;stroke-width:2.13447;stroke-linecap:round;stroke-linejoin:round;stroke-miterlimit:4;stroke-opacity:1" />
    <path
       style="clip-rule:nonzero;fill:#000000;fill-opacity:1;fill-rule:nonzero;stroke:none;stroke-width:0.711485;stroke-linecap:butt;stroke-linejoin:miter;stroke-miterlimit:4"
       d="m 16.719338,11.801281 c -0.04932,0.34915 0.639224,1.280845 1.537014,1.405334 0.896249,0.125002 1.663386,-0.603093 1.712017,-0.951901 0.04863,-0.34915 -0.639052,-0.733746 -1.537185,-0.858748 -0.896762,-0.125174 -1.664242,0.05702 -1.711674,0.405315 z"
       id="path21758" />
    <path
       style="clip-rule:nonzero;fill:#020202;fill-opacity:1;fill-rule:nonzero;stroke:none;stroke-width:0.355743;stroke-linecap:butt;stroke-linejoin:miter;stroke-miterlimit:4;stroke-opacity:1"
       d="m 44.018458,11.089453 c 0.04863,0.34915 -0.639052,1.280845 -1.537013,1.405334 -0.896934,0.125002 -1.664071,-0.603093 -1.713216,-0.951901 -0.04743,-0.34915 0.640422,-0.733746 1.537528,-0.858748 0.897105,-0.125002 1.66407,0.05702 1.712701,0.405487 z"
       id="path21760" />
    <path
       d="m 47.226564,8.6731428 c 0.147777,2.7387482 -0.589908,4.6041922 -0.682889,7.5196552 -0.137674,4.237748 2.020413,9.088177 -1.231358,13.9446"
       id="path21762"
       style="clip-rule:nonzero;fill:none;fill-rule:nonzero;stroke:#000000;stroke-width:2.13447;stroke-linecap:round;stroke-linejoin:round;stroke-miterlimit:4;stroke-opacity:1" />
    <path
       style="clip-rule:nonzero;fill:none;fill-rule:nonzero;stroke:#ffffff;stroke-width:0.513708;stroke-linecap:round;stroke-linejoin:round;stroke-miterlimit:4"
       d="M -12.821774,-2.1489693"
       id="path21764" />
  </g>
</svg>
