<?xml version="1.0" encoding="UTF-8" standalone="no"?>
<svg
   id="Layer_1"
   data-name="Layer 1"
   viewBox="0 0 50.000001 50"
   version="1.1"
   sodipodi:docname="ps.svg"
   width="50"
   height="50"
   inkscape:version="1.1.2 (0a00cf5339, 2022-02-04, custom)"
   xmlns:inkscape="http://www.inkscape.org/namespaces/inkscape"
   xmlns:sodipodi="http://sodipodi.sourceforge.net/DTD/sodipodi-0.dtd"
   xmlns="http://www.w3.org/2000/svg"
   xmlns:svg="http://www.w3.org/2000/svg"
   xmlns:rdf="http://www.w3.org/1999/02/22-rdf-syntax-ns#"
   xmlns:cc="http://creativecommons.org/ns#"
   xmlns:dc="http://purl.org/dc/elements/1.1/">
  <sodipodi:namedview
     id="namedview5369"
     pagecolor="#505050"
     bordercolor="#ffffff"
     borderopacity="1"
     inkscape:pageshadow="0"
     inkscape:pageopacity="0"
     inkscape:pagecheckerboard="1"
     showgrid="false"
     inkscape:zoom="8.5061255"
     inkscape:cx="34.974796"
     inkscape:cy="24.394185"
     inkscape:window-width="1895"
     inkscape:window-height="1012"
     inkscape:window-x="1925"
     inkscape:window-y="58"
     inkscape:window-maximized="0"
     inkscape:current-layer="Layer_1" />
  <defs
     id="defs5342"><style
   id="style5340">.cls-1{fill:#10aa50;}.cls-2{fill:#b8c4c2;}.cls-3{fill:#12924f;}.cls-4{fill:#21313c;}</style>
<style
   id="style1482">.cls-1{fill:#1b1b1f;}</style>
<style
   id="style5340-2">.cls-1{fill:#10aa50;}.cls-2{fill:#b8c4c2;}.cls-3{fill:#12924f;}.cls-4{fill:#21313c;}</style>

	












<clipPath
   id="clipPath8">
  <path
     d="M 76,2 V 48 H 54 V 71 H 35.580737 c -0.07818,0.665694 -0.141485,1.332869 -0.205737,2 -1.151162,12.530963 1.036422,24.087546 6.0625,33.96875 L 43.125,110 c 1.011403,1.81678 2.191241,3.52297 3.4375,5.1875 1.244725,1.66248 1.685716,2.58262 2.46875,3.6875 C 62.319911,133.81083 82.129473,141 105,141 155.64836,141 198.63299,118.56201 217.65625,68.15625 231.15302,69.54122 244.09968,66.080358 250,54.5625 240.60137,49.138835 228.52163,50.877226 221.5625,54.375 L 240,2 168,48 H 145 V 2 Z"
     id="path10" />
</clipPath>

        
    
            
            
        
                
                
                
            
                    
                
                    
                
                
                    
                
                
                    
                
                
                    
                
                
                    
                
                
                    
                
                
                    
                
                
                    
                
                
                    
                
                    
                </defs>
  <title
     id="title5344">MongoDB_Logo_FullColorBlack_RGB</title>
  <metadata
     id="metadata5371">
    <rdf:RDF>
      <cc:Work
         rdf:about="">
        <dc:title>MongoDB_Logo_FullColorBlack_RGB</dc:title>
      </cc:Work>
    </rdf:RDF>
  </metadata>
  <rect
     y="-254.83914"
     width="2048"
     height="549.99591"
     style="clip-rule:evenodd;fill:none;fill-rule:evenodd;stroke-width:0.913893;stroke-linejoin:round;stroke-miterlimit:2"
     id="rect28337"
     x="-988.37915" />
  <g
     id="g29321"
     transform="matrix(1.2394701,0,0,1.2394701,-112.22643,-13.97153)">
    <path
       d="m 20.169582,28.800187 c 0.150279,-2.680879 1.46309,-5.042775 3.44365,-6.717085 1.94228,-1.644537 4.556562,-2.64969 7.409021,-2.64969 2.849623,0 5.463905,1.005153 7.407603,2.64969 1.979142,1.67431 3.291954,4.036206 3.44365,6.71425 0.150279,2.7546 -0.956963,5.313558 -2.899244,7.210446 -1.980559,1.929496 -4.797575,3.140217 -7.952009,3.140217 -3.154434,0 -5.977121,-1.210721 -7.956263,-3.140217 -1.943698,-1.896888 -3.048104,-4.455846 -2.896408,-7.207611 z"
       style="clip-rule:evenodd;fill:#030303;fill-opacity:1;fill-rule:nonzero;stroke-width:1.41771;stroke-linejoin:round;stroke-miterlimit:2"
       id="path28339" />
    <path
       d="m 16.578099,31.828582 c 0.0095,0.5383 0.181133,1.584349 0.438647,2.401255 0.541217,1.729108 1.459249,3.328733 2.736637,4.738498 1.310851,1.449046 2.925046,2.612938 4.78948,3.439302 1.95973,0.867827 4.083133,1.310106 6.288738,1.306469 2.201967,-0.0029 4.325371,-0.453918 6.2851,-1.328292 1.864435,-0.834366 3.477174,-2.00335 4.785842,-3.453124 1.276662,-1.415584 2.193239,-3.018118 2.735911,-4.747226 0.272791,-0.873647 0.445195,-1.760387 0.514301,-2.650037 0.06765,-0.876557 0.03928,-1.754568 -0.08511,-2.631852 -0.242966,-1.709467 -0.834376,-3.313456 -1.745134,-4.775596 -0.832921,-1.343568 -1.906626,-2.519827 -3.183287,-3.509863 l 0.0029,-0.0022 -12.883728,-9.892359 c -0.01164,-0.0087 -0.0211,-0.01819 -0.03346,-0.02619 -0.845287,-0.64887 -2.266709,-0.646688 -3.196381,0.0036 -0.939855,0.657599 -1.047517,1.745111 -0.210958,2.43108 l -0.0036,0.0036 5.373616,4.369689 -16.378362,0.01746 h -0.02182 c -1.35377,0.0015 -2.655164,0.88965 -2.9126785,2.012079 -0.2647892,1.143524 0.6546975,2.092096 2.0622985,2.097188 l -0.0022,0.0051 8.30157,-0.016 -14.8136326,11.370502 c -0.018914,0.01382 -0.039282,0.02837 -0.05674,0.04219 -1.3974171,1.070054 -1.8491585,2.849355 -0.9689532,3.975421 0.8932989,1.144979 2.7926507,1.147161 4.204616,0.0065 l 8.0847918,-6.616729 c 0,0 -0.117846,0.893287 -0.108388,1.429405 z m 20.775021,2.991203 c -1.665842,1.697101 -3.998022,2.659495 -6.521519,2.664586 -2.527134,0.0044 -4.859314,-0.949299 -6.525157,-2.64349 -0.814008,-0.825636 -1.411965,-1.775663 -1.780779,-2.787522 -0.361538,-0.994401 -0.501934,-2.049906 -0.408822,-3.114867 0.08802,-1.040957 0.397911,-2.033902 0.892572,-2.932282 0.485931,-0.883103 1.155178,-1.681097 1.981552,-2.356154 1.619287,-1.319564 3.680858,-2.033902 5.836997,-2.036812 2.15832,-0.0029 4.218437,0.704882 5.839178,2.020081 0.824919,0.672147 1.493439,1.467231 1.979371,2.34888 0.496843,0.897652 0.804551,1.886961 0.896208,2.930827 0.09166,1.063506 -0.04874,2.117556 -0.410277,3.112684 -0.369541,1.014769 -0.965316,1.964796 -1.779324,2.794069 z"
       style="clip-rule:evenodd;fill:#ffffff;fill-opacity:1;fill-rule:nonzero;stroke:#030303;stroke-width:6.727;stroke-linecap:round;stroke-linejoin:round;stroke-miterlimit:2;stroke-dasharray:none;stroke-opacity:1;paint-order:stroke fill markers"
       id="path28345" />
    <path
       d="m 25.445619,29.042515 c 0.07711,-1.375576 0.75072,-2.587479 1.766957,-3.446577 0.996596,-0.843822 2.337999,-1.359572 3.801613,-1.359572 1.462159,0 2.803562,0.51575 3.800885,1.359572 1.01551,0.859098 1.689121,2.071001 1.766957,3.445122 0.07711,1.413402 -0.491023,2.726418 -1.487619,3.699723 -1.016236,0.990036 -2.461664,1.611263 -4.080223,1.611263 -1.618559,0 -3.066896,-0.621227 -4.082406,-1.611263 -0.997323,-0.973305 -1.564,-2.286321 -1.486164,-3.698268 z"
       style="clip-rule:evenodd;fill:#ffffff;fill-opacity:1;fill-rule:nonzero;stroke-width:0.727441;stroke-linejoin:round;stroke-miterlimit:2"
       id="path28343" />
  </g>
  <path
     style="fill:#ffffff;fill-opacity:1;stroke:#010101;stroke-width:6.13925;stroke-linecap:round;stroke-linejoin:round;stroke-miterlimit:4;stroke-dasharray:none;stroke-opacity:1;paint-order:stroke fill markers"
     d="M 9.9994677,46.916511 C 6.378999,46.511112 3.4974502,43.553507 3.1138711,39.849176 3.0732253,39.456657 3.0628669,35.543557 3.0735631,24.666919 L 3.0880872,10.013473 3.1964008,9.4903382 C 3.8637346,6.2668294 6.1386031,3.9056213 9.2612677,3.1953018 L 9.7399987,3.0863972 H 24.978054 c 14.52547,0 15.256801,0.00465 15.639053,0.087633 1.647472,0.3602064 3.000625,1.1131866 4.120153,2.2927328 1.085704,1.1439151 1.76952,2.5306686 2.09776,4.2541603 0.06621,0.3475007 0.076,1.9475437 0.09087,14.8732897 0.01148,9.912958 0.0011,14.664844 -0.03309,15.057283 -0.165533,1.904559 -0.915734,3.582558 -2.193655,4.906653 -1.172615,1.214991 -2.45478,1.919669 -4.152838,2.282407 -0.347044,0.07411 -1.584702,0.08116 -15.379585,0.08752 -8.251193,0.0035 -15.076474,-0.0011 -15.1672793,-0.01156 z M 34.532546,34.401029 c 2.808647,-0.358332 4.520227,-1.871772 4.768661,-4.216633 0.177379,-1.674149 -0.470072,-3.050937 -1.872631,-3.982072 -0.691396,-0.459018 -1.641426,-0.931389 -2.567024,-1.27637 -0.246498,-0.09191 -0.745394,-0.316586 -1.10865,-0.499366 -1.087336,-0.547124 -1.383498,-0.969552 -1.111319,-1.585117 0.19232,-0.434948 0.72014,-0.614433 1.779891,-0.605265 1.271493,0.01157 2.631505,0.304181 3.494862,0.753407 0.300599,0.156409 0.553166,0.168132 0.625662,0.02902 0.03467,-0.06659 0.04661,-0.628468 0.03704,-1.748209 -0.01644,-1.916283 0.04043,-1.731757 -0.600489,-1.949266 -1.44414,-0.490083 -3.923364,-0.602825 -5.452861,-0.247961 -1.222458,0.283638 -2.359627,1.004975 -2.97089,1.884548 -0.277653,0.399525 -0.565889,1.027681 -0.690618,1.505092 -0.137182,0.525055 -0.148172,1.583165 -0.02162,2.08297 0.266472,1.052525 0.927241,1.947428 1.950423,2.641516 0.580513,0.393803 1.532863,0.87926 2.275859,1.160112 0.836358,0.316147 1.736037,0.779351 1.973673,1.016155 0.220939,0.220167 0.338587,0.452924 0.336944,0.666618 -0.0011,0.209244 -0.161176,0.520998 -0.335852,0.656157 -0.896289,0.69351 -3.774178,0.392057 -5.675028,-0.594467 -0.350454,-0.181878 -0.557815,-0.263996 -0.599642,-0.237452 -0.0519,0.03295 -0.06395,0.372728 -0.06395,1.805356 0,2.040112 -0.04122,1.871495 0.515121,2.109282 0.64639,0.276308 1.627542,0.515632 2.576501,0.628479 0.511101,0.06081 2.26924,0.06301 2.735923,0.0035 z M 16.830649,34.006372 c 0.04278,-0.04393 0.05663,-0.803005 0.05663,-3.119403 v -3.061271 l 1.662975,-0.02382 c 1.839286,-0.02636 2.258152,-0.07041 3.313512,-0.3492 1.130887,-0.298703 1.941099,-0.710112 2.730821,-1.386639 1.515491,-1.298267 2.234201,-3.129807 2.136279,-5.444008 -0.05483,-1.295226 -0.397382,-2.425567 -1.042378,-3.439317 -0.251912,-0.395914 -1.153031,-1.30877 -1.572573,-1.593044 -1.217167,-0.824716 -2.669707,-1.256173 -4.598737,-1.366002 -0.741296,-0.0422 -6.396058,0.07411 -6.510169,0.133841 -0.07825,0.04093 -0.08253,0.557437 -0.08253,9.816969 0,7.537185 0.01295,9.787014 0.05663,9.831848 0.04211,0.04324 0.534666,0.05815 1.924808,0.05815 1.390142,0 1.882676,-0.01492 1.924808,-0.05815 z m 0.162751,-9.75906 c -0.04628,-0.01919 -0.059,-0.697452 -0.059,-3.162906 v -3.138478 l 1.073263,-0.03422 c 0.691732,-0.02208 1.252813,-0.01514 1.578317,0.01954 1.744976,0.185474 2.732319,0.900499 3.085025,2.23413 0.106738,0.403409 0.107526,1.296151 0.0011,1.75296 -0.291647,1.258288 -1.309335,2.015996 -3.072764,2.287796 -0.451709,0.0696 -2.461253,0.101389 -2.606509,0.04116 z"
     id="path29514" />
</svg>
