<?xml version="1.0" encoding="UTF-8" standalone="no"?>
<svg
   id="Layer_1"
   data-name="Layer 1"
   viewBox="0 0 50.000001 50"
   version="1.1"
   sodipodi:docname="python.svg"
   width="50"
   height="50"
   inkscape:version="1.1.2 (0a00cf5339, 2022-02-04, custom)"
   xmlns:inkscape="http://www.inkscape.org/namespaces/inkscape"
   xmlns:sodipodi="http://sodipodi.sourceforge.net/DTD/sodipodi-0.dtd"
   xmlns="http://www.w3.org/2000/svg"
   xmlns:svg="http://www.w3.org/2000/svg"
   xmlns:rdf="http://www.w3.org/1999/02/22-rdf-syntax-ns#"
   xmlns:cc="http://creativecommons.org/ns#"
   xmlns:dc="http://purl.org/dc/elements/1.1/">
  <sodipodi:namedview
     id="namedview5369"
     pagecolor="#505050"
     bordercolor="#ffffff"
     borderopacity="1"
     inkscape:pageshadow="0"
     inkscape:pageopacity="0"
     inkscape:pagecheckerboard="1"
     showgrid="false"
     inkscape:zoom="6.014739"
     inkscape:cx="43.642791"
     inkscape:cy="3.7408107"
     inkscape:window-width="1895"
     inkscape:window-height="1012"
     inkscape:window-x="1925"
     inkscape:window-y="58"
     inkscape:window-maximized="0"
     inkscape:current-layer="Layer_1" />
  <defs
     id="defs5342">
    <style
       id="style5340">.cls-1{fill:#10aa50;}.cls-2{fill:#b8c4c2;}.cls-3{fill:#12924f;}.cls-4{fill:#21313c;}</style>
    <style
       id="style1482">.cls-1{fill:#1b1b1f;}</style>
    <style
       id="style5340-2">.cls-1{fill:#10aa50;}.cls-2{fill:#b8c4c2;}.cls-3{fill:#12924f;}.cls-4{fill:#21313c;}</style>
  </defs>
  <title
     id="title5344">MongoDB_Logo_FullColorBlack_RGB</title>
  <metadata
     id="metadata5371">
    <rdf:RDF>
      <cc:Work
         rdf:about="">
        <dc:title>MongoDB_Logo_FullColorBlack_RGB</dc:title>
      </cc:Work>
    </rdf:RDF>
  </metadata>
  <path
     d="m 45.58112,19.726142 c -0.734694,-2.945083 -2.127754,-5.165818 -5.09516,-5.165818 h -3.826138 v 4.517713 c 0,3.507421 -2.976949,6.462036 -6.373717,6.462036 H 20.095786 c -2.786113,0 -5.09516,2.382761 -5.09516,5.175355 v 9.702593 c 0,2.763994 2.404459,4.384272 5.09516,5.175349 3.225029,0.943572 6.326015,1.11513 10.190319,0 2.566656,-0.743419 5.095153,-2.239797 5.095153,-5.175349 V 36.53889 H 25.200487 V 35.242665 H 40.48596 c 2.967406,0 4.064675,-2.068232 5.09516,-5.165817 1.068644,-3.1929 1.020934,-6.261892 0,-10.350706 z M 30.92538,39.121795 c 1.05911,0 1.91784,0.867328 1.91784,1.934801 0,1.07701 -0.85873,1.944331 -1.91784,1.944331 -1.04956,0 -1.91784,-0.876851 -1.91784,-1.944331 0.0095,-1.077004 0.86828,-1.934801 1.91784,-1.934801 z M 19.628256,24.262917 h 10.190313 c 2.83382,0 5.095159,-2.335103 5.095159,-5.175348 V 9.3754444 c 0,-2.7640012 -2.328124,-4.8322331 -5.095159,-5.2992566 C 26.402716,3.5138574 22.691075,3.5424516 19.628256,4.0857178 15.3155,4.8482 14.533097,6.439884 14.533097,9.3849744 v 3.8791306 h 10.199855 v 1.296217 H 10.70696 c -2.9674073,0 -5.5626964,1.782306 -6.3737177,5.165818 -0.9350721,3.87913 -0.9732324,6.300016 0,10.350706 0.7251518,3.011803 2.4521616,5.165816 5.4195687,5.165816 h 3.501722 v -4.651143 c 0,-3.364451 2.910156,-6.328604 6.373723,-6.328604 z M 18.988974,10.671663 c -1.059108,0 -1.917839,-0.8673206 -1.917839,-1.9348 0.0095,-1.0770031 0.858731,-1.9443306 1.917839,-1.9443306 1.049568,0 1.91784,0.8768587 1.91784,1.9443306 0,1.0674794 -0.858737,1.9348 -1.91784,1.9348 z"
     id="path19654"
     style="fill:#ffffff;fill-opacity:1;stroke:#000000;stroke-width:7.31942;stroke-linecap:round;stroke-linejoin:round;stroke-miterlimit:4;stroke-dasharray:none;stroke-opacity:1;paint-order:stroke fill markers" />
</svg>
