<?xml version="1.0" encoding="UTF-8" standalone="no"?>
<svg
   id="Layer_1"
   data-name="Layer 1"
   viewBox="0 0 56.000001 50"
   version="1.1"
   sodipodi:docname="react.svg"
   width="56"
   height="50"
   inkscape:version="1.1.2 (0a00cf5339, 2022-02-04, custom)"
   xmlns:inkscape="http://www.inkscape.org/namespaces/inkscape"
   xmlns:sodipodi="http://sodipodi.sourceforge.net/DTD/sodipodi-0.dtd"
   xmlns="http://www.w3.org/2000/svg"
   xmlns:svg="http://www.w3.org/2000/svg"
   xmlns:rdf="http://www.w3.org/1999/02/22-rdf-syntax-ns#"
   xmlns:cc="http://creativecommons.org/ns#"
   xmlns:dc="http://purl.org/dc/elements/1.1/">
  <sodipodi:namedview
     id="namedview5369"
     pagecolor="#505050"
     bordercolor="#ffffff"
     borderopacity="1"
     inkscape:pageshadow="0"
     inkscape:pageopacity="0"
     inkscape:pagecheckerboard="1"
     showgrid="false"
     inkscape:zoom="24.058956"
     inkscape:cx="-4.1148918"
     inkscape:cy="27.016966"
     inkscape:window-width="3840"
     inkscape:window-height="2083"
     inkscape:window-x="0"
     inkscape:window-y="48"
     inkscape:window-maximized="1"
     inkscape:current-layer="Layer_1" />
  <defs
     id="defs5342">
    <style
       id="style5340">.cls-1{fill:#10aa50;}.cls-2{fill:#b8c4c2;}.cls-3{fill:#12924f;}.cls-4{fill:#21313c;}</style>
    <style
       id="style1482">.cls-1{fill:#1b1b1f;}</style>
    <style
       id="style5340-2">.cls-1{fill:#10aa50;}.cls-2{fill:#b8c4c2;}.cls-3{fill:#12924f;}.cls-4{fill:#21313c;}</style>
  </defs>
  <title
     id="title5344">MongoDB_Logo_FullColorBlack_RGB</title>
  <metadata
     id="metadata5371">
    <rdf:RDF>
      <cc:Work
         rdf:about="">
        <dc:title>MongoDB_Logo_FullColorBlack_RGB</dc:title>
      </cc:Work>
    </rdf:RDF>
  </metadata>
  <path
     d="m 42.75494,17.794294 c -0.493688,-0.164563 -0.987389,-0.319995 -1.48109,-0.466274 0.08226,-0.338268 0.155434,-0.676548 0.228572,-1.014816 1.124525,-5.448932 0.38398,-9.8282051 -2.111926,-11.2727131 -2.404483,-1.380524 -6.326612,0.054879 -10.294467,3.5107222 -0.393123,0.3382684 -0.777115,0.6948338 -1.14281,1.0513868 C 27.706362,9.3648979 27.450376,9.1271958 27.19439,8.8986233 23.034545,5.2050536 18.865558,3.6508244 16.369652,5.1044874 13.974311,6.4941414 13.261193,10.617415 14.26688,15.773791 c 0.100589,0.511986 0.210275,1.014829 0.338268,1.526802 -0.585125,0.164563 -1.161095,0.347423 -1.700507,0.539413 -4.8821047,1.691365 -8.3836853,4.360976 -8.3836853,7.122012 0,2.852473 3.7301409,5.714074 8.8042343,7.45115 0.411419,0.137136 0.822826,0.274272 1.243388,0.393135 -0.137134,0.548542 -0.255985,1.087955 -0.365707,1.645641 -0.959962,5.074095 -0.210274,9.096802 2.185065,10.477326 2.46848,1.426224 6.619182,-0.03654 10.660175,-3.574719 0.319983,-0.283427 0.639966,-0.575983 0.959962,-0.886822 0.402266,0.393121 0.822827,0.767959 1.243376,1.133666 3.913,3.364445 7.780276,4.726671 10.166474,3.34616 2.468479,-1.426236 3.273021,-5.750643 2.230777,-11.016727 -0.08226,-0.402277 -0.173705,-0.813684 -0.274284,-1.234246 0.292569,-0.08226 0.575983,-0.173705 0.859396,-0.265129 5.27524,-1.746219 9.096803,-4.571251 9.096803,-7.469435 0,-2.770178 -3.602146,-5.458073 -8.575675,-7.167724 z m -12.369824,-7.76199 c 3.401027,-2.9621806 6.573471,-4.1232748 8.01799,-3.2913055 1.545087,0.8868229 2.139342,4.4706835 1.170237,9.1790835 -0.06405,0.31084 -0.127993,0.612539 -0.210275,0.91425 -2.029632,-0.457131 -4.086705,-0.786257 -6.152907,-0.969117 -1.188534,-1.700507 -2.486764,-3.327864 -3.894715,-4.854664 0.356565,-0.338282 0.703975,-0.658264 1.06967,-0.978247 z m -10.57788,19.674684 c 0.466273,0.795398 0.941677,1.590797 1.44452,2.367912 -1.426236,-0.155433 -2.843329,-0.383992 -4.242125,-0.685691 0.402265,-1.316527 0.905107,-2.678754 1.490232,-4.068419 0.420549,0.804541 0.850254,1.59994 1.307373,2.386198 z M 17.037058,18.708544 c 1.316515,-0.292556 2.715323,-0.53027 4.168987,-0.713118 -0.484559,0.75883 -0.959963,1.535945 -1.407951,2.322202 -0.447977,0.777114 -0.886824,1.572515 -1.298231,2.377055 -0.575982,-1.362238 -1.060541,-2.697051 -1.462805,-3.986139 z m 2.505049,6.299186 c 0.603397,-1.261661 1.26166,-2.495907 1.956493,-3.711855 0.694834,-1.215962 1.444521,-2.395341 2.230778,-3.556435 1.371369,-0.100588 2.770178,-0.155421 4.196414,-0.155421 1.426223,0 2.834174,0.05488 4.196414,0.155421 0.777102,1.151952 1.517647,2.331331 2.221622,3.53815 0.703976,1.206807 1.362239,2.441053 1.983934,3.69357 -0.612552,1.261673 -1.270816,2.505049 -1.974791,3.730153 -0.694833,1.215948 -1.435378,2.395329 -2.212481,3.565578 -1.362239,0.100588 -2.779332,0.146277 -4.214698,0.146277 -1.435378,0 -2.825045,-0.04571 -4.168987,-0.127993 -0.795399,-1.161095 -1.545087,-2.349629 -2.249061,-3.565577 -0.703977,-1.215962 -1.353097,-2.450195 -1.965637,-3.711868 z m 16.511371,4.680972 c 0.466274,-0.804542 0.905109,-1.618226 1.334812,-2.441052 0.585112,1.325657 1.097098,2.669611 1.545088,4.050135 -1.417094,0.319984 -2.852473,0.566828 -4.296981,0.731404 0.493689,-0.767973 0.959962,-1.55423 1.417081,-2.340487 z m 1.316527,-6.994019 c -0.429704,-0.80454 -0.868538,-1.609083 -1.325669,-2.395339 -0.447977,-0.777116 -0.91425,-1.545088 -1.398797,-2.303918 1.471935,0.182848 2.879887,0.429705 4.196401,0.731403 -0.420549,1.353084 -0.91425,2.669612 -1.471935,3.967854 z M 27.944077,12.409346 c 0.959963,1.042257 1.86507,2.139355 2.706181,3.273021 -1.810216,-0.08226 -3.629573,-0.08226 -5.439802,0 0.895965,-1.179379 1.81937,-2.276477 2.733621,-3.273021 z M 17.338756,6.8049945 c 1.535945,-0.8959653 4.946101,0.38398 8.539106,3.5655765 0.228559,0.201133 0.457131,0.420563 0.694833,0.63998 -1.417094,1.5268 -2.724466,3.154157 -3.922143,4.854664 -2.066202,0.18286 -4.114119,0.502843 -6.143765,0.950833 C 16.387987,16.349773 16.28737,15.87437 16.186804,15.398954 15.327408,10.97398 15.894236,7.6369631 17.338756,6.8049945 Z M 15.098836,30.904651 C 14.714856,30.794891 14.340019,30.676092 13.965169,30.548098 12.017818,29.935546 9.8053252,28.966443 8.2053843,27.695626 7.2819914,27.05566 6.6603087,26.068271 6.4865925,24.962018 c 0,-1.67308 2.8890408,-3.812421 7.0580275,-5.266084 0.521115,-0.182848 1.051385,-0.347411 1.581656,-0.502844 0.621682,1.983934 1.37137,3.931285 2.239907,5.81464 -0.87768,1.910794 -1.63651,3.885573 -2.267347,5.896921 z m 10.660175,8.959667 c -1.508517,1.380512 -3.254737,2.477622 -5.156376,3.227309 -1.014816,0.484546 -2.185066,0.530259 -3.227309,0.118801 -1.453663,-0.841111 -2.05706,-4.06842 -1.234234,-8.411112 0.100589,-0.511986 0.210275,-1.023959 0.338268,-1.526802 2.04793,0.438846 4.114134,0.740545 6.207762,0.895965 1.20682,1.70965 2.532476,3.34616 3.94957,4.882105 -0.292557,0.283413 -0.585125,0.557697 -0.877681,0.813684 z m 2.23992,-2.221635 c -0.932535,-1.005674 -1.865083,-2.121057 -2.77019,-3.318733 0.87768,0.03654 1.782801,0.05488 2.697051,0.05488 0.941677,0 1.86507,-0.01834 2.77932,-0.06405 -0.841111,1.161107 -1.746219,2.267348 -2.706181,3.327875 z m 11.949262,2.742752 c -0.08226,1.115395 -0.630836,2.157637 -1.508517,2.861613 -1.453663,0.841111 -4.552967,-0.255987 -7.899127,-3.126743 -0.383992,-0.329126 -0.767972,-0.685691 -1.161106,-1.051386 1.398808,-1.545087 2.687897,-3.181598 3.858146,-4.90039 2.093628,-0.173705 4.178128,-0.493688 6.235188,-0.959962 0.09142,0.374838 0.173706,0.749688 0.246857,1.115383 0.447976,1.974791 0.521115,4.031851 0.228559,6.061485 z m 1.663939,-9.828194 c -0.255999,0.08226 -0.511987,0.164562 -0.777116,0.237702 -0.639978,-1.993064 -1.426235,-3.940428 -2.331344,-5.832925 0.877681,-1.86507 1.618226,-3.784994 2.23992,-5.750643 0.475404,0.137148 0.932535,0.283426 1.37137,0.429704 4.26041,1.462806 7.250018,3.638717 7.250018,5.302654 0,1.791931 -3.19074,4.10499 -7.752848,5.613508 z m -13.68634,-1.371382 c 2.313047,0 4.187271,-1.874212 4.187271,-4.187272 0,-2.313045 -1.874224,-4.187271 -4.187271,-4.187271 -2.313059,0 -4.187272,1.874226 -4.187272,4.187271 0,2.31306 1.874213,4.187272 4.187272,4.187272 z"
     id="path19020"
     style="fill:#ffffff;fill-opacity:1;stroke:#000000;stroke-width:9.04191;stroke-linecap:round;stroke-linejoin:round;stroke-miterlimit:4;stroke-dasharray:none;stroke-opacity:1;paint-order:stroke fill markers" />
</svg>
