<?xml version="1.0" encoding="UTF-8" standalone="no"?>
<svg
   id="Express"
   viewBox="0 0 50 50"
   version="1.1"
   sodipodi:docname="twitter.svg"
   width="50"
   height="50"
   inkscape:version="1.2 (dc2aedaf03, 2022-05-15)"
   xml:space="preserve"
   xmlns:inkscape="http://www.inkscape.org/namespaces/inkscape"
   xmlns:sodipodi="http://sodipodi.sourceforge.net/DTD/sodipodi-0.dtd"
   xmlns="http://www.w3.org/2000/svg"
   xmlns:svg="http://www.w3.org/2000/svg"
   xmlns:rdf="http://www.w3.org/1999/02/22-rdf-syntax-ns#"
   xmlns:cc="http://creativecommons.org/ns#"
   xmlns:dc="http://purl.org/dc/elements/1.1/"><metadata
     id="metadata24"><rdf:RDF><cc:Work
         rdf:about=""><dc:format>image/svg+xml</dc:format><dc:type
           rdf:resource="http://purl.org/dc/dcmitype/StillImage" /><dc:title>Artboard 12</dc:title></cc:Work></rdf:RDF></metadata><defs
     id="defs22" /><sodipodi:namedview
     pagecolor="#ffffff"
     bordercolor="#666666"
     borderopacity="1"
     objecttolerance="10"
     gridtolerance="10"
     guidetolerance="10"
     inkscape:pageopacity="0"
     inkscape:pageshadow="2"
     inkscape:window-width="1393"
     inkscape:window-height="1236"
     id="namedview20"
     showgrid="true"
     inkscape:zoom="10.429825"
     inkscape:cx="28.811605"
     inkscape:cy="43.672832"
     inkscape:window-x="1414"
     inkscape:window-y="557"
     inkscape:window-maximized="0"
     inkscape:current-layer="Express"
     inkscape:showpageshadow="false"
     inkscape:pagecheckerboard="true"
     inkscape:deskcolor="#d1d1d1"><inkscape:grid
       type="xygrid"
       id="grid1747"
       originx="0"
       originy="0" /></sodipodi:namedview><title
     id="title2">Artboard 12</title><path
     d="m 43.73655,19.821567 c 0.02991,0.419006 0.02991,0.838106 0.02991,1.257112 0,12.780302 -9.727381,27.506206 -27.506205,27.506206 -5.477332,0 -10.5654973,-1.58639 -14.8455855,-4.339882 0.7782279,0.08972 1.5264176,0.119672 2.3345798,0.119672 4.51945,0 8.6798577,-1.526408 12.0021687,-4.130379 -4.250154,-0.08981 -7.8119025,-2.873351 -9.0390801,-6.704499 0.5986593,0.08972 1.1972337,0.149624 1.8258369,0.149624 0.8679555,0 1.7360052,-0.119775 2.5440832,-0.329183 C 6.6525406,32.452244 3.3301451,28.561312 3.3301451,23.862209 v -0.119672 c 1.2869614,0.718331 2.7836238,1.16729 4.3698253,1.227074 C 5.096,23.233606 3.3900327,20.270517 3.3900327,16.918263 c 0,-1.795799 0.4787992,-3.441983 1.3169053,-4.878663 4.7589816,5.866393 11.912431,9.697447 19.933751,10.116547 -0.149625,-0.71834 -0.239447,-1.46653 -0.239447,-2.214814 0,-5.327706 4.310032,-9.667588 9.667588,-9.667588 2.78353,0 5.297668,1.16729 7.063618,3.05292 2.18487,-0.419006 4.280003,-1.227177 6.135784,-2.33458 -0.718435,2.244843 -2.244853,4.130473 -4.250154,5.327613 1.945518,-0.209409 3.831138,-0.748285 5.567059,-1.496474 -1.316726,1.915479 -2.962994,3.621456 -4.848625,4.998343 z"
     id="path12763"
     style="fill:#ffffff;fill-opacity:1;stroke:#000000;stroke-width:2.83023;stroke-linecap:round;stroke-linejoin:round;stroke-dasharray:none;stroke-opacity:1;paint-order:stroke fill markers" /><path
     d="M -48.06362,50.08928 H -58.42969 V 16.70759 h 10.36607 z m -5.18861,-37.93526 c -3.31473,0 -6.00335,-2.74554 -6.00335,-6.06027 a 6.00335,6.00335 0 0 1 12.0067,0 c 0,3.31473 -2.68974,6.06027 -6.00335,6.06027 z m 43.98549,37.93526 h -10.34375 v -16.25 C -19.61049,29.96652 -19.68859,25 -25,25 c -5.38951,0 -6.2154,4.20759 -6.2154,8.56027 V 50.08928 H -41.57031 V 16.70759 h 9.94196 v 4.55357 h 0.14509 c 1.38393,-2.62277 4.76451,-5.39063 9.80804,-5.39063 10.49107,0 12.41964,6.90849 12.41964,15.8817 v 18.33705 z"
     id="path12827"
     style="stroke-width:0.111607" /></svg>
