<?xml version="1.0" encoding="UTF-8" standalone="no"?>
<svg
   id="Layer_1"
   data-name="Layer 1"
   viewBox="0 0 50.000001 50"
   version="1.1"
   sodipodi:docname="typescript.svg"
   width="50"
   height="50"
   inkscape:version="1.1.2 (0a00cf5339, 2022-02-04, custom)"
   xmlns:inkscape="http://www.inkscape.org/namespaces/inkscape"
   xmlns:sodipodi="http://sodipodi.sourceforge.net/DTD/sodipodi-0.dtd"
   xmlns="http://www.w3.org/2000/svg"
   xmlns:svg="http://www.w3.org/2000/svg"
   xmlns:rdf="http://www.w3.org/1999/02/22-rdf-syntax-ns#"
   xmlns:cc="http://creativecommons.org/ns#"
   xmlns:dc="http://purl.org/dc/elements/1.1/">
  <sodipodi:namedview
     id="namedview5369"
     pagecolor="#505050"
     bordercolor="#ffffff"
     borderopacity="1"
     inkscape:pageshadow="0"
     inkscape:pageopacity="0"
     inkscape:pagecheckerboard="1"
     showgrid="false"
     inkscape:zoom="6.014739"
     inkscape:cx="45.63789"
     inkscape:cy="13.217531"
     inkscape:window-width="1895"
     inkscape:window-height="1012"
     inkscape:window-x="1925"
     inkscape:window-y="58"
     inkscape:window-maximized="0"
     inkscape:current-layer="Layer_1" />
  <defs
     id="defs5342">
    <style
       id="style5340">.cls-1{fill:#10aa50;}.cls-2{fill:#b8c4c2;}.cls-3{fill:#12924f;}.cls-4{fill:#21313c;}</style>
    <style
       id="style1482">.cls-1{fill:#1b1b1f;}</style>
    <style
       id="style5340-2">.cls-1{fill:#10aa50;}.cls-2{fill:#b8c4c2;}.cls-3{fill:#12924f;}.cls-4{fill:#21313c;}</style>
  </defs>
  <title
     id="title5344">MongoDB_Logo_FullColorBlack_RGB</title>
  <metadata
     id="metadata5371">
    <rdf:RDF>
      <cc:Work
         rdf:about="">
        <dc:title>MongoDB_Logo_FullColorBlack_RGB</dc:title>
      </cc:Work>
    </rdf:RDF>
  </metadata>
  <path
     id="rect19916"
     style="fill:#ffffff;fill-opacity:1;stroke:#000000;stroke-width:8.68711;stroke-linecap:round;stroke-linejoin:round;stroke-miterlimit:4;stroke-dasharray:none;stroke-opacity:1;paint-order:stroke fill markers"
     d="m 8.3779147,4.343555 c -2.2351641,0 -4.0343597,1.7991952 -4.0343597,4.0343594 V 41.622084 c 0,2.235164 1.7991956,4.03436 4.0343597,4.03436 H 41.622086 c 2.235164,0 4.03436,-1.799196 4.03436,-4.03436 V 8.3779144 c 0,-2.2351642 -1.799196,-4.0343594 -4.03436,-4.0343594 z M 36.917516,23.502396 c 0.968302,0 1.7756,0.05513 2.501827,0.168098 0.726226,0.112968 1.403921,0.292119 2.01718,0.526126 v 3.792035 c -0.282422,-0.209798 -0.612067,-0.395305 -0.967111,-0.556688 -0.379252,-0.161383 -0.751592,-0.29024 -1.130843,-0.39514 -0.379252,-0.104901 -0.757478,-0.182756 -1.128661,-0.233591 -0.355044,-0.05083 -0.711163,-0.07641 -1.050069,-0.07641 -0.49222,0 -0.910957,0.04004 -1.290209,0.128803 -0.387321,0.08876 -0.711079,0.209743 -0.969293,0.371126 -0.258214,0.161383 -0.458666,0.346034 -0.604718,0.571971 -0.146054,0.225938 -0.218309,0.476632 -0.218309,0.750985 0,0.298559 0.08094,0.565669 0.242324,0.807745 0.161384,0.234006 0.38693,0.458892 0.685491,0.676759 0.266283,0.2098 0.630472,0.421116 1.050069,0.630915 0.484151,0.209799 0.919192,0.419595 1.451758,0.637463 0.726226,0.30663 1.371563,0.644345 1.936405,0.967112 0.564843,0.322767 1.042412,0.703175 1.453941,1.130842 0.435736,0.403459 0.749242,0.886916 0.967112,1.451759 0.217866,0.564843 0.331829,1.202109 0.331829,1.936404 0,1.048995 -0.251386,1.856375 -0.574153,2.582602 -0.322768,0.726227 -0.878929,1.266415 -1.532533,1.694082 -0.645535,0.39539 -1.371894,0.702928 -2.259504,0.888519 -0.88761,0.185593 -1.775848,0.272888 -2.74415,0.272888 -0.968302,0 -1.935131,-0.07942 -2.822741,-0.248873 -0.887611,-0.169452 -1.686673,-0.420812 -2.340278,-0.759717 v -3.881543 c -0.05054,-0.04012 -0.103034,-0.0764 -0.152817,-0.117887 l 0.152817,-0.03493 v 0.152817 c 0.686748,0.545118 1.439288,0.96967 2.266053,1.25528 0.806919,0.306628 1.694989,0.458449 2.5826,0.458449 0.564842,0 0.993916,-0.04659 1.373167,-0.135352 0.39539,-0.09683 0.708898,-0.227207 0.967111,-0.38859 0.258215,-0.161385 0.451503,-0.354767 0.574154,-0.580703 0.122651,-0.225938 0.185564,-0.468758 0.185564,-0.726971 0,-0.371183 -0.106085,-0.692758 -0.307817,-0.967111 -0.185592,-0.274352 -0.46077,-0.532261 -0.807745,-0.766267 -0.322768,-0.234006 -0.725283,-0.461075 -1.209434,-0.678942 -0.484151,-0.217869 -0.975759,-0.444275 -1.532533,-0.670211 -1.371761,-0.645535 -2.454073,-1.291118 -3.148023,-2.178728 -0.70202,-0.806919 -1.047886,-1.854688 -1.047886,-3.065066 0,-0.968302 0.183987,-1.74324 0.563239,-2.421052 0.403459,-0.726226 0.881111,-1.258345 1.534716,-1.694081 0.645534,-0.443805 1.371893,-0.767566 2.259502,-0.969295 0.887612,-0.201728 1.773666,-0.305633 2.741968,-0.305632 z M 13.864033,23.94993 h 14.445539 v 3.309573 H 23.14437 V 42.025956 H 19.029236 V 27.259503 h -5.165203 z" />
</svg>
